<?xml version="1.0" encoding="UTF-8"?>
<svg width="150px" height="150px" viewBox="0 0 150 150" version="1.1" xmlns="http://www.w3.org/2000/svg" xmlns:xlink="http://www.w3.org/1999/xlink">
    <!-- Generator: Sketch 53 (72520) - https://sketchapp.com -->
    <title>Rectangle 2</title>
    <desc>Created with Sketch.</desc>
    <defs>
        <linearGradient x1="-8.57754925e-14%" y1="50.0208565%" x2="100%" y2="50.0208565%" id="linearGradient-1">
            <stop stop-color="#83858A" offset="0%"></stop>
            <stop stop-color="#000000" offset="100%"></stop>
        </linearGradient>
        <linearGradient x1="-1.09991136e-13%" y1="49.9219273%" x2="100%" y2="49.9219273%" id="linearGradient-2">
            <stop stop-color="#83858A" offset="0%"></stop>
            <stop stop-color="#000000" offset="100%"></stop>
        </linearGradient>
        <linearGradient x1="0%" y1="49.9843045%" x2="100%" y2="49.9843045%" id="linearGradient-3">
            <stop stop-color="#83858A" offset="0%"></stop>
            <stop stop-color="#000000" offset="100%"></stop>
        </linearGradient>
        <linearGradient x1="0.104275287%" y1="49.9700932%" x2="100%" y2="49.9700932%" id="linearGradient-4">
            <stop stop-color="#83858A" offset="0%"></stop>
            <stop stop-color="#000000" offset="100%"></stop>
        </linearGradient>
        <linearGradient x1="0.000259282809%" y1="50.0627457%" x2="100.004155%" y2="50.0627457%" id="linearGradient-5">
            <stop stop-color="#9198A4" offset="0%"></stop>
            <stop stop-color="#5E6676" offset="99%"></stop>
        </linearGradient>
        <linearGradient x1="0%" y1="50.0072601%" x2="100%" y2="50.0072601%" id="linearGradient-6">
            <stop stop-color="#4E5668" offset="0%"></stop>
            <stop stop-color="#363D4F" offset="100%"></stop>
        </linearGradient>
        <linearGradient x1="0%" y1="49.9895376%" x2="100.00561%" y2="49.9895376%" id="linearGradient-7">
            <stop stop-color="#3B4458" offset="0%"></stop>
            <stop stop-color="#192136" offset="99%"></stop>
        </linearGradient>
        <linearGradient x1="0%" y1="49.9912204%" x2="100%" y2="49.9912204%" id="linearGradient-8">
            <stop stop-color="#A9AEB7" offset="0%"></stop>
            <stop stop-color="#848C99" offset="99%"></stop>
        </linearGradient>
        <linearGradient x1="0%" y1="50.0027897%" x2="100%" y2="50.0027897%" id="linearGradient-9">
            <stop stop-color="#BEC2C9" offset="0%"></stop>
            <stop stop-color="#979EA9" offset="99%"></stop>
        </linearGradient>
        <linearGradient x1="0%" y1="50%" x2="100%" y2="50%" id="linearGradient-10">
            <stop stop-color="#B7BBC3" offset="0%"></stop>
            <stop stop-color="#848C99" offset="99%"></stop>
        </linearGradient>
        <linearGradient x1="-0.00435913259%" y1="50.0449608%" x2="99.9956175%" y2="50.0449608%" id="linearGradient-11">
            <stop stop-color="#9198A4" offset="0%"></stop>
            <stop stop-color="#5E6676" offset="99%"></stop>
        </linearGradient>
        <linearGradient x1="0%" y1="50%" x2="100.011826%" y2="50%" id="linearGradient-12">
            <stop stop-color="#4E5668" offset="0%"></stop>
            <stop stop-color="#363D4F" offset="100%"></stop>
        </linearGradient>
        <linearGradient x1="0%" y1="50%" x2="100.014139%" y2="50%" id="linearGradient-13">
            <stop stop-color="#3B4458" offset="0%"></stop>
            <stop stop-color="#192136" offset="99%"></stop>
        </linearGradient>
        <linearGradient x1="0%" y1="50%" x2="100%" y2="50%" id="linearGradient-14">
            <stop stop-color="#A9AEB7" offset="0%"></stop>
            <stop stop-color="#848C99" offset="99%"></stop>
        </linearGradient>
        <linearGradient x1="0%" y1="50.0062465%" x2="100%" y2="50.0062465%" id="linearGradient-15">
            <stop stop-color="#BEC2C9" offset="0%"></stop>
            <stop stop-color="#979EA9" offset="99%"></stop>
        </linearGradient>
        <linearGradient x1="1.70414375e-14%" y1="50%" x2="100%" y2="50%" id="linearGradient-16">
            <stop stop-color="#B7BBC3" offset="0%"></stop>
            <stop stop-color="#848C99" offset="99%"></stop>
        </linearGradient>
        <linearGradient x1="0.000259517866%" y1="50.0416699%" x2="100.094815%" y2="50.0416699%" id="linearGradient-17">
            <stop stop-color="#9198A4" offset="0%"></stop>
            <stop stop-color="#5E6676" offset="99%"></stop>
        </linearGradient>
        <linearGradient x1="0%" y1="50%" x2="100%" y2="50%" id="linearGradient-18">
            <stop stop-color="#4E5668" offset="0%"></stop>
            <stop stop-color="#363D4F" offset="100%"></stop>
        </linearGradient>
        <linearGradient x1="0%" y1="50.0104624%" x2="100.001544%" y2="50.0104624%" id="linearGradient-19">
            <stop stop-color="#3B4458" offset="0%"></stop>
            <stop stop-color="#192136" offset="99%"></stop>
        </linearGradient>
        <linearGradient x1="0.010138903%" y1="50%" x2="100%" y2="50%" id="linearGradient-20">
            <stop stop-color="#A9AEB7" offset="0%"></stop>
            <stop stop-color="#848C99" offset="99%"></stop>
        </linearGradient>
        <linearGradient x1="0%" y1="49.9898055%" x2="100%" y2="49.9898055%" id="linearGradient-21">
            <stop stop-color="#BEC2C9" offset="0%"></stop>
            <stop stop-color="#979EA9" offset="99%"></stop>
        </linearGradient>
        <linearGradient x1="0%" y1="50.0208565%" x2="100%" y2="50.0208565%" id="linearGradient-22">
            <stop stop-color="#83858A" offset="0%"></stop>
            <stop stop-color="#000000" offset="100%"></stop>
        </linearGradient>
        <linearGradient x1="0%" y1="49.9848255%" x2="100%" y2="49.9848255%" id="linearGradient-23">
            <stop stop-color="#83858A" offset="0%"></stop>
            <stop stop-color="#000000" offset="100%"></stop>
        </linearGradient>
        <linearGradient x1="0%" y1="50%" x2="100%" y2="50%" id="linearGradient-24">
            <stop stop-color="#83858A" offset="0%"></stop>
            <stop stop-color="#000000" offset="100%"></stop>
        </linearGradient>
    </defs>
    <g id="Page-1" stroke="none" stroke-width="1" fill="none" fill-rule="evenodd">
        <g id="market-join2-copy-2" transform="translate(-210.000000, -1238.000000)" fill-rule="nonzero">
            <g id="Group-25" transform="translate(165.000000, 1106.000000)">
                <g id="Group-41" transform="translate(0.000000, 77.000000)">
                    <g id="Group-13">
                        <g id="Asset-7" transform="translate(53.000000, 77.000000)">
                            <polygon id="Path" fill="#000000" opacity="0.1" points="113.245136 77.2179793 70.1590661 102.546373 51.5477043 91.7126943 94.6390661 66.3843005"></polygon>
                            <polygon id="Path" fill="#000000" opacity="0.1" points="88.6328405 62.7979793 45.5467704 88.1263731 26.9354086 77.2873575 70.0267704 51.9589637"></polygon>
                            <path d="M108.434864,21.6887047 C111.324202,20.0289637 115.314241,20.2851295 119.722335,22.8521244 C128.538521,27.986114 135.687782,40.4154922 135.687782,50.6034197 C135.687782,55.6787047 133.920311,59.2490155 131.057432,60.9194301 L127.914086,62.8566839 C125.019455,64.5431088 121.034708,64.2976166 116.58428,61.7199482 C107.768093,56.5859585 100.618833,44.1565803 100.618833,33.9686528 C100.618833,28.8666839 102.407471,25.2856995 105.291518,23.6259585 L108.434864,21.6887047 Z" id="Path" fill="url(#linearGradient-1)"></path>
                            <path d="M105.58786,61.4958031 C104.397198,60.8020207 104.391907,59.6759585 105.58786,58.987513 C106.943108,58.2934535 108.545452,58.2934535 109.9007,58.987513 L131.538988,71.5876684 C132.734942,72.2814508 132.740233,73.407513 131.538988,74.1012953 C130.18374,74.7953548 128.581396,74.7953548 127.226148,74.1012953 L105.58786,61.4958031 Z" id="Path" fill="#000000" opacity="0.1"></path>
                            <path d="M120.410272,27.7512953 C111.83751,20.2797927 103.148327,21.2670984 101.010428,29.9500518 C98.8725292,38.6330052 104.090272,51.7241451 112.652451,59.1903109 C121.21463,66.6564767 129.919689,65.6745078 132.057588,56.9968912 C134.195486,48.3192746 128.988327,35.2227979 120.410272,27.7512953 Z" id="Path" fill="#FFFFFF"></path>
                            <path d="M115.144903,51.8895855 C113.826962,51.0405365 112.633513,50.0094029 111.599377,48.8262694 C110.64052,47.6962668 109.83933,46.4393815 109.218054,45.0905181 L111.20249,43.5695337 C111.559121,44.6028584 112.083051,45.5694531 112.752996,46.4300518 C113.439207,47.3217378 114.244094,48.1137085 115.144903,48.7835751 L115.144903,44.6529016 C114.17838,43.8751948 113.256137,43.0431126 112.382568,42.1606218 C111.62604,41.3977017 110.989022,40.5231333 110.493385,39.566943 C109.985315,38.5950727 109.723532,37.5115413 109.731362,36.4129016 C109.731362,34.9719689 110.212918,34.0326943 111.165447,33.6004145 C112.117977,33.1681347 113.451518,33.3549223 115.144903,34.1607772 L115.144903,31.7485492 L117.409805,33.0880829 L117.409805,35.5163212 C118.611911,36.2935759 119.692687,37.2468398 120.616654,38.3448187 C121.50418,39.4479885 122.267361,40.6472348 122.89214,41.9204663 L120.907704,43.361399 C120.531891,42.3832384 120.030158,41.4591675 119.415409,40.6129534 C118.853228,39.8637969 118.176194,39.2098357 117.409805,38.6756995 L117.409805,42.9131088 C118.359168,43.6780963 119.265478,44.4958952 120.124514,45.3626943 C120.876804,46.1546677 121.50975,47.0537149 122.003113,48.0310881 C122.510088,49.0208385 122.773279,50.1191554 122.770428,51.2331606 C122.770428,52.6740933 122.28358,53.56 121.2993,53.9015544 C120.315019,54.2431088 119.029105,54.0136269 117.430973,53.2397927 L117.430973,55.6733679 L115.16607,54.3551813 L115.144903,51.8895855 Z M115.144903,37.4162176 C114.73504,37.2019278 114.258307,37.157872 113.816654,37.2934715 C113.504436,37.432228 113.350973,37.757772 113.350973,38.2594301 C113.361196,38.7444866 113.524302,39.2136609 113.816654,39.5989637 C114.203981,40.1267515 114.649597,40.6083811 115.144903,41.0345596 L115.144903,37.4162176 Z M119.156109,49.3119171 C119.149998,48.8246676 118.994746,48.3512247 118.711595,47.9563731 C118.334185,47.4334824 117.897271,46.957033 117.409805,46.5367876 L117.409805,50.0217098 C118.574008,50.5020207 119.156109,50.2618653 119.156109,49.3119171 L119.156109,49.3119171 Z" id="Shape" fill="url(#linearGradient-2)"></path>
                            <path d="M48.6001556,1.06735751 C51.4894942,-0.597720207 55.4795331,-0.341554404 59.8876265,2.22544041 C68.7038132,7.35943005 75.8530739,19.7941451 75.8530739,29.9767358 C75.8530739,35.0520207 74.0803113,38.6169948 71.2174319,40.2874093 L68.0793774,42.2246632 C65.1847471,43.9164249 61.1735409,43.6709326 56.7442802,41.0879275 C47.9280934,35.9646114 40.7841245,23.5298964 40.7841245,13.3419689 C40.7841245,8.24 42.5674708,4.66435233 45.4568093,3.0046114 L48.6001556,1.06735751 Z" id="Path" fill="url(#linearGradient-3)"></path>
                            <path d="M45.7531518,40.8584456 C44.5571984,40.1593264 44.5519066,39.038601 45.7531518,38.3448187 C47.1084002,37.6507592 48.7107438,37.6507592 50.0659922,38.3448187 L71.6989883,50.9396373 C72.8949416,51.6387565 72.9002335,52.7594819 71.6989883,53.4532642 C70.3437399,54.1473237 68.7413963,54.1473237 67.3861479,53.4532642 L45.7531518,40.8584456 Z" id="Path" fill="#000000" opacity="0.1"></path>
                            <path d="M55.3101946,22.233057 L54.3417899,26.1502591 C55.5324514,27.1855959 59.2102724,30.6918653 59.7500389,28.4824352 C60.3268482,26.176943 56.500856,23.2683938 55.3101946,22.233057 Z" id="Path" fill="#FFFFFF"></path>
                            <path d="M56.6225681,16.8909326 L55.7494163,20.4398964 C56.7389883,21.304456 59.7976654,24.2503627 60.2950973,22.2437306 C60.8084047,20.1517098 57.6174319,17.7554922 56.6225681,16.8909326 Z" id="Path" fill="#FFFFFF"></path>
                            <path d="M60.5755642,7.10860104 C52.0028016,-0.362901554 43.3136187,0.624404145 41.1757198,9.30735751 C39.037821,17.9903109 44.2555642,31.0814508 52.8177432,38.5476166 C61.3799222,46.0137824 70.0849805,45.0371503 72.2228794,36.3541969 C74.3607782,27.6712435 69.1536187,14.5801036 60.5755642,7.10860104 Z" id="Path" fill="#FFFFFF"></path>
                            <path d="M63.0891829,31.0067358 C62.7363943,32.4298791 62.0167056,33.2446287 60.9301167,33.4509845 C59.8347082,33.6591192 58.5011673,33.3015544 56.9294942,32.3836269 C55.1513183,31.3525297 53.6222503,29.9362416 52.452607,28.236943 C51.2447088,26.4961543 50.4102243,24.5203635 50.0024903,22.4358549 L47.8857588,21.203057 L47.8857588,19.068342 L49.700856,20.1356995 C49.6691051,19.6020207 49.6585214,19.217772 49.6585214,18.9455959 C49.6475974,18.7892439 49.6475974,18.6323105 49.6585214,18.4759585 L47.8645914,17.408601 L47.8645914,15.3272539 L49.8596109,16.5440415 C50.2123995,14.6441451 51.0061738,13.4771675 52.2409339,13.0431088 C53.4756939,12.6090501 55.0385473,12.9434888 56.9294942,14.0464249 C58.4397213,14.912275 59.7723695,16.0606269 60.8560311,17.4299482 C61.8774407,18.6984718 62.6010769,20.1835825 62.9727626,21.7740933 L60.0357977,21.6833679 C59.9203827,20.7724697 59.5781234,19.9058801 59.0409339,19.1644041 C58.5416762,18.4464657 57.8979522,17.8427344 57.151751,17.3925907 C56.1992218,16.8411226 55.4248508,16.6739033 54.8286381,16.8909326 C54.2306615,17.1097409 53.8073152,17.7074611 53.5585992,18.6787565 L59.0621012,21.880829 L58.4535409,23.6099482 L53.3257588,20.6213472 L53.3257588,21.1069948 C53.3257588,21.6406736 53.3257588,22.0355959 53.3257588,22.2810881 L58.0884047,25.0668912 L57.5063035,26.8280311 L53.7120623,24.6025907 C54.1435873,26.5396181 55.3502257,28.2104272 57.0459144,29.2189119 C57.6045807,29.6173585 58.3006368,29.7677806 58.9721401,29.6351813 C59.501323,29.4804145 59.8611673,28.9947668 60.0305058,28.1782383 L63.0891829,31.0067358 Z" id="Path" fill="url(#linearGradient-4)"></path>
                            <path d="M46.9173541,81.7489119 C47.197821,82.9230052 46.5839689,83.3926425 45.5467704,82.7842487 L26.9354086,71.9505699 C25.8631578,71.2802054 25.3774957,69.9623894 25.7553307,68.7484974 L28.4012451,60.9140933 C28.5538201,60.3864536 28.9439552,59.9621327 29.4541576,59.7689188 C29.9643601,59.5757049 30.5350064,59.6361774 30.9942412,59.9321244 L41.4667704,66.0267358 C42.6198148,66.7898814 43.4716524,67.9359437 43.8745525,69.2661658 L46.9173541,81.7489119 Z" id="Path" fill="url(#linearGradient-5)"></path>
                            <polygon id="Path" fill="url(#linearGradient-6)" points="88.6328405 57.4611917 46.9173541 81.7489119 43.8851362 69.287513 85.6006226 44.994456"></polygon>
                            <path d="M46.6845136,82.9656995 C46.9649805,82.7949223 47.0655253,82.3733161 46.9173541,81.7489119 L88.6328405,57.4611917 C88.7863035,58.0802591 88.6857588,58.5285492 88.4052918,58.6726425 L46.6845136,82.9656995 Z" id="Path" fill="url(#linearGradient-7)"></path>
                            <polygon id="Path" fill="url(#linearGradient-8)" points="83.1981323 41.7603627 41.4773541 66.0534197 31.0048249 59.9534715 72.7256031 35.6604145"></polygon>
                            <path d="M29.2214786,59.9054404 C29.7803681,59.5932463 30.4632549,59.6116385 31.0048249,59.9534715 L72.7256031,35.6604145 C72.1833613,35.3208345 71.5016978,35.3024752 70.9422568,35.6123834 L29.2214786,59.9054404 Z" id="Path" fill="url(#linearGradient-9)"></path>
                            <path d="M85.6006226,44.994456 C85.2045339,43.6636627 84.3532337,42.5176917 83.1981323,41.7603627 L41.4773541,66.0480829 C42.6303985,66.8112286 43.482236,67.9572908 43.8851362,69.287513 L85.6006226,44.994456 Z" id="Path" fill="url(#linearGradient-10)"></path>
                            <path d="M71.5296498,96.1742487 C71.8154086,97.348342 71.1962646,97.8126425 70.1590661,97.2095855 L51.5477043,86.3759067 C50.476984,85.70428 49.9917677,84.3876739 50.3676265,83.1738342 L53.0135409,75.3394301 C53.1661158,74.8117904 53.556251,74.3874695 54.0664534,74.1942556 C54.5766558,74.0010417 55.1473021,74.0615142 55.606537,74.3574611 L66.0790661,80.4520725 C67.2329953,81.2118769 68.0852891,82.3566639 68.4868482,83.6861658 L71.5296498,96.1742487 Z" id="Path" fill="url(#linearGradient-11)"></path>
                            <polygon id="Path" fill="url(#linearGradient-12)" points="113.245136 71.8811917 71.5296498 96.1742487 68.4974319 83.707513 110.21821 59.414456"></polygon>
                            <path d="M71.2968093,97.3910363 C71.5772763,97.2149223 71.677821,96.7933161 71.5296498,96.1742487 L113.245136,71.8811917 C113.393307,72.5002591 113.292763,72.9485492 113.012296,73.0979793 L71.2968093,97.3910363 Z" id="Path" fill="url(#linearGradient-13)"></path>
                            <polygon id="Path" fill="url(#linearGradient-14)" points="107.810428 56.1803627 66.0896498 80.4734197 55.6171206 74.3788083 97.3378988 50.0857513"></polygon>
                            <path d="M53.8337743,74.3307772 C54.3918125,74.0150884 55.0765856,74.0335315 55.6171206,74.3788083 L97.3378988,50.0857513 C96.7963288,49.7439183 96.113442,49.7255261 95.5545525,50.0377202 L53.8337743,74.3307772 Z" id="Path" fill="url(#linearGradient-15)"></path>
                            <path d="M110.21821,59.414456 C109.81543,58.0855796 108.963421,56.9411748 107.810428,56.1803627 L66.0896498,80.4734197 C67.243579,81.233224 68.0958728,82.378011 68.4974319,83.707513 L110.21821,59.414456 Z" id="Path" fill="url(#linearGradient-16)"></path>
                            <path d="M52.5478599,62.5684974 L110.892606,62.5684974 L112.528744,73.3541451 L52.5478599,73.3541451 L52.5478599,62.5684974 Z M52.5478599,60.5565285 L110.40349,60.5565285 L109.767452,58.3044041 L52.5478599,58.3044041 L52.5478599,60.5565285 Z" id="Shape" fill="#FFFFFF" style="mix-blend-mode: soft-light;"></path>
                            <path d="M58.7392996,74.3094301 C59.0250584,75.4835233 58.4059144,75.9478238 57.368716,75.3447668 L38.7785214,64.5057513 C37.7062707,63.8353867 37.2206085,62.5175707 37.5984436,61.3036788 L40.244358,53.4639378 C40.401923,52.9334801 40.7997702,52.5099182 41.3164611,52.3225397 C41.8331519,52.1351612 42.4073595,52.2062065 42.8638132,52.5139896 L53.3310506,58.608601 C54.4849797,59.3684054 55.3372736,60.5131924 55.7388327,61.8426943 L58.7392996,74.3094301 Z" id="Path" fill="url(#linearGradient-17)"></path>
                            <polygon id="Path" fill="url(#linearGradient-18)" points="100.481245 50.0163731 58.7604669 74.3094301 55.728249 61.8426943 97.4490272 37.5496373"></polygon>
                            <path d="M58.5276265,75.5208808 C58.8080934,75.3501036 58.9086381,74.9284974 58.7604669,74.3094301 L100.481245,50.0163731 C100.629416,50.6354404 100.528872,51.0837306 100.248405,51.2278238 L58.5276265,75.5208808 Z" id="Path" fill="url(#linearGradient-19)"></path>
                            <polygon id="Path" fill="url(#linearGradient-20)" points="95.0412451 34.315544 53.3204669 58.608601 42.8479377 52.5086528 84.568716 28.2209326"></polygon>
                            <path d="M41.0645914,52.4606218 C41.6263466,52.1502381 42.3106522,52.1706558 42.8532296,52.5139896 L84.568716,28.2209326 C84.028181,27.8756558 83.3434078,27.8572128 82.7853696,28.1729016 L41.0645914,52.4606218 Z" id="Path" fill="url(#linearGradient-21)"></path>
                            <path d="M97.4490272,37.5496373 C97.0474681,36.2201354 96.1951743,35.0753484 95.0412451,34.315544 L53.3204669,58.608601 C54.4743961,59.3684054 55.3266899,60.5131924 55.728249,61.8426943 L97.4490272,37.5496373 Z" id="Path" fill="url(#linearGradient-16)"></path>
                            <path d="M61.4275356,40.7036788 L98.1481145,40.7036788 L99.662495,51.4839896 L42.9009549,51.4839896 L61.4275356,40.7036788 Z M64.6913217,38.6863731 L97.6798341,38.6863731 L96.6588572,36.4342487 L68.7565732,36.4342487 L64.6913217,38.6863731 Z" id="Shape" fill="#FFFFFF" style="mix-blend-mode: soft-light;"></path>
                            <path d="M8.4351751,35.724456 C11.3245136,34.064715 15.3145525,34.3208808 19.7226459,36.8878756 C28.5388327,42.0165285 35.6828016,54.4512435 35.6828016,64.639171 C35.6828016,69.714456 33.9153307,73.2794301 31.0524514,74.9551813 L27.9091051,76.8924352 C25.0197665,78.5788601 21.0297276,78.3333679 16.5792996,75.7556995 C7.76311284,70.6377202 0.61385214,58.2030052 0.61385214,47.9990674 C0.61385214,42.9024352 2.40249027,39.3214508 5.29182879,37.6617098 L8.4351751,35.724456 Z" id="Path" fill="url(#linearGradient-22)"></path>
                            <path d="M5.58817121,75.5315544 C4.3922179,74.837772 4.38692607,73.7117098 5.58817121,73.0179275 C6.94341964,72.323868 8.54576324,72.323868 9.90101167,73.0179275 L31.5392996,85.6180829 C32.7352529,86.3118653 32.7405447,87.4379275 31.5392996,88.1263731 C30.1840512,88.8204325 28.5817076,88.8204325 27.2264591,88.1263731 L5.58817121,75.5315544 Z" id="Path" fill="#000000" opacity="0.1"></path>
                            <path d="M15.1399222,56.9061658 L14.1768093,60.8393782 C15.3463035,61.8587047 19.0505837,65.3596373 19.5797665,63.1502073 C20.151284,60.8393782 16.3305837,57.9468394 15.1399222,56.9061658 Z" id="Path" fill="#FFFFFF"></path>
                            <path d="M16.4575875,51.5693782 L15.5844358,55.118342 C16.5740078,55.9775648 19.6326848,58.9288083 20.1248249,56.9168394 C20.6381323,54.8248187 17.463035,52.428601 16.4575875,51.5693782 Z" id="Path" fill="#FFFFFF"></path>
                            <path d="M20.4105837,41.7870466 C11.8325292,34.315544 3.17509728,35.297513 1.0107393,43.9804663 C-1.15361868,52.6634197 4.09058366,65.7545596 12.6527626,73.2260622 C21.2149416,80.6975648 29.92,79.7102591 32.0578988,71.0326425 C34.1957977,62.3550259 28.9886381,49.2532124 20.4105837,41.7870466 Z" id="Path" fill="#FFFFFF"></path>
                            <polygon id="Path" fill="url(#linearGradient-23)" points="8.94848249 53.5973575 8.94848249 53.5973575 11.0175875 56.2123834 15.700856 62.1468912 15.700856 62.1468912 22.4532296 61.4584456 15.700856 44.5621762 15.700856 44.5621762 15.700856 44.5621762 15.700856 44.5621762 15.700856 44.5621762 8.94848249 53.5973575"></polygon>
                            <polygon id="Path" fill="url(#linearGradient-24)" points="22.4585214 62.9420725 15.700856 63.6251813 15.700856 63.6251813 8.94848249 55.0756477 15.700856 70.0186528 15.700856 70.0186528"></polygon>
                        </g>
                    </g>
                </g>
            </g>
        </g>
    </g>
</svg>