<?xml version="1.0" encoding="UTF-8"?>
<svg width="150px" height="150px" viewBox="0 0 150 150" version="1.1" xmlns="http://www.w3.org/2000/svg" xmlns:xlink="http://www.w3.org/1999/xlink">
    <!-- Generator: Sketch 53 (72520) - https://sketchapp.com -->
    <title>Rectangle 2</title>
    <desc>Created with Sketch.</desc>
    <defs>
        <linearGradient x1="0%" y1="49.9977122%" x2="100%" y2="49.9977122%" id="linearGradient-1">
            <stop stop-color="#9198A4" offset="0%"></stop>
            <stop stop-color="#5E6676" offset="99%"></stop>
        </linearGradient>
        <linearGradient x1="0.010488777%" y1="50%" x2="100%" y2="50%" id="linearGradient-2">
            <stop stop-color="#5B6273" offset="0%"></stop>
            <stop stop-color="#4B5161" offset="100%"></stop>
        </linearGradient>
        <linearGradient x1="0%" y1="49.9957122%" x2="100%" y2="49.9957122%" id="linearGradient-3">
            <stop stop-color="#A9AEB7" offset="0%"></stop>
            <stop stop-color="#848C99" offset="99%"></stop>
        </linearGradient>
        <linearGradient x1="0%" y1="50%" x2="100%" y2="50%" id="linearGradient-4">
            <stop stop-color="#4E5668" offset="0%"></stop>
            <stop stop-color="#363D4F" offset="100%"></stop>
        </linearGradient>
        <linearGradient x1="0%" y1="50.0395883%" x2="100.066667%" y2="50.0395883%" id="linearGradient-5">
            <stop stop-color="#83858A" offset="0%"></stop>
            <stop stop-color="#000000" offset="100%"></stop>
        </linearGradient>
        <linearGradient x1="0%" y1="50.0978474%" x2="100.018829%" y2="50.0978474%" id="linearGradient-6">
            <stop stop-color="#83858A" offset="0%"></stop>
            <stop stop-color="#000000" offset="100%"></stop>
        </linearGradient>
        <linearGradient x1="0%" y1="49.9912173%" x2="100%" y2="49.9912173%" id="linearGradient-7">
            <stop stop-color="#A9AEB7" offset="0%"></stop>
            <stop stop-color="#848C99" offset="99%"></stop>
        </linearGradient>
        <linearGradient x1="0%" y1="50%" x2="100%" y2="50%" id="linearGradient-8">
            <stop stop-color="#9198A4" offset="0%"></stop>
            <stop stop-color="#5E6676" offset="99%"></stop>
        </linearGradient>
        <linearGradient x1="0%" y1="49.997112%" x2="100%" y2="49.997112%" id="linearGradient-9">
            <stop stop-color="#4E5668" offset="0%"></stop>
            <stop stop-color="#363D4F" offset="100%"></stop>
        </linearGradient>
        <linearGradient x1="0.0732064422%" y1="50.2233606%" x2="100.146413%" y2="50.2233606%" id="linearGradient-10">
            <stop stop-color="#A9AEB7" offset="0%"></stop>
            <stop stop-color="#848C99" offset="99%"></stop>
        </linearGradient>
        <linearGradient x1="0%" y1="49.9745168%" x2="100.073206%" y2="49.9745168%" id="linearGradient-11">
            <stop stop-color="#4E5668" offset="0%"></stop>
            <stop stop-color="#363D4F" offset="100%"></stop>
        </linearGradient>
        <linearGradient x1="0.0732064422%" y1="49.6770128%" x2="100.146413%" y2="49.6770128%" id="linearGradient-12">
            <stop stop-color="#A9AEB7" offset="0%"></stop>
            <stop stop-color="#848C99" offset="99%"></stop>
        </linearGradient>
        <linearGradient x1="0%" y1="49.9875187%" x2="100.073206%" y2="49.9875187%" id="linearGradient-13">
            <stop stop-color="#4E5668" offset="0%"></stop>
            <stop stop-color="#363D4F" offset="100%"></stop>
        </linearGradient>
        <linearGradient x1="21.2739069%" y1="71.0955628%" x2="79.5732216%" y2="26.9261137%" id="linearGradient-14">
            <stop stop-color="#9198A4" offset="0%"></stop>
            <stop stop-color="#5E6676" offset="99%"></stop>
        </linearGradient>
        <linearGradient x1="20.3244788%" y1="73.3259852%" x2="80.6776679%" y2="28.3789996%" id="linearGradient-15">
            <stop stop-color="#A9AEB7" offset="0%"></stop>
            <stop stop-color="#848C99" offset="99%"></stop>
        </linearGradient>
        <linearGradient x1="21.9216076%" y1="71.9929166%" x2="80.17598%" y2="27.7953115%" id="linearGradient-16">
            <stop stop-color="#4E5668" offset="0%"></stop>
            <stop stop-color="#363D4F" offset="100%"></stop>
        </linearGradient>
        <linearGradient x1="21.0889721%" y1="74.2903603%" x2="81.3047563%" y2="29.3504062%" id="linearGradient-17">
            <stop stop-color="#9198A4" offset="0%"></stop>
            <stop stop-color="#5E6676" offset="99%"></stop>
        </linearGradient>
    </defs>
    <g id="Page-1" stroke="none" stroke-width="1" fill="none" fill-rule="evenodd">
        <g id="market-join2-copy-2" transform="translate(-490.000000, -1238.000000)">
            <g id="Group-25" transform="translate(165.000000, 1106.000000)">
                <g id="Group-42" transform="translate(290.000000, 77.000000)">
                    <g id="Group-16">
                        <g id="Group-15">
                            <g id="Asset-8" transform="translate(43.000000, 73.000000)">
                                <polygon id="Path" fill="#000000" fill-rule="nonzero" opacity="0.1" points="119.852918 95.3926246 87.9097267 113.91289 43.6795322 88.2685714 75.6227235 69.7483056"></polygon>
                                <polygon id="Path" fill="url(#linearGradient-1)" fill-rule="nonzero" points="87.9097267 101.134286 43.4042248 75.3271096 43.4042248 18.361196 87.9097267 44.1645847"></polygon>
                                <polygon id="Path" fill="url(#linearGradient-2)" fill-rule="nonzero" points="47.6771452 72.8501661 47.6771452 25.795814 83.633035 46.6453156 83.633035 93.6958804"></polygon>
                                <polygon id="Path" fill="url(#linearGradient-3)" fill-rule="nonzero" points="119.852918 25.6443189 87.9097267 44.1645847 43.6795322 18.5202658 75.6227235 0"></polygon>
                                <polygon id="Path" fill="url(#linearGradient-4)" fill-rule="nonzero" points="119.852918 82.6102326 87.9097267 101.134286 87.9097267 44.1645847 119.852918 25.6443189"></polygon>
                                <g id="Group" transform="translate(36.491228, 44.760736)" fill-rule="nonzero">
                                    <polygon id="Path" fill="#00AD8C" points="0.320563313 29.2233887 14.6931137 37.5556146 41.993794 21.7281728 41.993794 21.1562791 27.6212436 12.8240532 0.320563313 28.6552824"></polygon>
                                    <polygon id="Path" fill="#FFFFFF" points="14.7006564 35.279402 3.25843179 28.6477076 27.6099296 14.5283721 39.0483829 21.1638538"></polygon>
                                    <path d="M0.320563313,28.6552824 L14.6931137,36.9875083 L41.993794,21.1562791 L27.6212436,12.8240532 L0.320563313,28.6552824 Z M36.3707364,19.6072425 C35.5599671,20.4881858 35.5599671,21.8470966 36.3707364,22.7280399 L17.4009309,33.7076412 C15.6374994,33.2380937 13.7826701,33.2380937 12.0192386,33.7076412 L5.94362096,30.1853821 C6.75439024,29.3044388 6.75439024,27.945528 5.94362096,27.0645847 L24.8945698,16.081196 C26.6580013,16.5507435 28.5128306,16.5507435 30.2762621,16.081196 L36.3707364,19.6072425 Z" id="Shape" fill="#00E2C1"></path>
                                    <ellipse id="Oval" fill="#00E2C1" transform="translate(21.153636, 24.905841) rotate(-0.310000) translate(-21.153636, -24.905841) " cx="21.1536356" cy="24.9058414" rx="6.38109639" ry="3.70026532"></ellipse>
                                    <polygon id="Path" fill="#00AD8C" points="0.320563313 28.0833887 14.6931137 36.4156146 41.993794 20.5881728 41.993794 20.0162791 27.6212436 11.6840532 0.320563313 27.511495"></polygon>
                                    <polygon id="Path" fill="#FFFFFF" points="14.7006564 34.139402 3.25843179 27.5077076 27.6099296 13.3883721 39.0483829 20.0200664"></polygon>
                                    <path d="M0.320563313,27.511495 L14.6931137,35.8437209 L41.993794,20.0124917 L27.6212436,11.6802658 L0.320563313,27.511495 Z M36.3707364,18.4672425 C35.5599671,19.3481858 35.5599671,20.7070966 36.3707364,21.5880399 L17.4009309,32.5714286 C15.6374994,32.101881 13.7826701,32.101881 12.0192386,32.5714286 L5.94362096,29.0491694 C6.75439024,28.1682262 6.75439024,26.8093153 5.94362096,25.9283721 L24.8945698,14.9449834 C26.6577506,15.4164583 28.5130812,15.4164583 30.2762621,14.9449834 L36.3707364,18.4672425 Z" id="Shape" fill="#00E2C1"></path>
                                    <ellipse id="Oval" fill="#00E2C1" transform="translate(21.155036, 23.765858) rotate(-0.310000) translate(-21.155036, -23.765858) " cx="21.1550364" cy="23.7658581" rx="6.38109639" ry="3.70026532"></ellipse>
                                    <polygon id="Path" fill="#00AD8C" points="0.320563313 26.9433887 14.6931137 35.2756146 41.993794 19.4443854 41.993794 18.8762791 27.6212436 10.5440532 0.320563313 26.371495"></polygon>
                                    <polygon id="Path" fill="#FFFFFF" points="14.7006564 32.999402 3.25843179 26.3677076 27.6099296 12.2483721 39.0483829 18.8800664"></polygon>
                                    <path d="M0.320563313,26.371495 L14.6931137,34.7037209 L41.993794,18.8762791 L27.6212436,10.5440532 L0.320563313,26.371495 Z M36.3707364,17.3272425 C35.5604717,18.2069282 35.5604717,19.5645668 36.3707364,20.4442525 L17.4009309,31.4352159 C15.63775,30.963741 13.7824195,30.963741 12.0192386,31.4352159 L5.94362096,27.9129568 C6.75388562,27.0332711 6.75388562,25.6756326 5.94362096,24.7959468 L24.8945698,13.8125581 C26.6580013,14.2821057 28.5128306,14.2821057 30.2762621,13.8125581 L36.3707364,17.3272425 Z" id="Shape" fill="#00E2C1"></path>
                                    <ellipse id="Oval" fill="#00E2C1" transform="translate(21.156417, 22.622087) rotate(-0.310000) translate(-21.156417, -22.622087) " cx="21.1564168" cy="22.6220874" rx="6.38109639" ry="3.70026532"></ellipse>
                                    <polygon id="Path" fill="#00AD8C" points="0.320563313 25.8033887 14.6931137 34.1356146 41.993794 18.3043854 41.993794 17.7362791 27.6212436 9.40405316 0.320563313 25.2352824"></polygon>
                                    <polygon id="Path" fill="#FFFFFF" points="14.7006564 31.859402 3.25843179 25.2239203 27.6099296 11.1083721 39.0483829 17.7400664"></polygon>
                                    <path d="M0.320563313,25.231495 L14.6931137,33.5637209 L41.993794,17.7362791 L27.6212436,9.40405316 L0.320563313,25.231495 Z M36.3707364,16.1834551 C35.5599671,17.0643984 35.5599671,18.4233092 36.3707364,19.3042525 L17.4009309,30.2990033 C15.63775,29.8275284 13.7824195,29.8275284 12.0192386,30.2990033 L5.94362096,26.7767442 C6.75439024,25.8958009 6.75439024,24.5368901 5.94362096,23.6559468 L24.8945698,12.6725581 C26.6580013,13.1421057 28.5128306,13.1421057 30.2762621,12.6725581 L36.3707364,16.1834551 Z" id="Shape" fill="#00E2C1"></path>
                                    <ellipse id="Oval" fill="#00E2C1" transform="translate(21.154046, 21.482104) rotate(-0.310000) translate(-21.154046, -21.482104) " cx="21.1540463" cy="21.4821041" rx="6.38109639" ry="3.70026532"></ellipse>
                                    <polygon id="Path" fill="#00AD8C" points="0.320563313 24.6596013 14.6931137 32.9918272 41.993794 17.160598 41.993794 16.5887043 27.6212436 8.25647841 0.320563313 24.0877076"></polygon>
                                    <polygon id="Path" fill="#FFFFFF" points="14.7006564 30.7156146 3.25843179 24.0839203 27.6099296 9.96837209 39.0483829 16.6000664"></polygon>
                                    <path d="M0.320563313,24.091495 L14.6931137,32.4237209 L41.993794,16.5924917 L27.6212436,8.26026578 L0.320563313,24.091495 Z M36.3707364,15.0434551 C35.5599671,15.9243984 35.5599671,17.2833092 36.3707364,18.1642525 L17.4009309,29.1627907 C15.6374994,28.6932432 13.7826701,28.6932432 12.0192386,29.1627907 L5.94362096,25.6405316 C6.75439024,24.7595883 6.75439024,23.4006775 5.94362096,22.5197342 L24.8945698,11.5363455 C26.6580013,12.005893 28.5128306,12.005893 30.2762621,11.5363455 L36.3707364,15.0434551 Z" id="Shape" fill="#00E2C1"></path>
                                    <ellipse id="Oval" fill="#00E2C1" transform="translate(21.155447, 20.342121) rotate(-0.310000) translate(-21.155447, -20.342121) " cx="21.1554471" cy="20.3421208" rx="6.38109639" ry="3.70026532"></ellipse>
                                    <polygon id="Path" fill="#00AD8C" points="0.320563313 23.5196013 14.6931137 31.8518272 41.993794 16.0243854 41.993794 15.4524917 27.6212436 7.12026578 0.320563313 22.951495"></polygon>
                                    <polygon id="Path" fill="#FFFFFF" points="14.7006564 29.5756146 3.25843179 22.9439203 27.6099296 8.82458472 39.0483829 15.4600664"></polygon>
                                    <path d="M0.320563313,22.951495 L14.6931137,31.2837209 L41.993794,15.4524917 L27.6212436,7.12026578 L0.320563313,22.951495 Z M36.3707364,13.9034551 C35.5599671,14.7843984 35.5599671,16.1433092 36.3707364,17.0242525 L17.4009309,28.0265781 C15.6374994,27.5570305 13.7826701,27.5570305 12.0192386,28.0265781 L5.94362096,24.5043189 C6.75439024,23.6233757 6.75439024,22.2644648 5.94362096,21.3835216 L24.8945698,10.4001329 C26.6580013,10.8696804 28.5128306,10.8696804 30.2762621,10.4001329 L36.3707364,13.9034551 Z" id="Shape" fill="#00E2C1"></path>
                                    <ellipse id="Oval" fill="#00E2C1" transform="translate(21.153077, 19.202138) rotate(-0.310000) translate(-21.153077, -19.202138) " cx="21.1530766" cy="19.2021375" rx="6.38109639" ry="3.70026532"></ellipse>
                                    <polygon id="Path" fill="url(#linearGradient-5)" points="25.5130684 31.2837209 25.5130684 24.9966777 31.170068 21.7168106 31.170068 27.9887043"></polygon>
                                    <polygon id="Path" fill="url(#linearGradient-6)" points="11.140518 16.6644518 25.5130684 24.9966777 31.170068 21.7168106 16.7975176 13.3845847"></polygon>
                                    <polygon id="Path" fill="#A5B3C4" points="25.5130684 31.2837209 25.5130684 24.9966777 26.7462943 24.2808638 26.7462943 30.5565449"></polygon>
                                    <polygon id="Path" fill="#A5B3C4" points="29.9406134 28.7158804 29.9406134 22.4401993 31.1738394 21.7281728 31.1738394 28.0000664"></polygon>
                                    <polygon id="Path" fill="#A5B3C4" points="11.140518 16.6644518 25.5130684 24.9966777 26.7462943 24.2808638 12.3737439 15.9486379"></polygon>
                                    <polygon id="Path" fill="#A5B3C4" points="15.5529777 14.1079734 29.9255281 22.4401993 31.158754 21.7281728 16.7862036 13.3959468"></polygon>
                                    <polygon id="Path" fill="#00AD8C" points="0.320563313 22.406113 14.6931137 30.7383389 41.993794 14.910897 41.993794 14.3390033 27.6212436 6.00677741 0.320563313 21.8380066"></polygon>
                                    <polygon id="Path" fill="#FFFFFF" points="14.7006564 28.4621262 3.25843179 21.8304319 27.6099296 7.71109635 39.0483829 14.3465781"></polygon>
                                    <path d="M0.320563313,21.8380066 L14.6931137,30.1702326 L41.993794,14.3390033 L27.6212436,6.00677741 L0.320563313,21.8380066 Z M36.3707364,12.7899668 C35.5599671,13.67091 35.5599671,15.0298209 36.3707364,15.9107641 L17.4009309,26.8903654 C15.6374994,26.4208179 13.7826701,26.4208179 12.0192386,26.8903654 L5.94362096,23.3681063 C6.75439024,22.4871631 6.75439024,21.1282522 5.94362096,20.247309 L24.8945698,9.26392027 C26.6580013,9.73346779 28.5128306,9.73346779 30.2762621,9.26392027 L36.3707364,12.7899668 Z" id="Shape" fill="#00E2C1"></path>
                                    <ellipse id="Oval" fill="#00E2C1" transform="translate(21.154620, 18.088665) rotate(-0.310000) translate(-21.154620, -18.088665) " cx="21.1546203" cy="18.0886654" rx="6.38109639" ry="3.70026532"></ellipse>
                                    <polygon id="Path" fill="#00AD8C" points="0.320563313 21.266113 14.6931137 29.5983389 41.993794 13.770897 41.993794 13.1990033 27.6212436 4.86677741 0.320563313 20.6942193"></polygon>
                                    <polygon id="Path" fill="#FFFFFF" points="14.7006564 27.3221262 3.25843179 20.6904319 27.6099296 6.57109635 39.0483829 13.2027907"></polygon>
                                    <path d="M0.320563313,20.6942193 L14.6931137,29.0264452 L41.993794,13.1952159 L27.6212436,4.86677741 L0.320563313,20.6942193 Z M36.3707364,11.6499668 C35.5599671,12.53091 35.5599671,13.8898209 36.3707364,14.7707641 L17.4009309,25.7541528 C15.6374994,25.2846053 13.7826701,25.2846053 12.0192386,25.7541528 L5.94362096,22.2318937 C6.75439024,21.3509504 6.75439024,19.9920396 5.94362096,19.1110963 L24.8945698,8.12770764 C26.6577506,8.59918254 28.5130812,8.59918254 30.2762621,8.12770764 L36.3707364,11.6499668 Z" id="Shape" fill="#00E2C1"></path>
                                    <ellipse id="Oval" fill="#00E2C1" transform="translate(21.156021, 16.948682) rotate(-0.310000) translate(-21.156021, -16.948682) " cx="21.1560211" cy="16.9486821" rx="6.38109639" ry="3.70026532"></ellipse>
                                    <polygon id="Path" fill="#00AD8C" points="0.320563313 20.126113 14.6931137 28.4583389 41.993794 12.6271096 41.993794 12.0590033 27.6212436 3.72677741 0.320563313 19.5542193"></polygon>
                                    <polygon id="Path" fill="#FFFFFF" points="14.7006564 26.1821262 3.25843179 19.5504319 27.6099296 5.43109635 39.0483829 12.0627907"></polygon>
                                    <path d="M0.320563313,19.5542193 L14.6931137,27.8864452 L41.993794,12.0590033 L27.6212436,3.72677741 L0.320563313,19.5542193 Z M36.3707364,10.5099668 C35.5604717,11.3896525 35.5604717,12.747291 36.3707364,13.6269767 L17.4009309,24.6179402 C15.63775,24.1464653 13.7824195,24.1464653 12.0192386,24.6179402 L5.94362096,21.0956811 C6.75388562,20.2159954 6.75388562,18.8583568 5.94362096,17.9786711 L24.8945698,6.99528239 C26.6580013,7.46482992 28.5128306,7.46482992 30.2762621,6.99528239 L36.3707364,10.5099668 Z" id="Shape" fill="#00E2C1"></path>
                                    <ellipse id="Oval" fill="#00E2C1" transform="translate(21.153630, 15.804911) rotate(-0.310000) translate(-21.153630, -15.804911) " cx="21.1536302" cy="15.8049115" rx="6.38109639" ry="3.70026532"></ellipse>
                                    <polygon id="Path" fill="#00AD8C" points="0.320563313 18.986113 14.6931137 27.3183389 41.993794 11.4871096 41.993794 10.9190033 27.6212436 2.58299003 0.320563313 18.4142193"></polygon>
                                    <polygon id="Path" fill="#FFFFFF" points="14.7006564 25.0421262 3.25843179 18.4104319 27.6099296 4.29109635 39.0483829 10.9227907"></polygon>
                                    <path d="M0.320563313,18.4142193 L14.6931137,26.7464452 L41.993794,10.9190033 L27.6212436,2.58299003 L0.320563313,18.4142193 Z M36.3707364,9.3661794 C35.5599671,10.2471227 35.5599671,11.6060335 36.3707364,12.4869767 L17.4009309,23.4817276 C15.63775,23.0102527 13.7824195,23.0102527 12.0192386,23.4817276 L5.94362096,19.9594684 C6.75439024,19.0785252 6.75439024,17.7196143 5.94362096,16.8386711 L24.8945698,5.85528239 C26.6580013,6.32482992 28.5128306,6.32482992 30.2762621,5.85528239 L36.3707364,9.3661794 Z" id="Shape" fill="#00E2C1"></path>
                                    <ellipse id="Oval" fill="#00E2C1" transform="translate(21.155031, 14.664928) rotate(-0.310000) translate(-21.155031, -14.664928) " cx="21.1550311" cy="14.6649282" rx="6.38109639" ry="3.70026532"></ellipse>
                                    <polygon id="Path" fill="#00AD8C" points="0.320563313 17.8423256 14.6931137 26.1745515 41.993794 10.3433223 41.993794 9.77142857 27.6212436 1.44299003 0.320563313 17.2742193"></polygon>
                                    <polygon id="Path" fill="#FFFFFF" points="14.7006564 23.8983389 3.25843179 17.2666445 27.6099296 3.15109635 39.0483829 9.7827907"></polygon>
                                    <path d="M0.320563313,17.2742193 L14.6931137,25.6064452 L41.993794,9.77521595 L27.6212436,1.44299003 L0.320563313,17.2742193 Z M36.3707364,8.2261794 C35.5599671,9.10712265 35.5599671,10.4660335 36.3707364,11.3469767 L17.4009309,22.345515 C15.6374994,21.8759674 13.7826701,21.8759674 12.0192386,22.345515 L5.94362096,18.8232558 C6.75439024,17.9423126 6.75439024,16.5834017 5.94362096,15.7024585 L24.8945698,4.71906977 C26.6580013,5.18861729 28.5128306,5.18861729 30.2762621,4.71906977 L36.3707364,8.2261794 Z" id="Shape" fill="#00E2C1"></path>
                                    <ellipse id="Oval" fill="#00E2C1" transform="translate(21.156432, 13.524945) rotate(-0.310000) translate(-21.156432, -13.524945) " cx="21.1564319" cy="13.5249449" rx="6.38109639" ry="3.70026532"></ellipse>
                                    <polygon id="Path" fill="#00AD8C" points="0.320563313 16.7023256 14.6931137 25.0345515 41.993794 9.20710963 41.993794 8.63521595 27.6212436 0.302990033 0.320563313 16.1342193"></polygon>
                                    <polygon id="Path" fill="#FFFFFF" points="14.7006564 22.7583389 3.25843179 16.1266445 27.6099296 2.00730897 39.0483829 8.6427907"></polygon>
                                    <path d="M0.320563313,16.1342193 L14.6931137,24.4664452 L41.993794,8.63521595 L27.6212436,0.302990033 L0.320563313,16.1342193 Z M36.3707364,7.0861794 C35.5599671,7.96712265 35.5599671,9.32603349 36.3707364,10.2069767 L17.4009309,21.2093023 C15.6374994,20.7397548 13.7826701,20.7397548 12.0192386,21.2093023 L5.94362096,17.6870432 C6.75439024,16.8060999 6.75439024,15.4471891 5.94362096,14.5662458 L24.8945698,3.58285714 C26.6580013,4.05240467 28.5128306,4.05240467 30.2762621,3.58285714 L36.3707364,7.0861794 Z" id="Shape" fill="#00E2C1"></path>
                                    <ellipse id="Oval" fill="#00E2C1" transform="translate(21.154061, 12.384962) rotate(-0.310000) translate(-21.154061, -12.384962) " cx="21.1540614" cy="12.3849615" rx="6.38109639" ry="3.70026532"></ellipse>
                                    <polygon id="Path" fill="url(#linearGradient-5)" points="25.5130684 24.4664452 25.5130684 18.179402 31.170068 14.8995349 31.170068 21.1714286"></polygon>
                                    <polygon id="Path" fill="url(#linearGradient-6)" points="11.140518 9.84717608 25.5130684 18.179402 31.170068 14.8995349 16.7975176 6.56730897"></polygon>
                                    <polygon id="Path" fill="#A5B3C4" points="25.5130684 24.4664452 25.5130684 18.179402 26.7462943 17.463588 26.7462943 23.7392691"></polygon>
                                    <polygon id="Path" fill="#A5B3C4" points="29.9406134 21.8986047 29.9406134 15.6229236 31.1738394 14.910897 31.1738394 21.1827907"></polygon>
                                    <polygon id="Path" fill="#A5B3C4" points="11.140518 9.84717608 25.5130684 18.179402 26.7462943 17.463588 12.3737439 9.13136213"></polygon>
                                    <polygon id="Path" fill="#A5B3C4" points="15.5529777 7.29069767 29.9255281 15.6229236 31.158754 14.910897 16.7862036 6.5786711"></polygon>
                                </g>
                                <polygon id="Path" fill="url(#linearGradient-7)" fill-rule="nonzero" points="83.633035 46.6453156 51.6898437 65.1655814 46.4439193 62.1243189 78.3871106 43.6040532"></polygon>
                                <polygon id="Path" fill="url(#linearGradient-8)" fill-rule="nonzero" points="51.6898437 112.216146 51.6898437 65.1655814 46.4439193 62.1243189 46.4439193 109.174884"></polygon>
                                <polygon id="Path" fill="url(#linearGradient-9)" fill-rule="nonzero" points="83.633035 93.6958804 51.6898437 112.216146 51.6898437 65.1655814 83.633035 46.6453156"></polygon>
                                <path d="M81.5399451,52.7657143 C82.7040354,52.2694171 84.0189625,52.2694171 85.1830529,52.7657143 C85.6884115,53.0118937 85.9373195,53.337608 85.9373195,53.6633223 C85.9373195,53.9890365 85.6921828,54.3147508 85.1830529,54.5647176 C84.0189625,55.0610148 82.7040354,55.0610148 81.5399451,54.5647176 C81.0308151,54.3109635 80.7856785,53.9814618 80.7856785,53.6557475 C80.7856785,53.3300332 81.0421291,53.0232558 81.5399451,52.7657143 Z" id="Path" fill="url(#linearGradient-10)" fill-rule="nonzero"></path>
                                <path d="M80.7894498,61.893289 C80.7894498,62.2190033 81.0421291,62.548505 81.5437164,62.8022591 C82.7078068,63.2985564 84.0227339,63.2985564 85.1868242,62.8022591 C85.6921828,62.5560797 85.9410908,62.2265781 85.9410908,61.9008638 L85.9410908,53.670897 C85.9410908,53.9966113 85.6959542,54.3223256 85.1868242,54.5722924 C84.0227339,55.0685896 82.7078068,55.0685896 81.5437164,54.5722924 C81.0345865,54.3185382 80.7894498,53.9890365 80.7894498,53.6633223 L80.7894498,61.893289 Z" id="Path" fill="url(#linearGradient-11)" fill-rule="nonzero"></path>
                                <path d="M81.5399451,78.7774086 C82.7040354,78.2811114 84.0189625,78.2811114 85.1830529,78.7774086 C85.6884115,79.0273754 85.9373195,79.3493023 85.9373195,79.6750166 C85.9373195,80.0007309 85.6921828,80.3302326 85.1830529,80.5801993 C84.019318,81.0782479 82.70368,81.0782479 81.5399451,80.5801993 C81.0308151,80.3302326 80.7856785,80.0007309 80.7856785,79.6712292 C80.7856785,79.3417276 81.0421291,79.0160133 81.5399451,78.7774086 Z" id="Path" fill="url(#linearGradient-12)" fill-rule="nonzero"></path>
                                <path d="M80.7894498,87.8936213 C80.7894498,88.2231229 81.0421291,88.5526246 81.5437164,88.8025914 C82.7074513,89.3006399 84.0230893,89.3006399 85.1868242,88.8025914 C85.6921828,88.5526246 85.9410908,88.2269103 85.9410908,87.8974086 L85.9410908,79.6712292 C85.9410908,80.0007309 85.6959542,80.3264452 85.1868242,80.576412 C84.0230893,81.0744605 82.7074513,81.0744605 81.5437164,80.576412 C81.0345865,80.3264452 80.7894498,79.9969435 80.7894498,79.6674419 L80.7894498,87.8936213 Z" id="Path" fill="url(#linearGradient-13)" fill-rule="nonzero"></path>
                                <path d="M61.5367944,87.0679734 C60.3412818,86.3824585 59.5983292,84.9053821 59.5983292,82.7996013 C59.5983292,78.5880399 62.562597,73.4561462 66.2170187,71.3352159 C68.042344,70.2747508 69.6979592,70.1724917 70.8934718,70.8580066 L73.3712376,72.2934219 C72.175725,71.607907 70.5201098,71.7139535 68.6947846,72.7706312 C65.0365915,74.8915615 62.076095,80.0234551 62.076095,84.2350166 C62.076095,86.3407973 62.8303616,87.8178738 64.0145602,88.5033887 L61.5367944,87.0679734 Z" id="Path" fill="url(#linearGradient-14)" fill-rule="nonzero"></path>
                                <path d="M62.076095,84.2350166 C62.076095,80.0234551 65.0365915,74.8915615 68.6947846,72.7706312 C70.5201098,71.7139535 72.175725,71.607907 73.3712376,72.2934219 C74.5667502,72.9789369 75.3097028,74.4560133 75.3097028,76.561794 C75.3097028,80.7733555 72.3492063,85.9052492 68.6947846,88.022392 C66.865688,89.0828571 65.2100728,89.1889037 64.0145602,88.5033887 C62.8190476,87.8178738 62.076095,86.3521595 62.076095,84.2350166 Z" id="Path" fill="url(#linearGradient-15)" fill-rule="nonzero"></path>
                                <path d="M66.582838,84.2880399 C66.0322234,83.9736877 65.6965748,83.2957475 65.6965748,82.3337542 C65.6965748,80.4059801 67.0504834,78.0615947 68.7136412,77.0920266 C69.5508772,76.6072425 70.3051438,76.5580066 70.8557584,76.8723588 L71.9871584,77.5275748 C71.4403151,77.2132226 70.6822771,77.2624585 69.8488125,77.7472425 C68.1743406,78.7168106 66.831746,81.0649834 66.831746,82.9927575 C66.831746,83.9547508 67.171166,84.6289037 67.7180093,84.9432558 L66.582838,84.2880399 Z" id="Path" fill="url(#linearGradient-16)" fill-rule="nonzero"></path>
                                <path d="M66.8279747,82.9927575 C66.8279747,81.0649834 68.1818833,78.7168106 69.8450412,77.7472425 C70.6785058,77.2624585 71.4365437,77.2132226 71.983387,77.5275748 C72.5302303,77.8419269 72.8696503,78.5160797 72.8696503,79.4818605 C72.8696503,81.4058472 71.5157417,83.7540199 69.8525838,84.723588 C69.0153479,85.2083721 68.2573099,85.257608 67.7104666,84.9432558 C67.1636233,84.6289037 66.8279747,83.9547508 66.8279747,82.9927575 Z" id="Path" fill="url(#linearGradient-17)" fill-rule="nonzero"></path>
                                <g id="Group" transform="translate(59.281537, 68.172757)" stroke="#FFFFFF" stroke-width="0.5">
                                    <path d="M10.484306,1.50737542 L10.484306,24.9739535" id="Path"></path>
                                    <path d="M20.6669054,7.33614618 L0.301706648,19.1451827" id="Path"></path>
                                    <path d="M17.6837809,0.768837209 L3.28483113,25.7124917" id="Path"></path>
                                    <path d="M17.6837809,17.3651163 L3.28483113,9.12" id="Path"></path>
                                    <path d="M14.2971238,0.151495017 L6.67148824,26.3336213" id="Path"></path>
                                    <path d="M19.9277241,12.1612625 L1.04088793,14.3238538" id="Path"></path>
                                    <path d="M19.8560687,3.2192691 L1.11254326,23.2620598" id="Path"></path>
                                    <path d="M14.4668338,21.7319601 L6.50177826,4.74936877" id="Path"></path>
                                </g>
                                <path d="M66.582838,84.2880399 C66.0322234,83.9736877 65.6965748,83.2957475 65.6965748,82.3337542 C65.6965748,80.4059801 67.0504834,78.0615947 68.7136412,77.0920266 C69.5508772,76.6072425 70.3051438,76.5580066 70.8557584,76.8723588 L71.9871584,77.5275748 C71.4403151,77.2132226 70.6822771,77.2624585 69.8488125,77.7472425 C68.1743406,78.7168106 66.831746,81.0649834 66.831746,82.9927575 C66.831746,83.9547508 67.171166,84.6289037 67.7180093,84.9432558 L66.582838,84.2880399 Z" id="Path" fill="url(#linearGradient-16)" fill-rule="nonzero"></path>
                                <path d="M66.8279747,82.9927575 C66.8279747,81.0649834 68.1818833,78.7168106 69.8450412,77.7472425 C70.6785058,77.2624585 71.4365437,77.2132226 71.983387,77.5275748 C72.5302303,77.8419269 72.8696503,78.5160797 72.8696503,79.4818605 C72.8696503,81.4058472 71.5157417,83.7540199 69.8525838,84.723588 C69.0153479,85.2083721 68.2573099,85.257608 67.7104666,84.9432558 C67.1636233,84.6289037 66.8279747,83.9547508 66.8279747,82.9927575 Z" id="Path" fill="url(#linearGradient-17)" fill-rule="nonzero"></path>
                                <g id="Group" transform="translate(0.000000, 31.472393)" fill-rule="nonzero">
                                    <polygon id="Path" fill="#00AD8C" points="33.4441819 22.5538206 47.8167323 30.8860465 75.1174126 15.0548173 75.1174126 14.486711 60.7448622 6.15448505 33.4441819 21.9857143"></polygon>
                                    <polygon id="Path" fill="#FFFFFF" points="47.824275 28.6136213 36.3858217 21.9781395 60.7335482 7.86259136 72.1757728 14.4942857"></polygon>
                                    <path d="M33.4441819,21.9857143 L47.8167323,30.3179402 L75.1174126,14.4904983 L60.7448622,6.15827243 L33.4441819,21.9857143 Z M69.4830409,12.9376744 C68.6669285,13.8136689 68.6587175,15.1725957 69.4641843,16.0584718 L50.5132355,27.0418605 C48.749804,26.5723129 46.8949746,26.5723129 45.1315431,27.0418605 L39.0559255,23.5196013 C39.872038,22.6436068 39.880249,21.28468 39.0747822,20.398804 L58.025731,9.41541528 C59.7891625,9.88496281 61.6439918,9.88496281 63.4074233,9.41541528 L69.4830409,12.9376744 Z" id="Shape" fill="#00E2C1"></path>
                                    <ellipse id="Oval" fill="#00E2C1" transform="translate(54.469930, 17.968483) rotate(-0.572939) translate(-54.469930, -17.968483) " cx="54.4699296" cy="17.9684831" rx="6.38141736" ry="3.70044922"></ellipse>
                                    <polygon id="Path" fill="#00AD8C" points="27.3647929 24.8224585 41.733572 33.1546844 69.0380236 17.3272425 69.0380236 16.7553488 54.6654732 8.42312292 27.3647929 24.2392027"></polygon>
                                    <polygon id="Path" fill="#FFFFFF" points="41.7411147 30.8784718 30.3026614 24.2467774 54.6541592 10.1312292 66.0926125 16.7629236"></polygon>
                                    <path d="M27.3647929,24.2392027 L41.733572,32.5714286 L69.0380236,16.7401993 L54.6654732,8.40797342 L27.3647929,24.2392027 Z M63.4111947,15.1911628 C62.6004254,16.072106 62.6004254,17.4310169 63.4111947,18.3119601 L44.4602459,29.2953488 C42.6968144,28.8258013 40.841985,28.8258013 39.0785535,29.2953488 L33.0029359,25.7730897 C33.8137052,24.8921465 33.8137052,23.5332356 33.0029359,22.6522924 L51.957656,11.6689037 C53.7198053,12.1384799 55.5734277,12.1384799 57.335577,11.6689037 L63.4111947,15.1911628 Z" id="Shape" fill="#00E2C1"></path>
                                    <ellipse id="Oval" fill="#00E2C1" transform="translate(48.200025, 20.506046) rotate(-0.310000) translate(-48.200025, -20.506046) " cx="48.2000249" cy="20.5060463" rx="6.38109639" ry="3.70026532"></ellipse>
                                    <polygon id="Path" fill="#00AD8C" points="21.9416159 25.1027243 36.3141664 33.4349502 63.6148466 17.6075083 63.6148466 17.0431894 49.2422962 8.71096346 21.9416159 24.5308306"></polygon>
                                    <polygon id="Path" fill="#FFFFFF" points="36.321709 31.1587375 24.8832558 24.5270432 49.2309822 10.4077076 60.6732068 17.0431894"></polygon>
                                    <path d="M21.9416159,24.5308306 L36.3141664,32.8630565 L63.6148466,17.0431894 L49.2422962,8.71096346 L21.9416159,24.5308306 Z M57.991789,15.4865781 C57.1756765,16.3625726 57.1674656,17.7214994 57.9729323,18.6073754 L39.0219835,29.5907641 C37.258552,29.1212166 35.4037227,29.1212166 33.6402912,29.5907641 L27.5646736,26.068505 C28.380786,25.1925105 28.388997,23.8335837 27.5835303,22.9477076 L46.5344791,11.9643189 C48.2976599,12.4357938 50.1529905,12.4357938 51.9161714,11.9643189 L57.991789,15.4865781 Z" id="Shape" fill="#00E2C1"></path>
                                    <ellipse id="Oval" fill="#00E2C1" transform="translate(42.774666, 20.785476) rotate(-0.310000) translate(-42.774666, -20.785476) " cx="42.7746659" cy="20.7854759" rx="6.38109639" ry="3.70026532"></ellipse>
                                    <polygon id="Path" fill="#00AD8C" points="17.1859649 19.6375415 30.3252894 29.8180066 59.4814656 17.7779402 59.5568922 17.2136213 46.4175677 7.03315615 17.2613916 19.0694352"></polygon>
                                    <polygon id="Path" fill="#FFFFFF" points="30.6345387 27.5607309 20.1766321 19.4595349 46.1799737 8.72232558 56.6378804 16.8235216"></polygon>
                                    <path d="M17.2613916,19.0694352 L30.4007161,29.2499003 L59.5568922,17.2136213 L46.4175677,7.03315615 L17.2613916,19.0694352 Z M54.1902852,14.9260465 C53.2644133,15.6848798 53.0770182,17.0319396 53.7603533,18.0165449 L33.5196085,26.371495 C31.8324396,25.6732143 29.9930465,25.4290944 28.1831722,25.6632558 L22.6317699,21.35701 C23.5554118,20.5985421 23.7426626,19.2541691 23.0617019,18.270299 L43.3024466,9.91156146 C44.9883997,10.6094493 46.8261484,10.8548287 48.6351116,10.623588 L54.1902852,14.9260465 Z" id="Shape" fill="#00E2C1"></path>
                                    <ellipse id="Oval" fill="#00E2C1" transform="translate(38.404957, 18.138301) rotate(-82.660000) translate(-38.404957, -18.138301) " cx="38.4049566" cy="18.1383006" rx="3.7000116" ry="6.38153895"></ellipse>
                                    <polygon id="Path" fill="#00AD8C" points="11.9664399 11.6499668 23.5746032 23.5574751 54.1224012 15.6910963 54.2732546 15.1419269 42.6537773 3.23063123 12.1059792 11.1007973"></polygon>
                                    <polygon id="Path" fill="#FFFFFF" points="24.1931018 21.3683721 14.9533357 11.8923588 42.186132 4.87056478 51.4258981 14.3503654"></polygon>
                                    <path d="M12.1172932,11.1007973 L23.7292278,23.0083056 L54.2770259,15.1419269 L42.6537773,3.23063123 L12.1172932,11.1007973 Z M49.2611529,12.1196013 C48.2411851,12.7447682 47.8702771,14.0517648 48.4088316,15.12299 L27.2139396,20.5843854 C25.6405382,19.6569002 23.8526996,19.1593991 22.0283566,19.1413953 L17.1256236,14.104186 C18.1435121,13.4792511 18.5141451,12.1748707 17.9779449,11.1045847 L39.1728369,5.64318937 C40.7467886,6.56936863 42.5342742,7.06677151 44.3584199,7.0861794 L49.2611529,12.1196013 Z" id="Shape" fill="#00E2C1"></path>
                                    <ellipse id="Oval" fill="#00E2C1" transform="translate(32.876445, 13.152494) rotate(-74.845932) translate(-32.876445, -13.152494) " cx="32.8764454" cy="13.1524944" rx="3.67917126" ry="6.34839028"></ellipse>
                                    <polygon id="Path" fill="#00AD8C" points="0 0.659003322 7.9197995 15.3085714 39.4330588 16.1569435 39.7309942 15.6683721 31.8111947 1.01880399 0.297935314 0.170431894"></polygon>
                                    <polygon id="Path" fill="#FFFFFF" points="9.10399809 13.3732226 2.80587182 1.71189369 30.9136174 2.46936877 37.2117436 14.1306977"></polygon>
                                    <path d="M0.297935314,0.170431894 L8.21773481,14.8237874 L39.7309942,15.6683721 L31.8111947,1.01880399 L0.297935314,0.170431894 Z M35.7484664,11.3962126 C34.5953123,11.7129986 33.8801263,12.8687683 34.1079365,14.0473754 L12.2342046,13.4603322 C10.971984,12.1327079 9.3857545,11.1599474 7.63317818,10.6387375 L4.2842344,4.44637874 C5.43621604,4.12801555 6.15064723,2.9734658 5.92476429,1.79521595 L27.7984962,2.38225914 C29.0570041,3.70806809 30.6394513,4.67959547 32.3882086,5.20006645 L35.7484664,11.3962126 Z" id="Shape" fill="#00E2C1"></path>
                                    <ellipse id="Oval" fill="#00E2C1" transform="translate(20.007343, 7.919927) rotate(-58.780000) translate(-20.007343, -7.919927) " cx="20.0073432" cy="7.91992655" rx="3.69607497" ry="6.3883919"></ellipse>
                                </g>
                            </g>
                        </g>
                    </g>
                </g>
            </g>
        </g>
    </g>
</svg>