<?xml version="1.0" encoding="UTF-8"?>
<svg width="250px" height="250px" viewBox="0 0 250 250" version="1.1" xmlns="http://www.w3.org/2000/svg" xmlns:xlink="http://www.w3.org/1999/xlink">
    <!-- Generator: Sketch 52 (66869) - http://www.bohemiancoding.com/sketch -->
    <title>Asset 1</title>
    <desc>Created with Sketch.</desc>
    <defs>
        <linearGradient x1="49.9961718%" y1="17.6283374%" x2="49.9961718%" y2="175.894383%" id="linearGradient-1">
            <stop stop-color="#FFFFFF" offset="0%"></stop>
            <stop stop-color="#EBEBEB" offset="82%"></stop>
        </linearGradient>
    </defs>
    <g id="Page-1" stroke="none" stroke-width="1" fill="none" fill-rule="evenodd">
        <g id="market-join2-copy" transform="translate(-875.000000, -2376.000000)">
            <g id="Asset-10" transform="translate(950.000000, 2404.000000)">
                <ellipse id="Oval" fill="#00CBAD" cx="75.2633725" cy="171.627143" rx="28.5938824" ry="15.3485714"></ellipse>
                <path d="M88.192,172.987143 C83.1592157,176.553095 73.2363922,181.272619 70.5854118,178.912857 C67.9344314,176.553095 74.5945098,171.493571 77.4494118,170.210476 C80.3043137,168.927381 88.192,172.987143 88.192,172.987143 Z" id="Path" fill="#030203"></path>
                <path d="M77.3148235,164.620714 C72.2861176,168.186667 62.3592157,172.910238 59.7082353,170.546429 C57.0572549,168.182619 63.7214118,163.127143 66.5763137,161.844048 C69.4312157,160.560952 77.3148235,164.620714 77.3148235,164.620714 Z" id="Path" fill="#030203"></path>
                <path d="M64.5003922,107.391429 C65.9971765,126.297857 67.2207059,139.250238 65.3160784,162.726429 C68.5788235,167.045238 73.8807843,167.34881 77.4004706,164.665238 C79.7945098,150.753571 80.1819608,118.878571 79.3254902,115.842857 C78.4690196,112.807143 79.3254902,106.432143 79.3254902,106.432143 L64.5003922,107.391429 Z" id="Path" fill="#585E70"></path>
                <path d="M72.5960784,111.309524 C74.0235294,137.890238 72.7388235,159.994286 71.6294902,166.357143 C73.6998393,166.528536 75.7598918,165.925007 77.404549,164.665238 C79.7985882,150.753571 80.1860392,118.878571 79.3295686,115.842857 C78.832,114.078095 78.9217255,111.188095 79.068549,109.075238 C76.1973333,109.99 72.5960784,111.309524 72.5960784,111.309524 Z" id="Path" fill="#484954"></path>
                <path d="M76.6337255,114.875476 C78.1305098,133.781905 79.3540392,146.734286 77.4494118,170.210476 C80.7121569,174.529286 86.0141176,174.832857 89.5338039,172.149286 C91.9278431,158.237619 92.3152941,126.362619 91.4588235,123.326905 C90.6023529,120.29119 91.4588235,113.91619 91.4588235,113.91619 L76.6337255,114.875476 Z" id="Path" fill="#585E70"></path>
                <path d="M84.7253333,118.805714 C86.1527843,145.386429 84.8680784,167.490476 83.7587451,173.853333 C85.8290942,174.024726 87.8891467,173.421198 89.5338039,172.161429 C91.9278431,158.249762 92.3152941,126.374762 91.4588235,123.339048 C90.9612549,121.574286 91.0509804,118.684286 91.1978039,116.571429 C88.3306667,117.474048 84.7253333,118.805714 84.7253333,118.805714 Z" id="Path" fill="#484954"></path>
                <polygon id="Path" fill="#3F4D53" points="16.9540392 98.2397619 29.1893333 91.2292857 41.4246275 98.2397619 29.1893333 105.250238"></polygon>
                <path d="M94.6196078,127.904762 C93.7019608,130.503333 93.3960784,133.065476 90.8796863,133.640238 C88.3632941,134.215 87.8208627,130.871667 88.7058824,127.60119 C89.590902,124.330714 94.6196078,127.904762 94.6196078,127.904762 Z" id="Path" fill="#03E1C7"></path>
                <path d="M32.6886275,94.1840476 C28.3573333,93.8804762 26.8768627,94.0302381 25.5024314,95.3983333 C24.128,96.7664286 23.92,99.142381 26.0122353,100.81 C28.1044706,102.477619 32.2318431,101.570952 35.0867451,98.3814286 C37.9416471,95.1919048 32.6886275,94.1840476 32.6886275,94.1840476 Z" id="Path" fill="#03E1C7"></path>
                <path d="M81.6828235,64.4988095 C86.6952157,67.6033333 91.7239216,71.7845238 93.1024314,74.2130952 C94.4809412,76.6416667 95.888,79.9242857 97.5887059,92.3140476 C99.2894118,104.70381 99.3546667,104.234286 99.0814118,108.079524 C98.8081569,111.924762 98.2657255,128.45119 96.0225882,128.184048 C93.779451,127.916905 87.4578824,128.58881 87.5272157,127.641667 C87.596549,126.694524 88.6161569,108.281905 88.4774902,102.95119 C86.5769412,95.3983333 85.3534118,92.2938095 84.8762353,91.6866667 C84.8762353,101.874524 84.7416471,118.805714 84.7416471,118.805714 C72.7102745,117.053095 66.5926275,114.150952 61.2213333,106.391667 L61.2213333,86.6190476 C57.0083137,90.5330952 56.2578824,91.2495238 54.288,92.2857143 C52.3181176,93.3219048 41.6448627,97.952381 39.8095686,98.6728571 C37.9742745,99.3933333 35.4945882,99.8871429 34.5402353,98.5554762 C33.5858824,97.2238095 31.2774902,94.212381 33.2147451,92.2857143 C35.152,90.3590476 38.4147451,87.9830952 49.4265098,83.5307143 C55.5441569,73.7638095 61.9024314,69.8416667 63.8478431,68.817619 C65.8340392,65.62 70.7811765,61.9771429 71.8578824,61.9771429 C72.9345882,61.9771429 81.6828235,64.4988095 81.6828235,64.4988095 Z" id="Path" fill="#8B929F"></path>
                <path d="M70.1490196,63.2197619 L70.1490196,66.3566667 C70.1490196,67.4171429 70.7036863,68.9957143 73.3098039,68.8338095 C76.8254118,68.6152381 81.6705882,66.4861905 81.6705882,64.8509524 L81.6705882,58.2452381 L70.1490196,63.2197619 Z" id="Path" fill="#24BAA5"></path>
                <path d="M63.8396863,44.8030952 C63.024,43.69 63.1096471,41.4961905 65.1814902,40.1119048 C67.2533333,38.727619 70.6547451,35.392381 78.1998431,35.5583333 C85.7449412,35.7242857 88.1552941,38.7316667 88.7018039,43.1152381 C89.2483137,47.4988095 87.6454902,54.7197619 85.337098,56.5735714 C83.0287059,58.427381 78.8768627,58.767381 78.6729412,58.7309524 C78.4690196,58.6945238 67.6611765,52.2911905 67.6611765,52.2911905 L63.8396863,44.8030952 Z" id="Path" fill="#040304"></path>
                <path d="M63.8396863,44.8030952 C63.8396863,52.4935714 63.5338039,59.8278571 66.947451,62.5114286 C70.361098,65.195 72.6083137,65.0897619 75.3082353,64.5352381 C78.0081569,63.9807143 81.5278431,59.9290476 81.8867451,59.0183333 C83.7709804,58.9171429 84.6886275,58.4111905 85.4553725,57.2980952 C86.2221176,56.185 86.5769412,54.5659524 85.0475294,53.8090476 C83.5181176,53.0521429 81.6298039,55.4280952 81.5808627,57.2495238 C81.0102197,56.6999644 80.6644944,55.9603966 80.6101961,55.1730952 C79.2847059,54.7197619 78.5220392,54.2138095 78.5220392,53.2019048 L78.5220392,48.6969048 C71.078902,48.6969048 67.4083137,48.3933333 63.8396863,44.8030952 Z" id="Path" fill="#06E0C2"></path>
                <path d="M54.2716863,92.3140476 C55.1806505,91.8391961 56.0341159,91.2663733 56.8166275,90.6059524 C56.0335686,91.0107143 53.9984314,91.5530952 51.792,92.022619 C51.792,92.022619 51.5880784,91.2819048 50.8376471,88.2138095 C50.4543962,89.5836356 49.9195861,90.907166 49.2429804,92.1602381 C49.1010776,91.1114785 48.8843766,90.0740325 48.5945098,89.0557143 C47.8777045,90.5844613 47.0729255,92.0710414 46.1841569,93.5080952 C45.6050196,93.7428571 37.0729412,96.677381 33.3656471,96.8514286 C33.7734902,97.5395238 34.2180392,98.1466667 34.5239216,98.5838095 C35.4782745,99.9316667 37.9579608,99.4459524 39.7932549,98.7011905 C41.628549,97.9564286 52.3018039,93.3745238 54.2716863,92.3140476 Z" id="Path" fill="#5A616E"></path>
                <path d="M88.4611765,102.95119 C86.5606275,95.3983333 85.337098,92.2938095 84.8599216,91.6866667 C84.8599216,101.874524 84.7253333,118.805714 84.7253333,118.805714 C85.8080374,118.931456 86.899576,118.965309 87.9880784,118.906905 C88.249098,113.070238 88.5386667,105.946429 88.4611765,102.95119 Z" id="Path" fill="#5A616E"></path>
                <polygon id="Path" fill="#2E323B" points="41.4246275 164.624762 29.1893333 171.627143 29.1893333 105.242143 41.4246275 98.2397619"></polygon>
                <polygon id="Path" fill="#010002" points="16.9540392 164.624762 29.1893333 171.627143 29.1893333 105.242143 16.9540392 98.2397619"></polygon>
                <ellipse id="Oval" stroke="#FFFFFF" stroke-width="0.81" cx="29.1893333" cy="98.4461905" rx="13.1855686" ry="13.0859524"></ellipse>
                <ellipse id="Oval" stroke="#FFFFFF" stroke-width="0.5" cx="29.1893333" cy="98.4461905" rx="18.1898039" ry="18.052381"></ellipse>
                <polygon id="Path" fill="#929092" points="35.6291765 57.2292857 53.2683922 70.0602381 55.6012549 68.6759524 55.6012549 30.5230952 2.33286275 0 0 1.38428571 2.33286275 38.1528571 22.3090196 49.5995238 26.6362353 70.0602381 28.969098 68.6759524"></polygon>
                <polygon id="Path" fill="url(#linearGradient-1)" points="33.2922353 58.6135714 53.2683922 70.0602381 53.2683922 31.907381 0 1.38428571 0 39.5371429 19.9761569 50.9838095 26.6362353 70.0602381"></polygon>
                <polygon id="Path" fill="#24BAA5" points="11.5378824 22.2619048 18.6302745 26.3095238 18.6302745 27.3133333 12.6431373 23.9092857 12.6431373 27.2364286 17.9981176 30.3045238 17.9981176 31.3083333 12.6431373 28.2361905 12.6431373 31.6483333 18.6996078 35.1171429 18.6996078 36.1209524 11.5378824 32.012619"></polygon>
                <polygon id="Path" fill="#24BAA5" points="23.9567059 34.1659524 20.326902 27.3092857 21.6156863 28.0580952 24.6296471 33.7652381 27.6150588 31.4945238 28.9038431 32.2352381 25.2862745 34.9147619 29.0547451 42.0547619 27.7333333 41.2857143 24.5929412 35.2952381 21.452549 37.687381 20.1882353 36.9709524"></polygon>
                <polygon id="Path" fill="#24BAA5" points="31.1918431 33.5385714 32.3011765 34.17 32.3011765 43.912619 31.1918431 43.2771429"></polygon>
                <polygon id="Path" fill="#24BAA5" points="37.7662745 38.3188095 34.470902 36.4285714 34.470902 35.4166667 42.1832157 39.832619 42.1832157 40.8485714 38.8878431 38.962381 38.8878431 47.6890476 37.7662745 47.0454762"></polygon>
                <polygon id="Path" fill="#06E0C2" points="11.0484706 22.5411905 18.1408627 26.5888095 18.1408627 27.592619 12.1537255 24.1764286 12.1537255 27.5238095 17.5087059 30.5919048 17.5087059 31.5714286 12.1537255 28.5033333 12.1537255 31.9154762 18.2101961 35.3842857 18.2101961 36.3880952 11.0484706 32.2797619"></polygon>
                <polygon id="Path" fill="#06E0C2" points="23.4672941 34.4330952 19.8374902 27.5764286 21.1425882 28.3333333 24.156549 34.0404762 27.1419608 31.7697619 28.4307451 32.5104762 24.8009412 35.19 28.5694118 42.33 27.2520784 41.5771429 24.1116863 35.5866667 20.9712941 37.9788095 19.6988235 37.2380952"></polygon>
                <polygon id="Path" fill="#06E0C2" points="30.7024314 33.8057143 31.8117647 34.4371429 31.8117647 44.1797619 30.7024314 43.5442857"></polygon>
                <polygon id="Path" fill="#06E0C2" points="37.2768627 38.5859524 33.9814902 36.6997619 33.9814902 35.6838095 41.6938039 40.0997619 41.6938039 41.1157143 38.3984314 39.2295238 38.3984314 47.9561905 37.2768627 47.312619"></polygon>
            </g>
        </g>
    </g>
</svg>