<?xml version="1.0" encoding="UTF-8"?>
<svg width="808px" height="617px" viewBox="0 0 808 617" version="1.1" xmlns="http://www.w3.org/2000/svg" xmlns:xlink="http://www.w3.org/1999/xlink">
    <!-- Generator: Sketch 52 (66869) - http://www.bohemiancoding.com/sketch -->
    <title>Asset 6</title>
    <desc>Created with Sketch.</desc>
    <defs>
        <linearGradient x1="0%" y1="49.9936053%" x2="100%" y2="49.9936053%" id="linearGradient-1">
            <stop stop-color="#00FFE2" offset="0%"></stop>
            <stop stop-color="#00CDB3" offset="99%"></stop>
        </linearGradient>
        <linearGradient x1="0%" y1="50.0078113%" x2="99.9909804%" y2="50.0078113%" id="linearGradient-2">
            <stop stop-color="#ABFFF3" offset="0%"></stop>
            <stop stop-color="#00FFE2" offset="99%"></stop>
        </linearGradient>
        <linearGradient x1="0%" y1="49.9936053%" x2="99.9820176%" y2="49.9936053%" id="linearGradient-3">
            <stop stop-color="#00E2C1" offset="0%"></stop>
            <stop stop-color="#00AA8D" offset="100%"></stop>
        </linearGradient>
    </defs>
    <g id="Page-1" stroke="none" stroke-width="1" fill="none" fill-rule="evenodd">
        <g id="market-About" transform="translate(-608.000000, -217.000000)">
            <g id="Asset-6" transform="translate(608.000000, 217.000000)">
                <polygon id="Path" fill="#000000" points="323 284.694891 161.004691 378 0 285.276051 161.995309 192"></polygon>
                <polygon id="Path" fill="#EDEDED" points="162 321 0 227.380051 0 93 162 186.619949"></polygon>
                <polygon id="Path" fill="#FFFFFF" points="324 92.6948914 161.975555 186 1 93.2760506 162.995309 0"></polygon>
                <polygon id="Path" fill="#D8D8D8" points="324 227.380051 162 321 162 186.619949 324 93"></polygon>
                <polygon id="Path" fill="#181E26" points="40.07 183.092154 34.07 179.855542 34.07 186.271482 41 190.052304 41 192 32 187.073474 32 169 41 173.840598 41 175.788294 34.28 172.0934 34.28 177.821918 40.28 181.058531"></polygon>
                <polygon id="Path" fill="#181E26" points="47.587766 185.40684 50.5132979 180.041274 52.912234 181.426887 48.6702128 188.207547 53 200 50.5718085 198.584906 47.4707447 189.534198 44.4574468 195.076651 42.0292553 193.691038 46.2420213 186.792453 42 175 44.3989362 176.385613"></polygon>
                <path d="M64.9802407,201.107754 C65.1103079,202.471504 64.5927897,203.816276 63.58885,204.723284 C62.7261878,205.235721 61.5574196,205.03644 59.999062,204.12544 C58.389275,203.129676 57.1094238,201.661641 56.3257905,199.912067 C55.4233048,197.916103 54.9851538,195.733357 55.0457111,193.53507 L55.0457111,190.261165 C54.8381116,188.564437 55.3437925,186.857256 56.4371018,185.563823 C57.3832475,184.738229 58.6633269,184.823635 60.2773401,185.791573 C61.6994244,186.636893 62.8648871,187.868614 63.6445056,189.350165 C64.4772185,190.968074 64.9342897,192.760534 64.9802407,194.588413 L63.0044659,193.421195 C62.9871613,192.183588 62.7219733,190.962757 62.2252871,189.834134 C61.7754495,188.928142 61.0669728,188.18349 60.1938567,187.698978 C59.1363998,187.072666 58.3293932,187.072666 57.7728369,187.698978 C57.0658912,188.78916 56.7601852,190.10068 56.9101746,191.399914 L56.9101746,194.702288 C56.9079541,196.314957 57.2201493,197.911885 57.8284925,199.39963 C58.2444469,200.589981 59.0508423,201.59604 60.1103732,202.246504 C61.1400024,202.844347 61.8635255,202.986691 62.3087706,202.673535 C62.7540156,202.360379 63.0322937,201.449379 63.1157772,199.997473 L64.9802407,201.107754 Z" id="Path" fill="#181E26"></path>
                <polygon id="Path" fill="#181E26" points="79 214 76.8729282 212.857143 76.8729282 204.514286 70.1270718 200.857143 70.1270718 209.171429 68 208.028571 68 190 70.1270718 191.142857 70.1270718 198.885714 76.8729282 202.571429 76.8729282 194.828571 79 195.971429"></polygon>
                <path d="M90.6956522,216.305592 L85.2753623,213.215865 L84.0289855,217.221066 L82,216.048114 L87.1014493,201 L88.8115942,201.972692 L94,223 L91.942029,221.79844 L90.6956522,216.305592 Z M85.7681159,211.556567 L90.1449275,214.045514 L87.942029,204.604681 L85.7681159,211.556567 Z" id="Shape" fill="#181E26" fill-rule="nonzero"></path>
                <polygon id="Path" fill="#181E26" points="106 230 103.867036 228.828571 97.1024931 211.285714 97.1024931 225.171429 95 224.028571 95 206 97.1024931 207.142857 103.897507 224.771429 103.897507 210.828571 106 211.942857"></polygon>
                <path d="M119.96962,236.234141 L119.605055,236.526361 C118.54174,237.315354 116.99234,237.1108 114.926472,235.971144 C113.085368,234.955505 111.595629,233.441271 110.642834,231.617072 C109.587763,229.606126 109.046204,227.38225 109.063053,225.129797 L109.063053,221.506274 C108.809956,219.713908 109.325382,217.899593 110.490932,216.480098 C111.432725,215.720327 112.830224,215.866436 114.713809,216.889205 C116.271393,217.741077 117.570128,218.970142 118.48098,220.454284 C119.401668,221.985492 119.913151,223.712439 119.96962,225.480461 L117.842991,224.311582 C117.79886,223.203647 117.508819,222.117614 116.99234,221.126389 C116.47924,220.184693 115.685955,219.411484 114.713809,218.90552 C113.528973,218.233415 112.617561,218.174971 112.070713,218.730188 C111.3679,219.821641 111.05828,221.105322 111.189682,222.382933 L111.189682,226.152566 C111.155071,227.807861 111.486443,229.451344 112.161855,230.974189 C112.75479,232.20421 113.731827,233.225712 114.956852,233.896385 C115.689339,234.441031 116.64005,234.634682 117.539187,234.42238 L117.842991,234.42238 L117.842991,230.09753 L114.80495,228.402657 L114.80495,226.386341 L120,229.308537 L119.96962,236.234141 Z" id="Path" fill="#181E26"></path>
                <polygon id="Path" fill="#181E26" points="131.13 236.127341 125.13 232.825218 125.13 239.257179 132 243.047441 132 245 123 240.061174 123 222 131.82 226.852684 131.82 228.833958 125.13 225.101124 125.13 230.843945 131.13 234.088639"></polygon>
                <path d="M218.052992,223.042991 C217.993956,221.17445 218.356239,219.315949 219.114501,217.597476 C219.746297,216.195458 220.804529,215.014348 222.147385,214.212426 C223.360539,213.535416 224.270404,213.564851 224.937639,214.212426 L224.937639,207.147974 L227,206 L227,225.486115 L225.119612,226.545782 L225.119612,225.132892 C224.516791,226.537431 223.449855,227.707546 222.086728,228.459072 C220.782587,229.165517 219.781736,229.194952 219.053844,228.459072 C218.213186,227.2944 217.855807,225.864963 218.052992,224.455882 L218.052992,223.042991 Z M220.085024,223.042991 C219.987115,224.064023 220.209102,225.089957 220.72193,225.986513 C221.116205,226.486912 221.783439,226.457477 222.723633,225.986513 C223.835378,225.316921 224.647262,224.266305 224.998296,223.042991 L224.998296,216.302326 C224.482706,215.47814 223.724485,215.360399 222.753962,215.919669 C221.845528,216.419398 221.131537,217.195092 220.72193,218.12731 C220.258972,219.300293 220.042423,220.551298 220.085024,221.806712 L220.085024,223.042991 Z" id="Shape" fill="#181E26" fill-rule="nonzero"></path>
                <path d="M237.690647,214.279739 L232.309353,217.385621 L231.071942,222.820915 L229,224 L234.151079,202.977778 L235.848921,202 L241,217.069281 L238.956835,218.277124 L237.690647,214.279739 Z M232.971223,215.084967 L237.316547,212.583007 L235.129496,205.652288 L232.971223,215.084967 Z" id="Shape" fill="#181E26" fill-rule="nonzero"></path>
                <path d="M245.046612,207.646069 L245.046612,214.831618 L243,216 L243,197.714823 L248.175005,194.793868 C249.666108,193.946791 250.864838,193.771533 251.712721,194.297305 C252.560603,194.823077 252.999163,195.93304 252.999163,197.627194 C253.044375,201.015707 251.255899,204.164902 248.321192,205.864287 L245.046612,207.646069 Z M245.046612,205.65982 L248.175005,203.878037 C249.052992,203.375274 249.772191,202.636518 250.250855,201.74574 C250.720513,200.842866 250.970906,199.842245 250.981788,198.824785 C251.086689,198.007078 250.805878,197.187025 250.221617,196.60486 C249.724583,196.225136 249.052125,196.283555 248.175005,196.780117 L245.046612,198.591109 L245.046612,205.65982 Z" id="Shape" fill="#181E26" fill-rule="nonzero"></path>
                <path d="M258.039233,200.668193 L258.039233,207.80558 L256,209 L256,190.704984 L261.127214,187.791765 C262.642072,186.946932 263.807348,186.772139 264.681305,187.296518 C265.657422,188.105026 266.142922,189.362927 265.963108,190.617588 C266.014703,194.006408 264.217355,197.154588 261.272873,198.832865 L258.039233,200.668193 Z M258.039233,198.687205 L261.127214,196.881009 C262.006998,196.399214 262.726139,195.669936 263.195578,194.783491 C263.674315,193.887124 263.924475,192.886474 263.923876,191.870272 C264.031512,191.059802 263.763332,190.244525 263.195578,189.656225 C262.536075,189.311014 261.734432,189.391179 261.156346,189.860151 L258.039233,191.666347 L258.039233,198.687205 Z" id="Shape" fill="#181E26" fill-rule="nonzero"></path>
                <path d="M274.881605,192.861675 C274.881605,191.969754 274.67674,191.394322 274.237743,191.164149 C273.463366,190.944344 272.641541,190.944344 271.867163,191.164149 C270.999289,191.349476 270.101058,191.349476 269.233184,191.164149 C268.679017,191.042609 268.195565,190.71198 267.886928,190.243457 C267.565104,189.641685 267.413496,188.966016 267.447932,188.286986 C267.463164,186.781118 267.898456,185.308235 268.706388,184.028785 C269.524899,182.663281 270.68304,181.52472 272.072028,180.720048 C272.828293,180.234939 273.715349,179.984348 274.618207,180.000757 C275.325667,180.016514 275.976337,180.385137 276.344926,180.978993 C276.774405,181.722197 276.977579,182.571084 276.930255,183.424581 L274.881605,184.575446 C274.881605,183.482124 274.647473,182.734062 274.179211,182.417574 C273.710948,182.101086 272.979287,182.158629 272.072028,182.676519 C270.454781,183.565973 269.465412,185.257043 269.496582,187.078578 C269.410861,187.676767 269.699479,188.266944 270.228243,188.574702 C270.973096,188.792153 271.766171,188.792153 272.511024,188.574702 C273.630167,188.21543 274.847551,188.297968 275.90593,188.804875 C276.736385,189.522438 277.134183,190.608751 276.959521,191.682038 C276.943966,193.18293 276.497597,194.648996 275.671799,195.911467 C274.817644,197.288889 273.618579,198.428059 272.189093,199.220204 C271.408638,199.706697 270.508234,199.975235 269.584381,199.997038 C268.852617,200.03472 268.149987,199.710931 267.71133,199.13389 C267.196355,198.412294 266.948455,197.539003 267.008936,196.65953 L269.057586,195.508664 C269.057586,196.630758 269.35025,197.321277 269.906312,197.637765 C270.682165,197.905842 271.543617,197.764694 272.189093,197.263734 C273.029396,196.815505 273.728028,196.148592 274.208477,195.336035 C274.664952,194.589837 274.898247,193.732264 274.881605,192.861675 Z" id="Path" fill="#181E26"></path>
                <path d="M205,83.3237082 C205,78.1838906 201.107394,73.275076 192.944542,68.5683891 C186.553697,64.9108409 180.133803,61.3880446 173.684859,58 L144.490317,74.7477204 L132.696303,67.9620061 L123.226232,73.3905775 L135.049296,80.1762918 L106,96.8085106 C111.984155,100.658561 117.890845,104.277609 123.72007,107.665653 C131.619217,112.388145 140.646979,114.920726 149.864437,115 C158.876076,114.972071 167.714771,112.53878 175.456866,107.954407 L192.014965,98.4255319 C200.574824,93.5167173 204.903169,88.4827761 205,83.3237082 Z M165.957746,103.334347 C160.612456,106.481508 154.508306,108.128144 148.295775,108.098784 C142.321465,108.012952 136.469631,106.402146 131.301937,103.420973 C128.977993,102.092705 125.985915,100.158055 122.325704,97.6458967 L143.93838,85.2583587 L155.383803,91.8130699 L164.824824,86.3844985 L153.408451,79.8297872 L175.369718,66.9802432 C179.756162,69.3480243 183.009683,71.1382979 185.130282,72.3799392 C190.649648,75.5273556 193.322183,78.8768997 193.205986,82.399696 C193.089789,85.9224924 189.981514,89.5319149 183.852113,92.9680851 L165.957746,103.334347 Z" id="Shape" fill="#181E26" fill-rule="nonzero"></path>
                <polygon id="Path" fill="#000000" points="647 296.694891 484.975555 390 324 297.276051 485.995309 204"></polygon>
                <polygon id="Path" fill="#EDEDED" points="486 321 324 227.380051 324 93 486 186.619949"></polygon>
                <polygon id="Path" fill="#FFFFFF" points="647 92.6948914 484.975555 186 324 93.2760506 485.995309 0"></polygon>
                <polygon id="Path" fill="#D8D8D8" points="647 227.380051 485 321 485 186.619949 647 93"></polygon>
                <polygon id="Path" fill="#181E26" points="370.662393 177.497231 375 194.772979 379.307692 182.334441 382 183.831672 382 202 379.935897 200.848283 379.935897 193.736434 380.115385 186.768549 375.777778 198.516058 374.192308 197.623477 369.884615 181.125138 370.064103 188.265781 370.064103 195.348837 368 194.197121 368 176"></polygon>
                <path d="M392.690647,204.362809 L387.309353,201.273082 L386.071942,205.306892 L384,204.105332 L389.151079,189 L390.877698,189.972692 L396,211 L393.956835,209.827048 L392.690647,204.362809 Z M387.827338,199.642393 L392.172662,202.131339 L389.985612,192.661899 L387.827338,199.642393 Z" id="Shape" fill="#181E26" fill-rule="nonzero"></path>
                <path d="M403.970588,207.710145 L401.029412,206.057971 L401.029412,213.478261 L399,212.318841 L399,194 L403.558824,196.608696 C406.63442,198.233328 408.513549,201.432057 408.411765,204.869565 C408.469833,205.778432 408.232911,206.681931 407.735294,207.449275 C407.298578,208.032653 406.585948,208.350884 405.852941,208.289855 L409,217.855072 L409,218 L406.794118,216.753623 L403.970588,207.710145 Z M401.029412,204.086957 L403.529412,205.507246 C404.382353,206 405.058824,206.086957 405.588235,205.73913 C406.176753,205.222628 406.463823,204.450068 406.352941,203.681159 C406.476232,201.55104 405.326759,199.54596 403.411765,198.550725 L400.941176,197.15942 L401.029412,204.086957 Z" id="Shape" fill="#181E26" fill-rule="nonzero"></path>
                <polygon id="Path" fill="#181E26" points="413.767956 212.870659 412.096685 214.106587 412.096685 220.31497 410 219.165269 410 201 412.096685 202.149701 412.096685 210.772455 413.494475 209.536527 418.022099 205.22515 420.574586 206.633533 415.104972 211.634731 421 225 418.477901 223.620359"></polygon>
                <polygon id="Path" fill="#181E26" points="431.16 222.120797 425.16 218.855542 425.16 225.271482 432 229.052304 432 231 423 226.073474 423 208 431.82 212.840598 431.82 214.816936 425.1 211.0934 425.1 216.821918 431.1 220.058531"></polygon>
                <polygon id="Path" fill="#181E26" points="444 222.105263 439.972222 219.673684 439.972222 236 438.027778 234.813158 438.027778 218.4 434 215.968421 434 214 444 220.021053"></polygon>
                <path d="M525.039233,232.623827 L525.039233,239.79922 L523,241 L523,222.724713 L528.156346,219.795981 C529.642072,218.946649 530.807348,218.770925 531.681305,219.298097 C532.657422,220.11091 533.142922,221.375509 532.963108,222.636851 C533.008158,226.034386 531.22613,229.191966 528.302005,230.895875 L525.039233,232.623827 Z M525.039233,230.632289 L528.156346,228.816475 C529.030086,228.324108 529.747223,227.59299 530.22471,226.707789 C530.68155,225.799641 530.920971,224.79673 530.923876,223.779057 C531.031512,222.964271 530.763332,222.144653 530.195578,221.55322 C529.700336,221.201773 529.030302,221.260347 528.156346,221.758232 L525.039233,223.574045 L525.039233,230.632289 Z" id="Shape" fill="#181E26" fill-rule="nonzero"></path>
                <path d="M540,223.706397 L537.058824,225.353374 L537.058824,232.823588 L535,234 L535,215.559746 L539.558824,212.91282 C541.147059,212.001101 542.352941,211.765818 543.176471,212.236383 C544,212.706948 544.411765,213.853949 544.411765,215.677387 C544.403536,216.837552 544.173938,217.985485 543.735294,219.059571 C543.283581,220.141875 542.646589,221.137124 541.852941,222.0006 L545,227.882659 L542.823529,229.147302 L540,223.706397 Z M537.058824,223.382884 L539.529412,221.94178 C540.396859,221.438032 541.109093,220.705486 541.588235,219.824239 C542.082952,218.922419 542.345733,217.911775 542.352941,216.883209 C542.352941,214.530386 541.411765,213.94218 539.411765,214.97154 L536.970588,216.383234 L537.058824,223.382884 Z" id="Shape" fill="#181E26" fill-rule="nonzero"></path>
                <path d="M557.951434,213.506314 C558.00604,215.73561 557.52425,217.946394 556.544646,219.961616 C555.669966,221.737624 554.272081,223.219317 552.529439,224.217546 C550.858879,225.160134 549.598631,225.245824 548.543541,224.503179 C547.373087,223.260532 546.825979,221.577277 547.048829,219.90449 L547.048829,216.534022 C547.007947,214.312059 547.499686,212.111458 548.484924,210.107283 C549.34225,208.305179 550.74291,206.800617 552.500131,205.794227 C554.2,204.851638 555.430939,204.737385 556.48603,205.508594 C557.638934,206.816864 558.171143,208.538897 557.951434,210.250099 L557.951434,213.506314 Z M555.929176,211.535447 C556.082129,210.221609 555.783181,208.895459 555.079242,207.765093 C554.522388,207.165264 553.643146,207.193828 552.500131,207.765093 C551.35879,208.427125 550.465163,209.42818 549.950328,210.621422 C549.323354,212.085471 549.023621,213.662902 549.071086,215.248674 L549.071086,218.504889 C548.919438,219.804226 549.229797,221.114936 549.950328,222.218116 C550.507182,222.846508 551.386424,222.846508 552.529439,222.218116 C553.676831,221.571155 554.565335,220.564265 555.049934,219.361787 C555.661346,217.913253 555.960623,216.357669 555.929176,214.791662 L555.929176,211.535447 Z" id="Shape" fill="#181E26" fill-rule="nonzero"></path>
                <polygon id="Path" fill="#181E26" points="570 197.989362 565.944444 200.446809 565.944444 216.829787 564.027778 218 564.027778 201.617021 560 204.074468 560 202.114362 570 196"></polygon>
                <path d="M582.945668,199.506314 C583.000263,201.73561 582.51857,203.946394 581.539164,205.961616 C580.664662,207.737624 579.267059,209.219317 577.52477,210.217546 C575.854547,211.160134 574.594554,211.245824 573.568979,210.503179 C572.388187,209.265486 571.830265,207.581631 572.045267,205.90449 L572.045267,202.534022 C572.004394,200.312059 572.496033,198.111458 573.481073,196.107283 C574.338225,194.305179 575.738602,192.800617 577.495467,191.794227 C579.194992,190.851638 580.425683,190.737385 581.48056,191.508594 C582.646643,192.809667 583.180591,194.537676 582.945668,196.250099 L582.945668,199.506314 Z M580.923819,197.535447 C581.076741,196.221609 580.777854,194.895459 580.074057,193.765093 C579.517316,193.165264 578.638251,193.193828 577.495467,193.765093 C576.354357,194.427125 575.46091,195.42818 574.94618,196.621422 C574.332612,198.089294 574.033462,199.663969 574.067116,201.248674 L574.067116,204.447762 C573.915498,205.747099 574.225794,207.05781 574.94618,208.160989 C575.502921,208.789381 576.381986,208.789381 577.52477,208.160989 C578.67193,207.514028 579.560254,206.507139 580.044755,205.304661 C580.656043,203.856126 580.95526,202.300542 580.923819,200.734535 L580.923819,197.535447 Z" id="Shape" fill="#181E26" fill-rule="nonzero"></path>
                <path d="M596,193.428662 C595.947009,195.256718 595.428039,197.045953 594.486874,198.645416 C593.550437,200.174832 592.190678,201.436 590.552747,202.294293 C588.858046,203.206513 587.526495,203.263526 586.527832,202.294293 C585.369435,200.962106 584.834343,199.244223 585.044969,197.533649 L585.044969,194.454909 C585.013975,192.250288 585.543157,190.070655 586.588357,188.097881 C587.475448,186.307844 588.922023,184.815889 590.734322,183.821853 C592.368498,182.93814 593.609261,182.767099 594.486874,183.308729 C595.561294,184.237091 596.100945,185.592673 595.939475,186.957606 L593.821099,188.126387 C593.821099,186.701045 593.427686,185.817332 592.943486,185.47525 C592.459286,185.133168 591.732985,185.190182 590.734322,185.731812 C589.548735,186.384521 588.623678,187.38612 588.101483,188.582497 C587.453621,190.063505 587.144277,191.656476 587.193608,193.257621 L587.193608,196.564416 C587.053407,197.843919 587.350252,199.132186 588.040958,200.2418 C588.615946,200.897458 589.433034,200.925965 590.552747,200.2418 C591.537171,199.739207 592.354291,198.989227 592.913223,198.075279 C593.477552,196.950435 593.786754,195.727126 593.821099,194.483416 L596,193.428662 Z" id="Path" fill="#181E26"></path>
                <path d="M608.956839,183.504914 C609.002221,185.736758 608.511281,187.947922 607.523406,189.961002 C606.657891,191.742205 605.260766,193.226023 603.515643,194.21745 C601.848179,195.160154 600.590268,195.245854 599.566387,194.503118 C598.387545,193.265274 597.830545,191.581214 598.045192,189.903869 L598.045192,186.532991 C598.014956,184.311787 598.505264,182.113244 599.478626,180.105468 C600.336146,178.31167 601.734501,176.816579 603.486389,175.820454 C605.21236,174.849184 606.411763,174.734917 607.494152,175.506219 C608.632073,176.821487 609.161565,178.53812 608.956839,180.248302 L608.956839,183.504914 Z M606.909077,181.533807 C607.057311,180.220036 606.759228,178.895106 606.060719,177.762994 C605.504897,177.163092 604.656539,177.191658 603.486389,177.762994 C602.347164,178.425106 601.455193,179.426284 600.941313,180.61967 C600.34318,182.091812 600.045068,183.663811 600.063701,185.247486 L600.063701,188.446964 C599.912334,189.746459 600.222117,191.057329 600.941313,192.160643 C601.526388,192.789112 602.374747,192.789112 603.515643,192.160643 C604.657565,191.50169 605.550416,190.499525 606.060719,189.303967 C606.642832,187.848122 606.930915,186.296024 606.909077,184.733284 L606.909077,181.533807 Z" id="Shape" fill="#181E26" fill-rule="nonzero"></path>
                <polygon id="Path" fill="#181E26" points="614.95122 185.928144 621 182.344311 621 184.278443 613 189 613 171.137725 614.95122 170"></polygon>
                <path d="M508.106158,111.978416 L526.585579,101.376238 C525.472054,100.974888 524.390541,100.490722 523.350223,99.9278534 C522.442859,99.4120492 521.601251,98.7895965 520.843551,98.0739207 L502.334982,108.676098 C497.217799,107.165387 491.713414,107.652341 486.94518,110.03758 C481.815247,112.93435 481.844394,117.800923 486.94518,120.784596 C492.838917,123.738468 499.793191,123.738468 505.686928,120.784596 C509.884146,118.438212 510.671125,114.846218 508.106158,111.978416 Z M490.996662,118.496148 C488.081927,116.787054 488.081927,114.035122 490.996662,112.354996 C494.358882,110.661944 498.331521,110.661944 501.693741,112.354996 C504.608476,114.06409 504.608476,116.816021 501.693741,118.496148 C498.326021,120.166162 494.364382,120.166162 490.996662,118.496148 Z M451.997505,79.7953033 L470.476927,69.1641582 C469.358198,68.7756585 468.275653,68.2910312 467.241571,67.7157733 C466.340023,67.2024498 465.499216,66.5903061 464.734898,65.8908083 L446.255477,76.4929858 C441.130254,74.9656002 435.610519,75.4529887 430.836528,77.8544676 C425.706594,80.7512374 425.735741,85.6178106 430.836528,88.5725158 C436.726913,91.5403578 443.68789,91.5403578 449.578275,88.5725158 C453.775494,86.2261323 454.562472,82.6341377 451.997505,79.7953033 Z M434.917157,86.2840677 C433.59531,85.8358447 432.706805,84.6015518 432.706805,83.2134917 C432.706805,81.8254316 433.59531,80.5911387 434.917157,80.1429157 C438.279377,78.4498643 442.252016,78.4498643 445.614235,80.1429157 C448.528971,81.8520099 448.528971,84.6039412 445.614235,86.2840677 C442.252016,87.977119 438.279377,87.977119 434.917157,86.2840677 Z M483.768119,67.8316441 C489.072937,66.8757101 492.920388,64.007908 492.89124,60.6186873 C492.89124,56.4473388 486.916033,53.0291505 479.629195,53.0001828 C472.342357,52.9712151 466.396297,56.3894034 466.425445,60.5897196 C466.668136,62.9421561 468.157816,64.9861277 470.33119,65.9487437 C471.978014,66.873455 473.772345,67.5103377 475.636008,67.8316441 L475.636008,82.8658793 C476.979182,82.6896936 478.33267,82.6025978 479.68749,82.60517 C481.043487,82.5975145 482.398041,82.6943637 483.738972,82.894847 L483.768119,67.8316441 Z M472.109178,60.5897196 C472.109178,58.1854007 475.461124,56.2445649 479.629195,56.2735326 C481.496987,56.2371649 483.343129,56.6759127 484.992308,57.5481113 C486.227212,58.113613 487.077326,59.2766864 487.236654,60.6186873 C487.236654,63.0230062 483.855561,64.963842 479.68749,64.9348743 C475.519419,64.9059066 472.109178,62.9940385 472.109178,60.5897196 Z M548.999893,92.8307674 C548.999893,88.6304512 543.024686,85.2122629 535.737848,85.2122629 C529.908377,85.2122629 524.865885,87.4138079 523.146192,90.4554162 L492.424883,90.4554162 C491.652813,89.107272 490.523754,87.9951911 489.160379,87.2400017 C486.289914,85.6974112 483.066737,84.9190365 479.804079,84.9805213 C472.488094,84.9805213 466.571181,88.3697419 466.600329,92.5700581 C466.825175,94.9292227 468.320704,96.98122 470.506074,97.9290822 C476.385156,100.901202 483.339592,100.901202 489.218674,97.9290822 C490.533181,97.2608886 491.648651,96.2621549 492.45403,95.0323124 L523.175339,95.0323124 C523.962431,96.3317224 525.09106,97.3933048 526.439842,98.1028884 C529.319057,99.6196557 532.537895,100.387017 535.796142,100.333401 C543.112128,100.420304 549.02904,97.0021159 548.999893,92.8307674 Z M479.862374,97.0310836 C477.993453,97.0779823 476.144653,96.6386029 474.499261,95.7565049 C473.256255,95.2066799 472.409086,94.0323858 472.284062,92.6859289 C472.284062,90.28161 475.636008,88.3407742 479.804079,88.3697419 C481.673286,88.3201336 483.522779,88.7596777 485.167192,89.6443206 C486.409677,90.2006018 487.263377,91.3685821 487.411538,92.7148966 C487.286514,94.0613535 486.439346,95.2356476 485.196339,95.7854726 C483.553601,96.6440233 481.717937,97.0726956 479.862374,97.0310836 Z M535.796142,97.0310836 C531.628071,97.0310836 528.217831,95.0612801 528.217831,92.6859289 C528.217831,90.3105777 531.569776,88.3407742 535.737848,88.3407742 C537.605639,88.3044065 539.451782,88.7431543 541.10096,89.6153529 C542.332167,90.1853236 543.180559,91.3460412 543.345306,92.6859289 C543.345306,95.2061186 539.964214,97.1469544 535.796142,97.1469544 L535.796142,97.0310836 Z" id="Shape" fill="#181E26" fill-rule="nonzero"></path>
                <polygon id="Path" fill="#000000" points="808 523.723949 645.990169 617 485 524.305109 647.009831 431"></polygon>
                <polygon id="Path" fill="url(#linearGradient-1)" points="646 548 484 454.397237 484 320 646 413.602763"></polygon>
                <polygon id="Path" fill="url(#linearGradient-2)" points="808 319.723949 645.990169 413 485 320.305109 647.009831 227"></polygon>
                <polygon id="Path" fill="url(#linearGradient-3)" points="808 454.397237 646 548 646 413.602763 808 320"></polygon>
                <polygon id="Path" fill="#181E26" points="524.13 410.092154 518.13 406.855542 518.13 413.271482 525 417.052304 525 419 516 414.073474 516 396 524.82 400.840598 524.82 402.788294 518.07 399.0934 518.07 404.821918 524.07 408.058531"></polygon>
                <polygon id="Path" fill="#181E26" points="532.602122 412.337678 535.519894 406.946682 537.912467 408.338863 533.710875 415.151659 538 427 535.607427 425.60782 532.602122 416.57346 529.392573 422.14218 527 420.75 531.318302 413.848341 527.087533 402 529.450928 403.39218"></polygon>
                <path d="M549.978397,428.098594 C550.120601,429.462541 549.554792,430.807508 548.457173,431.714647 C547.544439,432.227159 546.236187,432.056321 544.56284,431.14519 C542.786883,430.154519 541.383562,428.672078 540.54681,426.902734 C539.528661,424.91354 539.018309,422.730158 539.05601,420.524813 L539.05601,417.250434 C538.813051,415.55222 539.367871,413.838758 540.577234,412.552412 C541.581242,411.755172 542.980768,411.812117 544.745387,412.780195 C546.340319,413.627427 547.65588,414.868449 548.548447,416.367775 C549.467577,417.981363 549.958049,419.77834 549.978397,421.606781 L547.848684,420.439394 C547.821935,419.199406 547.521545,417.977983 546.966374,416.851814 C546.466905,415.950839 545.694269,415.207955 544.745387,414.716349 C543.60954,414.089946 542.72723,414.089946 542.098458,414.716349 C541.35048,415.816036 541.028299,417.122597 541.185724,418.417821 L541.185724,421.720673 C541.136577,423.314618 541.426139,424.90183 542.037609,426.390222 C542.517206,427.575926 543.405888,428.577945 544.56284,429.237508 C545.658122,429.806965 546.449158,429.94933 546.935949,429.636128 C547.422741,429.322927 547.726986,428.440268 547.848684,426.988152 L549.978397,428.098594 Z" id="Path" fill="#181E26"></path>
                <polygon id="Path" fill="#181E26" points="564 441 561.872928 439.829964 561.872928 431.497027 555.096685 427.844233 555.096685 436.17717 553 435.007134 553 417 555.096685 418.141498 555.096685 425.903686 561.872928 429.55648 561.872928 421.737218 564 422.878716"></polygon>
                <path d="M574.661871,443.362809 L569.280576,440.273082 L568.043165,444.278283 L566,443.105332 L571.122302,428 L572.848921,428.972692 L578,450 L575.928058,448.79844 L574.661871,443.362809 Z M569.827338,438.613784 L574.172662,441.131339 L571.985612,431.661899 L569.827338,438.613784 Z" id="Shape" fill="#181E26" fill-rule="nonzero"></path>
                <polygon id="Path" fill="#181E26" points="591 457 588.872928 455.857143 582.127072 438.285714 582.127072 452.2 580 451.028571 580 433 582.127072 434.142857 588.903315 451.771429 588.903315 437.828571 591 438.971429"></polygon>
                <path d="M604.969632,463.235411 L604.57485,463.526419 C603.511976,464.312142 601.963215,464.108436 599.92857,463.002604 C598.093777,461.971407 596.607357,460.456084 595.646704,458.637478 C594.577299,456.640038 594.035104,454.421859 594.067576,452.177091 L594.067576,448.481284 C593.806069,446.700366 594.310198,444.89401 595.464496,443.47594 C596.4059,442.719318 597.833188,442.864822 599.715995,443.912452 C601.263153,444.750221 602.551751,445.964979 603.45124,447.433654 C604.381007,448.956318 604.902674,450.675983 604.969632,452.438999 L602.843883,451.274965 C602.786635,450.170012 602.486532,449.0891 601.963215,448.102973 C601.462976,447.166178 600.679892,446.395484 599.715995,445.891309 C598.501281,445.23169 597.620614,445.173489 597.073992,445.716704 C596.341901,446.791748 596.029968,448.080189 596.193325,449.354309 L596.193325,453.108318 C596.139185,454.758308 596.47123,456.398981 597.165096,457.909957 C597.748094,459.131736 598.714066,460.148955 599.92857,460.820041 C601.082548,461.431158 601.932848,461.605763 602.540205,461.343856 L602.843883,461.198352 L602.843883,457.211536 L599.807098,455.523688 L599.807098,453.544831 L605,456.454915 L604.969632,463.235411 Z" id="Path" fill="#181E26"></path>
                <polygon id="Path" fill="#181E26" points="615.16 463.120797 609.16 459.884184 609.16 466.271482 616 470.052304 616 472 607 467.073474 607 449 615.82 453.86924 615.82 455.816936 609.1 452.0934 609.1 457.821918 615.1 461.029888"></polygon>
                <polygon id="Path" fill="#181E26" points="712 434.930851 707.972222 437.388298 707.972222 453.829787 706.027778 455 706.027778 438.617021 702 441.074468 702 439.085106 712 433"></polygon>
                <path d="M719.985337,439.680134 L717.052786,441.326608 L717.052786,448.794546 L715,450 L715,431.535966 L719.545455,428.919248 C721.129032,427.978405 722.331378,427.772596 723.152493,428.243017 C723.973607,428.713438 724.384164,429.830689 724.384164,431.653571 C724.386001,432.811545 724.167017,433.959195 723.739003,435.034724 C723.267304,436.112165 722.623464,437.10525 721.832845,437.974857 L725,444.002129 L722.800587,445.266386 L719.985337,439.680134 Z M717.052786,439.356719 L719.516129,437.916054 C720.381033,437.41246 721.091178,436.680137 721.568915,435.799159 C722.062181,434.897614 722.324191,433.887278 722.331378,432.859026 C722.331378,430.506919 721.392962,429.918893 719.398827,430.947939 L716.935484,432.359203 L717.052786,439.356719 Z" id="Shape" fill="#181E26" fill-rule="nonzero"></path>
                <path d="M734.661871,434.279739 L729.280576,437.385621 L728.043165,442.820915 L726,444 L731.122302,423.006536 L732.848921,422 L738,437.069281 L735.928058,438.277124 L734.661871,434.279739 Z M729.827338,435.113725 L734.172662,432.611765 L731.985612,425.681046 L729.827338,435.113725 Z" id="Shape" fill="#181E26" fill-rule="nonzero"></path>
                <path d="M740,435 L740,417.108771 L743.905535,414.94359 C745.828715,413.889489 747.308085,413.718554 748.373231,414.430785 C749.615354,415.649239 750.195358,417.356279 749.941362,419.046038 L749.941362,422.065895 C749.978545,424.279962 749.42864,426.466576 748.343643,428.418991 C747.253875,430.318638 745.634794,431.887492 743.668836,432.948776 L740,435 Z M742.071117,417.906469 L742.071117,431.923164 L743.698423,431.011509 C745.06147,430.293507 746.173315,429.203104 746.893861,427.877695 C747.591427,426.44373 747.935694,424.874034 747.899832,423.290931 L747.899832,420.128628 C747.899832,418.229347 747.574371,417.0328 746.923449,416.538987 C746.272526,416.045174 745.28628,416.15913 743.96471,416.880857 L742.071117,417.906469 Z" id="Shape" fill="#181E26" fill-rule="nonzero"></path>
                <polygon id="Path" fill="#181E26" points="761.16 415.331242 755.16 418.592221 755.16 424.883312 762 421.102886 762 423.036386 753 428 753 409.905897 761.79 405 761.79 406.962359 755.07 410.685069 755.07 416.456713 761.07 413.195734"></polygon>
                <polygon id="Path" fill="#181E26" points="672 348 671.853937 320.932551 661.483489 326.944282 628.823878 308 603 322.956012 635.688823 341.900293 625.318374 347.912023"></polygon>
                <polygon id="Path" fill="#181E26" points="619 283 619.1169 310.067449 629.520966 304.055718 662.194409 323 688 308.043988 655.326557 289.099707 665.701398 283.087977"></polygon>
            </g>
        </g>
    </g>
</svg>