<?xml version="1.0" encoding="UTF-8"?>
<svg width="150px" height="150px" viewBox="0 0 150 150" version="1.1" xmlns="http://www.w3.org/2000/svg" xmlns:xlink="http://www.w3.org/1999/xlink">
    <!-- Generator: Sketch 53 (72520) - https://sketchapp.com -->
    <title>Rectangle 2</title>
    <desc>Created with Sketch.</desc>
    <defs>
        <linearGradient x1="0.0188946623%" y1="50.0184043%" x2="100%" y2="50.0184043%" id="linearGradient-1">
            <stop stop-color="#83858A" offset="0%"></stop>
            <stop stop-color="#000000" offset="100%"></stop>
        </linearGradient>
        <linearGradient x1="0%" y1="50.0008409%" x2="100%" y2="50.0008409%" id="linearGradient-2">
            <stop stop-color="#83858A" offset="0%"></stop>
            <stop stop-color="#000000" offset="100%"></stop>
        </linearGradient>
        <linearGradient x1="0.0286752055%" y1="49.9997847%" x2="100.028675%" y2="49.9997847%" id="linearGradient-3">
            <stop stop-color="#83858A" offset="0%"></stop>
            <stop stop-color="#000000" offset="100%"></stop>
        </linearGradient>
        <linearGradient x1="0%" y1="49.9903865%" x2="100%" y2="49.9903865%" id="linearGradient-4">
            <stop stop-color="#83858A" offset="0%"></stop>
            <stop stop-color="#000000" offset="100%"></stop>
        </linearGradient>
        <linearGradient x1="0%" y1="50%" x2="100%" y2="50%" id="linearGradient-5">
            <stop stop-color="#83858A" offset="0%"></stop>
            <stop stop-color="#000000" offset="100%"></stop>
        </linearGradient>
        <linearGradient x1="-0.0189314832%" y1="50.0141038%" x2="100.018984%" y2="50.0141038%" id="linearGradient-6">
            <stop stop-color="#83858A" offset="0%"></stop>
            <stop stop-color="#000000" offset="100%"></stop>
        </linearGradient>
        <linearGradient x1="0%" y1="49.9703776%" x2="99.9892218%" y2="49.9703776%" id="linearGradient-7">
            <stop stop-color="#83858A" offset="0%"></stop>
            <stop stop-color="#000000" offset="100%"></stop>
        </linearGradient>
    </defs>
    <g id="Page-1" stroke="none" stroke-width="1" fill="none" fill-rule="evenodd">
        <g id="market-join2-copy-2" transform="translate(-790.000000, -1238.000000)">
            <g id="Group-25" transform="translate(165.000000, 1106.000000)">
                <g id="Group-43" transform="translate(580.000000, 73.000000)">
                    <g id="Group-18">
                        <g id="Group-17">
                            <g id="Group-12">
                                <g id="Asset-9" transform="translate(69.000000, 70.000000)">
                                    <path d="M65.5833621,11.2686598 C69.4171552,9.05216495 74.7106034,9.40680412 80.5580172,12.8113402 C92.2572414,19.6204124 101.740603,36.111134 101.740603,49.6450515 C101.740603,56.3787629 99.3928448,61.1087629 95.585431,63.3252577 L91.4175,65.8963918 C87.5793103,68.1128866 82.2594828,67.8114433 76.3812931,64.3891753 C64.6864655,57.5801031 55.2031034,41.0893814 55.2031034,27.5554639 C55.2031034,20.7907216 57.5728448,16.0296907 61.4066379,13.8397938 L65.5833621,11.2686598 Z" id="Path" fill="url(#linearGradient-1)" fill-rule="nonzero"></path>
                                    <path d="M61.8067241,64.074433 C60.2239655,63.1523711 60.2151724,61.6584536 61.8067241,60.7408247 C63.6028148,59.8215238 65.7261507,59.8215238 67.5222414,60.7408247 L96.2273276,77.4487629 C97.8144828,78.3708247 97.8188793,79.8647423 96.2273276,80.7823711 C94.4312369,81.7016721 92.307901,81.7016721 90.5118103,80.7823711 L61.8067241,64.074433 Z" id="Path" fill="#000000" fill-rule="nonzero" opacity="0.1"></path>
                                    <path d="M76.2801724,15.5154639 C64.5985345,8.70639175 55.1107759,14.0703093 55.1107759,27.6662887 C55.1107759,41.6302062 65.0293966,58.032268 76.2142241,64.3936082 C87.3858621,71.1007216 97.3968103,66.3884536 97.4187931,52.3358763 C97.4451724,38.686701 87.9310345,22.2890722 76.2801724,15.5154639 Z M83.3630172,50.0395876 L83.3630172,55.2040206 L77.8893103,52.021134 C77.9816379,53.5505155 78.03,54.9469072 78.117931,56.4541237 L73.5147414,53.7943299 L73.5147414,49.5253608 L68.045431,46.3380412 C68.045431,44.6490722 67.8607759,42.8581443 68.1333621,41.4351546 C68.2696552,40.6726804 69.0874138,40.411134 69.5930172,39.9678351 C71.3252586,38.6024742 73.0575,37.3080412 74.8337069,35.9515464 C75.519569,35.4550515 76.2010345,35.0073196 76.9748276,34.4576289 L68.4543103,29.4749485 L68.4543103,24.3105155 L73.5103448,27.2540206 L73.5103448,22.9318557 L77.9288793,25.5029897 L77.9288793,29.7231959 L83.4465517,32.9326804 C83.4465517,34.6748454 83.6312069,36.4790722 83.3586207,37.8931959 C83.217931,38.6601031 82.4001724,38.9172165 81.855,39.3339175 C80.1227586,40.7037113 78.3905172,41.9937113 76.6143103,43.3546392 C75.9292329,43.8896267 75.215949,44.3868483 74.4775862,44.8441237 L83.3630172,50.0395876 Z" id="Shape" fill="#FFFFFF" fill-rule="nonzero"></path>
                                    <path d="M32.2662931,1.82639175 C36.0825,-0.363505155 41.349569,-0.0265979381 47.1662069,3.36020619 C58.8038793,10.1338144 68.2344828,26.5403093 68.2344828,40.003299 C68.2344828,46.7015464 65.8999138,51.4093814 62.1232759,53.6125773 L57.972931,56.1704124 C54.1567241,58.3869072 48.8676724,58.0765979 43.0246552,54.6720619 C31.3825862,47.8984536 21.9475862,31.4742268 21.9475862,18.0289691 C21.9475862,11.2952577 24.3085345,6.57412371 28.1027586,4.3842268 L32.2662931,1.82639175 Z" id="Path" fill="url(#linearGradient-2)" fill-rule="nonzero"></path>
                                    <path d="M28.5116379,54.3573196 C26.9332759,53.4396907 26.9288793,51.9546392 28.5116379,51.0414433 C30.3068715,50.1185377 32.4319216,50.1185377 34.2271552,51.0414433 L62.8047414,67.6651546 C64.3831034,68.5872165 64.3918966,70.0678351 62.8047414,70.9810309 C61.0154697,71.8964208 58.9004786,71.8964208 57.1112069,70.9810309 L28.5116379,54.3573196 Z" id="Path" fill="#000000" fill-rule="nonzero" opacity="0.1"></path>
                                    <path d="M41.1209483,29.7808247 L39.8503448,34.9452577 C41.4199138,36.3106186 46.2693103,40.9342268 46.9859483,38.0217526 C47.7333621,34.9807216 42.6949138,31.1506186 41.1209483,29.7808247 Z" id="Path" fill="#FFFFFF" fill-rule="nonzero"></path>
                                    <path d="M42.8575862,22.7323711 L41.7056897,27.4180412 C43.0246552,28.5573196 47.0475,32.4450515 47.7025862,29.7941237 C48.3840517,27.0412371 44.1677586,23.8716495 42.8575862,22.7323711 Z" id="Path" fill="#FFFFFF" fill-rule="nonzero"></path>
                                    <path d="M48.0762931,9.82350515 C36.7551724,-0.0310309278 25.2889655,1.26783505 22.4707759,12.7271134 C19.6525862,24.1863918 26.5331897,41.4573196 37.8587069,51.2941237 C49.1842241,61.1309278 60.6460345,59.8542268 63.4686207,48.3993814 C66.2912069,36.9445361 59.3974138,19.6824742 48.0762931,9.82350515 Z M52.2837931,32.5115464 C51.9760345,34.7280412 50.8373276,35.2023711 49.3205172,34.7280412 C51.4000862,37.1927835 52.4596552,39.7328866 51.4528448,42.4769072 C50.1998276,45.8858763 47.2277586,44.5027835 43.2752586,41.3376289 L42.3168103,45.2164948 L40.0086207,43.2039175 L40.9582759,39.3649485 C40.3559483,38.8418557 39.740431,38.3010309 39.1073276,37.7336082 L38.1576724,41.5903093 L35.8406897,39.573299 L36.8035345,35.676701 L35.150431,34.2182474 L32.13,31.5939175 L33.2818966,29.1912371 C33.2818966,29.1912371 34.9921552,30.7117526 34.9701724,30.6629897 C35.6252586,31.2304124 35.915431,30.9068041 36.0297414,30.6629897 L37.5465517,24.514433 C37.6344828,24.5853608 37.7136207,24.6607216 37.7927586,24.7272165 C37.700431,24.6296907 37.6168966,24.5543299 37.5509483,24.496701 L38.6325,20.1080412 C38.6460696,19.2442979 38.2427704,18.4277085 37.5509483,17.9181443 C37.5905172,17.9181443 35.867069,16.4508247 35.867069,16.4508247 L36.4913793,13.9240206 L39.6876724,16.7079381 L39.6876724,16.7079381 C40.1712931,17.1246392 40.6651724,17.5457732 41.1693103,17.9713402 L42.1189655,14.1190722 L44.4051724,16.1493814 L43.4818966,19.9484536 C44.1062069,20.4759794 44.7305172,21.0079381 45.3416379,21.5398969 L46.2649138,17.7851546 L48.5862931,19.8021649 L47.6366379,23.658866 C50.5603448,26.5048454 52.7014655,29.5015464 52.2837931,32.5115464 L52.2837931,32.5115464 Z" id="Shape" fill="#FFFFFF" fill-rule="nonzero"></path>
                                    <path d="M49.2413793,34.4842268 C53.0312069,32.3076289 58.2675,32.6445361 64.0489655,36.0091753 C75.6118966,42.7428866 84.9853448,59.0607216 84.9853448,72.4217526 C84.9853448,79.0712371 82.6639655,83.7569072 78.9093103,85.9468041 L74.7897414,88.4869072 C70.9955172,90.7034021 65.7372414,90.3797938 59.925,86.9974227 C48.362069,80.2681443 38.9886207,63.9458763 38.9886207,50.5848454 C38.9886207,43.8954639 41.3319828,39.2053608 45.1437931,37.0243299 L49.2413793,34.4842268 Z" id="Path" fill="url(#linearGradient-3)" fill-rule="nonzero"></path>
                                    <path d="M45.5218966,86.6871134 C43.9567241,85.7739175 43.947931,84.297732 45.5218966,83.3934021 C47.2997463,82.4821151 49.4024088,82.4821151 51.1802586,83.3934021 L79.56,99.9107216 C81.1251724,100.823918 81.1339655,102.300103 79.56,103.204433 C77.7821502,104.11572 75.6794877,104.11572 73.9016379,103.204433 L45.5218966,86.6871134 Z" id="Path" fill="#000000" fill-rule="nonzero" opacity="0.1"></path>
                                    <path d="M58.0564655,62.2657732 L56.7902586,67.3814433 C58.3510345,68.7423711 63.1696552,73.3349485 63.8818966,70.4402062 C64.6293103,67.4346392 59.6172414,63.626701 58.0564655,62.2657732 Z" id="Path" fill="#FFFFFF" fill-rule="nonzero"></path>
                                    <path d="M59.7931034,55.2616495 L58.6456034,59.9162887 C59.964569,61.046701 63.9566379,64.912268 64.6073276,62.2790722 C65.2712069,59.5306186 61.0812931,56.3920619 59.7931034,55.2616495 Z" id="Path" fill="#FFFFFF" fill-rule="nonzero"></path>
                                    <path d="M64.9634483,42.4325773 C53.717069,32.6401031 42.3212069,33.9301031 39.5206034,45.3140206 C36.72,56.6979381 43.5610345,73.8669072 54.8074138,83.6593814 C66.0537931,93.4518557 77.4496552,92.1662887 80.2546552,80.7823711 C83.0596552,69.3984536 76.2142241,52.2294845 64.9634483,42.4325773 Z" id="Path" fill="#FFFFFF" fill-rule="nonzero"></path>
                                    <polygon id="Path" fill="url(#linearGradient-4)" fill-rule="nonzero" points="49.9316379 57.9214433 49.9316379 57.9214433 52.6443103 61.3570103 58.7906897 69.1324742 58.7906897 69.1324742 67.6453448 68.2325773 58.7906897 46.0764948 58.7906897 46.0764948 58.7906897 46.0764948 58.7906897 46.0764948 58.7906897 46.0764948 49.9316379 57.9214433"></polygon>
                                    <polygon id="Path" fill="url(#linearGradient-5)" fill-rule="nonzero" points="67.6497414 70.1786598 58.7906897 71.0696907 58.7906897 71.0696907 49.9316379 59.8630928 58.7906897 79.4569072 58.7906897 79.4569072"></polygon>
                                    <path d="M10.9913793,28.0608247 C14.8075862,25.8664948 20.0834483,26.2034021 25.9044828,29.5946392 C37.5553448,36.3771134 47.007931,52.7969072 47.007931,66.2776289 C47.007931,72.9803093 44.6689655,77.6925773 40.887931,79.9002062 L36.7419828,82.4536082 C32.9213793,84.6701031 27.6235345,84.3642268 21.7937069,80.9552577 C10.1472414,74.1727835 0.690258621,57.7529897 0.690258621,44.272268 C0.681465517,37.5385567 3.04241379,32.8041237 6.85862069,30.6186598 L10.9913793,28.0608247 Z" id="Path" fill="url(#linearGradient-6)" fill-rule="nonzero"></path>
                                    <path d="M7.24991379,80.6449485 C5.67155172,79.7273196 5.66275862,78.2378351 7.24991379,77.3246392 C9.04497466,76.401009 11.1703702,76.401009 12.965431,77.3246392 L41.5430172,93.9660825 C43.1213793,94.8837113 43.1301724,96.3687629 41.5430172,97.2819588 C39.7474396,98.2034189 37.6230777,98.2034189 35.8275,97.2819588 L7.24991379,80.6449485 Z" id="Path" fill="#000000" fill-rule="nonzero" opacity="0.1"></path>
                                    <path d="M35.3922414,72.2931959 L35.3922414,51.8659794 L21.762931,59.7212371 L8.0237069,35.8540206 L8.0237069,56.343299 L7.73353448,56.1925773 C5.80344828,55.0710309 3.87336207,53.9406186 1.94327586,52.8279381 C1.75793948,52.7290091 1.63172889,52.5455613 1.60474138,52.3358763 C1.12094085,50.3080286 0.810578677,48.2420682 0.677068966,46.1607216 C0.40887931,41.5947423 1.07275862,37.7735052 2.78741379,34.825567 C3.72685471,33.1208069 5.09061655,31.6922676 6.74431034,30.6807216 C9.02172414,29.3390034 11.8062069,28.9784536 15.0977586,29.5990722 C17.876265,30.1881402 20.5138062,31.3190632 22.862069,32.9282474 C28.0456034,36.3106186 32.5344828,41.1736082 36.297931,47.5216495 C39.4337484,52.6713709 41.5258076,58.3968795 42.4531034,64.3670103 C42.7607243,66.4291949 42.8520903,68.5183117 42.7256897,70.5997938 C42.62796,72.332129 42.3193515,74.045776 41.8068103,75.7021649 C41.7364655,75.9149485 41.6441379,75.9371134 41.4155172,75.8041237 C39.5074138,74.6781443 37.6037069,73.5876289 35.7,72.4660825 L35.3922414,72.2931959 Z M30.7758621,61.6673196 L21.6530172,66.9381443 L12.5521552,51.0946392 L12.5521552,63.9503093 L3.69310345,58.7947423 C6.86741379,66.9381443 14.1568966,77.6704124 24.0315517,82.2230928 C27.2586207,83.7170103 30.2702586,84.2268041 33.0181034,83.7835052 C34.3015754,83.5943674 35.5381233,83.1627262 36.6628448,82.5112371 C37.8560383,81.8016426 38.90124,80.865209 39.740431,79.7539175 L30.8418103,74.5806186 L30.8418103,61.7249485 L30.7758621,61.6673196 Z" id="Shape" fill="#FFFFFF" fill-rule="nonzero"></path>
                                    <path d="M24.7218103,111.019794 C23.1082759,110.08 23.0994828,108.559485 24.7218103,107.624124 C26.5543795,106.688785 28.7190688,106.688785 30.5516379,107.624124 L59.7931034,124.660103 C61.4066379,125.599897 61.415431,127.120412 59.7931034,128.055773 C57.9610433,128.993259 55.795336,128.993259 53.9632759,128.055773 L24.7218103,111.019794 Z" id="Path" fill="#000000" fill-rule="nonzero" opacity="0.1"></path>
                                    <path d="M60.6724138,112.36299 C61.8902586,111.662577 62.642069,110.146495 62.642069,108.009794 L62.642069,81.8551546 C62.642069,77.5595876 59.6348276,72.3286598 55.9197414,70.1653608 L33.2599138,56.9905155 C31.404569,55.913299 29.7426724,55.8024742 28.5072414,56.5028866 L23.8205172,59.6059794 C22.6026724,60.3063918 21.8508621,61.8224742 21.8508621,63.9591753 L21.8508621,90.1138144 C21.8508621,94.4093814 24.8625,99.6403093 28.5731897,101.803608 L51.2286207,114.991753 C53.0839655,116.068969 54.7458621,116.179794 55.9812931,115.479381 L60.6724138,112.36299 Z" id="Path" fill="url(#linearGradient-7)" fill-rule="nonzero"></path>
                                    <path d="M44.7085345,96.4352577 L43.8687931,95.9476289 L43.8687931,99.1615464 L44.7085345,99.6491753 C45.4603448,100.092474 45.5043103,99.2058763 45.5043103,98.4965979 C45.5043103,97.7873196 45.4603448,96.8741237 44.7085345,96.4352577 Z" id="Path" fill="#FFFFFF" fill-rule="nonzero"></path>
                                    <polygon id="Path" fill="#FFFFFF" fill-rule="nonzero" points="29.4085345 93.0972165 30.942931 93.9882474 30.1735345 89.2848454"></polygon>
                                    <polygon id="Path" fill="#FFFFFF" fill-rule="nonzero" points="36.7419828 97.3661856 38.2763793 98.2616495 37.5113793 93.5538144"></polygon>
                                    <path d="M51.2286207,73.2640206 L28.5775862,60.0758763 C24.8668966,57.9125773 21.8552586,59.6325773 21.8552586,63.9370103 L21.8552586,90.0916495 C21.8552586,94.3872165 24.8668966,99.6181443 28.5775862,101.781443 L51.2330172,114.969588 C54.9437069,117.128454 57.9553448,115.412887 57.9553448,111.104021 L57.9553448,84.9493814 C57.9509483,80.6804124 54.9568966,75.4228866 51.2286207,73.2640206 Z M40.6768966,73.0556701 C40.9514071,72.8613584 41.2828954,72.7660856 41.6177586,72.7852577 C41.9920034,72.7890148 42.3598896,72.8832688 42.6905172,73.0601031 C42.6969587,73.1649167 42.6969587,73.2700318 42.6905172,73.3748454 L42.6905172,73.3748454 C42.7370239,74.0359212 42.4654579,74.6792254 41.9606897,75.1037113 C41.3595585,75.5898429 40.5042346,75.5898429 39.9031034,75.1037113 C39.9031034,75.0061856 39.9031034,74.9042268 39.9031034,74.802268 C39.8625106,74.128536 40.1495162,73.477008 40.6725,73.0556701 L40.6768966,73.0556701 Z M31.6551724,98.2527835 L31.3342241,96.2756701 L29.0480172,94.9457732 L28.727069,96.5505155 L26.6606897,95.3491753 L29.2150862,85.3483505 L31.1671552,86.4831959 L33.7215517,99.4585567 L31.6551724,98.2527835 Z M38.9930172,102.521753 L38.672069,100.544639 L36.3858621,99.2147423 L36.0517241,100.819485 L33.9853448,99.6181443 L36.5397414,89.6128866 L38.4918103,90.747732 L41.0374138,103.731959 L38.9930172,102.521753 Z M40.1932759,86.3723711 C39.8232179,86.1529148 39.4110672,86.0154001 38.9842241,85.9689691 C38.6199572,85.9405365 38.2646101,85.8411782 37.9378448,85.6763918 C37.4262538,85.3461813 37.0081989,84.8880077 36.7243966,84.3464948 C36.3597157,83.7362215 36.0322973,83.1040853 35.7439655,82.4536082 C35.3226447,81.5070083 34.9842852,80.5250499 34.7327586,79.5189691 C34.4613437,78.5276733 34.3136514,77.5061065 34.2931034,76.4779381 C34.2370008,75.6603475 34.4385813,74.8457914 34.8690517,74.1506186 C35.1468797,73.7412317 35.592317,73.4792398 36.0825,73.4369072 C36.6586377,73.402388 37.2313113,73.547904 37.7224138,73.8536082 C38.1859125,74.1567107 38.6123857,74.5138105 38.9930172,74.9175258 C39.3013678,75.2637518 39.641407,75.579893 40.0086207,75.8617526 C40.368949,75.9855751 40.7421567,76.0673797 41.1209483,76.105567 C41.6651754,76.1882081 42.185446,76.3877611 42.6465517,76.6907216 C43.7512941,77.430282 44.6249447,78.4710559 45.1657759,79.6918557 C44.1633621,79.8100687 43.6680172,80.5045704 43.6797414,81.7753608 C43.7106626,82.8363258 44.0300409,83.8683402 44.6030172,84.7587629 C44.8582759,85.2040038 45.1604574,85.6201603 45.5043103,86 C45.429569,86.2039175 45.3548276,86.3989691 45.2712931,86.5762887 C45.0891851,86.9692769 44.8473999,87.3312213 44.5546552,87.6490722 C44.296522,87.9564637 43.9833104,88.2121172 43.6313793,88.4026804 C43.2479372,88.5783136 42.8021737,88.5448967 42.4487069,88.3140206 C42.0421988,88.0536463 41.6737293,87.7373292 41.3539655,87.3742268 C41.0096287,86.9863361 40.6130013,86.6490948 40.1756897,86.3723711 L40.1932759,86.3723711 Z M44.712931,101.706082 L43.8863793,101.22732 L43.8863793,105.372165 L41.907931,104.219588 L41.907931,92.7292784 L44.712931,94.3650515 C46.8584483,95.6151546 47.5003448,97.3927835 47.5003448,99.6358763 C47.5003448,101.878969 46.8408621,102.956186 44.6953448,101.706082 L44.712931,101.706082 Z M53.2598276,110.824742 L48.6830172,108.164948 L48.6830172,96.6835052 L50.6658621,97.8405155 L50.6658621,107.278351 L53.2598276,108.79 L53.2598276,110.824742 Z" id="Shape" fill="#FFFFFF" fill-rule="nonzero"></path>
                                    <path d="M100.773362,42.556701 C106.633966,47.8762887 78.9181034,114.238144 27.2058621,82.4536082 C-3.57,63.5380412 0.386896552,48.9091753 0.386896552,48.9091753" id="Path" stroke="#000000" stroke-width="1.323" stroke-linecap="round" stroke-linejoin="round"></path>
                                    <path d="M23.5303448,80.5163918 C23.5303448,80.5163918 39.4414655,63.9059794 42.4355172,72.6123711 C45.429569,81.3187629 23.5303448,80.5163918 23.5303448,80.5163918 Z" id="Path" stroke="#000000" stroke-width="1.323" stroke-linecap="round" stroke-linejoin="round"></path>
                                    <path d="M23.3500862,80.5740206 C23.3500862,80.5740206 8.30068966,63.1656701 17.1465517,60.9092784 C25.9924138,58.6528866 23.3500862,80.5740206 23.3500862,80.5740206 Z" id="Path" stroke="#000000" stroke-width="1.323" stroke-linecap="round" stroke-linejoin="round"></path>
                                    <path d="M23.3500862,80.5740206 C23.3500862,80.5740206 25.1087069,95.8634021 28.0851724,97.8227835" id="Path" stroke="#000000" stroke-width="1.323" stroke-linecap="round" stroke-linejoin="round"></path>
                                    <path d="M23.5303448,80.5163918 C19.5118966,81.9083505 19.5734483,86.2792784 11.6596552,86.2792784" id="Path" stroke="#000000" stroke-width="1.323" stroke-linecap="round" stroke-linejoin="round"></path>
                                </g>
                            </g>
                        </g>
                    </g>
                </g>
            </g>
        </g>
    </g>
</svg>