<svg xmlns="http://www.w3.org/2000/svg" xmlns:xlink="http://www.w3.org/1999/xlink" viewBox="0 0 163.28 264.78"><defs><style>.cls-1{fill:#ededed;}.cls-2{fill:#fff;}.cls-3{fill:#d8d8d8;}.cls-4{fill:#181e26;}.cls-5{fill:url(#linear-gradient);}.cls-6{fill:url(#linear-gradient-2);}.cls-7{fill:url(#linear-gradient-3);}.cls-8{fill:#056777;opacity:0.1;}.cls-9{fill:#00e2c1;}.cls-10{fill:#4e5668;}.cls-11{fill:#363d4f;}.cls-12{fill:#848c99;}.cls-13{fill:#00c1a0;}.cls-14{fill:url(#linear-gradient-4);}.cls-15{fill:url(#linear-gradient-5);}.cls-16{fill:url(#linear-gradient-6);}.cls-17{fill:url(#linear-gradient-7);}.cls-18{fill:url(#linear-gradient-8);}.cls-19{fill:url(#linear-gradient-9);}.cls-20{fill:url(#linear-gradient-10);}.cls-21{fill:url(#linear-gradient-11);}.cls-22{fill:url(#linear-gradient-12);}.cls-23{fill:url(#linear-gradient-13);}.cls-24{fill:url(#linear-gradient-14);}.cls-25{fill:url(#linear-gradient-15);}.cls-26{fill:url(#linear-gradient-16);}.cls-27{fill:url(#linear-gradient-17);}.cls-28{fill:url(#linear-gradient-18);}.cls-29{fill:url(#linear-gradient-19);}.cls-30{fill:url(#linear-gradient-20);}.cls-31{fill:url(#linear-gradient-21);}.cls-32{fill:url(#linear-gradient-22);}.cls-33{fill:url(#linear-gradient-23);}.cls-34{fill:url(#linear-gradient-24);}</style><linearGradient id="linear-gradient" x1="54.43" y1="59.43" x2="81.64" y2="59.43" gradientUnits="userSpaceOnUse"><stop offset="0" stop-color="#00ffe2"/><stop offset="0.99" stop-color="#00cdb3"/></linearGradient><linearGradient id="linear-gradient-2" x1="54.6" y1="45.24" x2="108.85" y2="45.24" gradientUnits="userSpaceOnUse"><stop offset="0" stop-color="#abfff3"/><stop offset="0.99" stop-color="#00ffe2"/></linearGradient><linearGradient id="linear-gradient-3" x1="81.64" y1="59.43" x2="108.85" y2="59.43" gradientUnits="userSpaceOnUse"><stop offset="0" stop-color="#00e2c1"/><stop offset="1" stop-color="#00aa8d"/></linearGradient><linearGradient id="linear-gradient-4" x1="27.21" y1="87.91" x2="54.43" y2="87.91" xlink:href="#linear-gradient"/><linearGradient id="linear-gradient-5" x1="27.38" y1="73.72" x2="81.64" y2="73.72" xlink:href="#linear-gradient-2"/><linearGradient id="linear-gradient-6" x1="54.43" y1="87.91" x2="81.64" y2="87.91" xlink:href="#linear-gradient-3"/><linearGradient id="linear-gradient-7" x1="81.64" y1="87.82" x2="108.85" y2="87.82" xlink:href="#linear-gradient"/><linearGradient id="linear-gradient-8" x1="81.81" y1="73.62" x2="136.07" y2="73.62" xlink:href="#linear-gradient-2"/><linearGradient id="linear-gradient-9" x1="108.85" y1="87.82" x2="136.07" y2="87.82" xlink:href="#linear-gradient-3"/><linearGradient id="linear-gradient-10" x1="108.85" y1="90.76" x2="136.07" y2="90.76" xlink:href="#linear-gradient"/><linearGradient id="linear-gradient-11" x1="109.02" y1="76.57" x2="163.28" y2="76.57" xlink:href="#linear-gradient-2"/><linearGradient id="linear-gradient-12" x1="136.07" y1="90.76" x2="163.28" y2="90.76" xlink:href="#linear-gradient-3"/><linearGradient id="linear-gradient-13" x1="54.43" y1="116.3" x2="81.64" y2="116.3" xlink:href="#linear-gradient"/><linearGradient id="linear-gradient-14" x1="54.6" y1="102.11" x2="108.85" y2="102.11" xlink:href="#linear-gradient-2"/><linearGradient id="linear-gradient-15" x1="81.64" y1="116.3" x2="108.85" y2="116.3" xlink:href="#linear-gradient-3"/><linearGradient id="linear-gradient-16" x1="81.47" y1="144.68" x2="108.68" y2="144.68" xlink:href="#linear-gradient"/><linearGradient id="linear-gradient-17" x1="81.64" y1="130.49" x2="135.9" y2="130.49" xlink:href="#linear-gradient-2"/><linearGradient id="linear-gradient-18" x1="108.68" y1="144.68" x2="135.9" y2="144.68" xlink:href="#linear-gradient-3"/><linearGradient id="linear-gradient-19" x1="0" y1="116.39" x2="27.21" y2="116.39" xlink:href="#linear-gradient"/><linearGradient id="linear-gradient-20" x1="0.17" y1="102.2" x2="54.43" y2="102.2" xlink:href="#linear-gradient-2"/><linearGradient id="linear-gradient-21" x1="27.21" y1="116.39" x2="54.43" y2="116.39" xlink:href="#linear-gradient-3"/><linearGradient id="linear-gradient-22" x1="27.21" y1="144.78" x2="54.43" y2="144.78" xlink:href="#linear-gradient"/><linearGradient id="linear-gradient-23" x1="27.38" y1="130.59" x2="81.64" y2="130.59" xlink:href="#linear-gradient-2"/><linearGradient id="linear-gradient-24" x1="54.43" y1="144.78" x2="81.64" y2="144.78" xlink:href="#linear-gradient-3"/></defs><title>Asset 18</title><g id="Layer_2" data-name="Layer 2"><g id="Layer_1-2" data-name="Layer 1"><polygon points="136.07 232.67 80.46 264.78 25.2 232.87 80.81 200.77 136.07 232.67"/><polygon class="cls-1" points="80.46 240.87 24.86 208.76 24.86 162.67 80.46 194.78 80.46 240.87"/><polygon class="cls-2" points="136.07 162.67 80.46 194.78 25.2 162.87 80.81 130.77 136.07 162.67"/><polygon class="cls-3" points="136.07 208.76 80.46 240.87 80.46 194.78 136.07 162.67 136.07 208.76"/><path class="cls-4" d="M41.08,191.88l1.45,6L44,193.55l.9.52v6.31l-.7-.4v-2.46l.07-2.42-1.45,4.08-.53-.31-1.44-5.73.06,2.48v2.46l-.7-.4v-6.32Z"/><path class="cls-4" d="M48.72,201l-1.87-1.08-.43,1.41-.72-.42,1.79-5.28.59.35,1.79,7.34-.71-.41ZM47,199.3l1.51.87-.76-3.31Z"/><path class="cls-4" d="M52.3,202.12l-1-.57v2.56l-.7-.41v-6.31l1.55.9a3.23,3.23,0,0,1,1.24,1.19,3.38,3.38,0,0,1,.41,1.66,1.48,1.48,0,0,1-.22.89.73.73,0,0,1-.64.29l1.07,3.3v0l-.75-.43Zm-1-1.25.85.49c.29.17.52.2.69.08s.26-.35.26-.71a1.89,1.89,0,0,0-1-1.77l-.84-.48Z"/><path class="cls-4" d="M56,203.9l-.55.43v2.16l-.69-.4v-6.31l.69.4v3l.46-.43,1.49-1.5.84.49-1.8,1.74,1.94,4.65-.84-.48Z"/><path class="cls-4" d="M61.65,207.16,59.7,206v2.23L62,209.58v.68l-3-1.72v-6.31l2.94,1.7v.68l-2.24-1.3v2l1.95,1.13Z"/><path class="cls-4" d="M66.18,207.05l-1.46-.84v5.63l-.69-.4v-5.63L62.57,205v-.68l3.61,2.08Z"/><path class="cls-4" d="M94,210.81v2.45l-.7.41v-6.28l1.76-1c.52-.29.92-.35,1.22-.17a1.25,1.25,0,0,1,.44,1.14,3.19,3.19,0,0,1-.42,1.63,3.23,3.23,0,0,1-1.19,1.19Zm0-.68,1.06-.61a1.84,1.84,0,0,0,.71-.73,2.12,2.12,0,0,0,.25-1,.89.89,0,0,0-.25-.75c-.17-.13-.41-.11-.7.06l-1.07.62Z"/><path class="cls-4" d="M99.32,207.67l-1,.56v2.54l-.69.41V204.9L99.2,204c.54-.32,1-.39,1.23-.24s.42.55.42,1.17a3.1,3.1,0,0,1-.23,1.15,3.43,3.43,0,0,1-.64,1l1.07,2v.05l-.75.43Zm-1-.11.85-.49a1.94,1.94,0,0,0,.7-.72,2.11,2.11,0,0,0,.26-1c0-.8-.32-1-1-.65l-.84.48Z"/><path class="cls-4" d="M105.38,204.12a5,5,0,0,1-.48,2.26,3.47,3.47,0,0,1-1.37,1.49c-.58.33-1,.36-1.36.1a2,2,0,0,1-.51-1.61v-1.18a5,5,0,0,1,.49-2.25,3.34,3.34,0,0,1,1.37-1.5c.58-.34,1-.38,1.36-.11a2.14,2.14,0,0,1,.5,1.66Zm-.7-.69a2.1,2.1,0,0,0-.28-1.32c-.19-.21-.49-.2-.88,0a2,2,0,0,0-.87,1,3.91,3.91,0,0,0-.3,1.62v1.12a2.1,2.1,0,0,0,.29,1.3c.2.22.49.22.89,0a2,2,0,0,0,.86-1,3.88,3.88,0,0,0,.29-1.6Z"/><path class="cls-4" d="M109.59,198.68l-1.46.84v5.6l-.69.4v-5.6l-1.45.84v-.67l3.6-2.08Z"/><path class="cls-4" d="M113.9,199.2a5,5,0,0,1-.48,2.26,3.47,3.47,0,0,1-1.37,1.49c-.57.33-1,.36-1.36.1a2,2,0,0,1-.51-1.61v-1.18a5,5,0,0,1,.49-2.25,3.34,3.34,0,0,1,1.37-1.5c.58-.34,1-.38,1.36-.11a2.14,2.14,0,0,1,.5,1.66Zm-.69-.69a2.09,2.09,0,0,0-.29-1.32c-.19-.21-.49-.2-.88,0a2.12,2.12,0,0,0-.87,1,3.91,3.91,0,0,0-.3,1.62V201a2,2,0,0,0,.3,1.3c.19.22.49.22.88,0a2,2,0,0,0,.86-1,4,4,0,0,0,.3-1.6Z"/><path class="cls-4" d="M118.45,197.17A4,4,0,0,1,118,199a3.42,3.42,0,0,1-1.28,1.28c-.56.32-1,.34-1.33.05a2.23,2.23,0,0,1-.49-1.67v-1.13a4.85,4.85,0,0,1,.51-2.23,3.4,3.4,0,0,1,1.37-1.5c.54-.31,1-.37,1.24-.18s.45.62.48,1.28l-.7.41a1.32,1.32,0,0,0-.29-.93c-.16-.13-.4-.1-.73.09a2.12,2.12,0,0,0-.87,1,4.05,4.05,0,0,0-.3,1.65v1.15a2.12,2.12,0,0,0,.28,1.29c.19.23.46.24.83,0a2,2,0,0,0,.78-.76,3.14,3.14,0,0,0,.3-1.26Z"/><path class="cls-4" d="M123,194a5,5,0,0,1-.48,2.26,3.42,3.42,0,0,1-1.37,1.49c-.57.33-1,.36-1.35.1a2,2,0,0,1-.52-1.61V195a5,5,0,0,1,.49-2.25,3.4,3.4,0,0,1,1.37-1.5c.58-.34,1-.37,1.36-.11a2.1,2.1,0,0,1,.5,1.66Zm-.69-.69a2.11,2.11,0,0,0-.29-1.32c-.19-.21-.48-.2-.88,0a2.12,2.12,0,0,0-.87,1,4.26,4.26,0,0,0-.3,1.62v1.12a2,2,0,0,0,.3,1.3c.19.22.49.22.88,0a2.1,2.1,0,0,0,.87-1,4.24,4.24,0,0,0,.29-1.6Z"/><path class="cls-4" d="M124.77,194.84l2.17-1.26v.68l-2.87,1.66v-6.28l.7-.4Z"/><path class="cls-4" d="M88.15,169.31l6.34-3.66a6.66,6.66,0,0,1-1.11-.5,4.89,4.89,0,0,1-.87-.64l-6.34,3.66a7.19,7.19,0,0,0-5.28.47c-1.77,1-1.76,2.68,0,3.71a7.12,7.12,0,0,0,6.42,0C88.76,171.54,89,170.3,88.15,169.31Zm-5.87,2.25c-1-.59-1-1.54,0-2.12a4.06,4.06,0,0,1,3.67,0,1.12,1.12,0,0,1,0,2.12A4.06,4.06,0,0,1,82.28,171.56ZM68.9,158.2l6.34-3.66a6.67,6.67,0,0,1-1.11-.51,4.86,4.86,0,0,1-.87-.63l-6.34,3.66a7.14,7.14,0,0,0-5.28.47c-1.76,1-1.76,2.68,0,3.71a7.12,7.12,0,0,0,6.42,0C69.51,160.42,69.78,159.18,68.9,158.2ZM63,160.44a1.12,1.12,0,0,1,0-2.12,4.06,4.06,0,0,1,3.67,0,1.12,1.12,0,0,1,0,2.12A4.06,4.06,0,0,1,63,160.44Zm16.76-6.36c1.83-.34,3.15-1.33,3.14-2.49,0-1.45-2.05-2.63-4.55-2.64s-4.54,1.17-4.53,2.62a2.26,2.26,0,0,0,1.34,1.85,5.59,5.59,0,0,0,1.82.65l0,5.19a10.47,10.47,0,0,1,1.39-.09,9,9,0,0,1,1.39.1Zm-4-2.51c0-.82,1.16-1.49,2.59-1.49a3.76,3.76,0,0,1,1.84.44,1.3,1.3,0,0,1,.76,1.06c0,.83-1.15,1.5-2.58,1.5S75.8,152.4,75.79,151.57Zm26.39,11.13c0-1.45-2.05-2.63-4.56-2.63-2,0-3.72.76-4.31,1.81l-10.54,0a2.93,2.93,0,0,0-1.12-1.05,6.6,6.6,0,0,0-3.21-.78c-2.51,0-4.54,1.17-4.53,2.62a2.25,2.25,0,0,0,1.34,1.85,7.08,7.08,0,0,0,6.42,0,2.9,2.9,0,0,0,1.11-1.05l10.54,0a2.93,2.93,0,0,0,1.12,1,6.59,6.59,0,0,0,3.21.77C100.16,165.32,102.19,164.14,102.18,162.7Zm-23.72,1.45a3.66,3.66,0,0,1-1.84-.44,1.32,1.32,0,0,1-.77-1.06c0-.83,1.16-1.5,2.59-1.49a3.79,3.79,0,0,1,1.84.44,1.29,1.29,0,0,1,.76,1.06,1.25,1.25,0,0,1-.75,1.06A3.64,3.64,0,0,1,78.46,164.15Zm19.19,0c-1.43,0-2.6-.68-2.61-1.5s1.16-1.5,2.59-1.5a3.76,3.76,0,0,1,1.84.44,1.32,1.32,0,0,1,.76,1.07C100.24,163.52,99.08,164.19,97.65,164.19Z"/><polygon class="cls-5" points="81.64 73.67 54.43 57.96 54.43 45.19 81.64 60.91 81.64 73.67"/><polygon class="cls-6" points="108.85 45.19 81.64 60.91 54.6 45.29 81.81 29.58 108.85 45.19"/><polygon class="cls-7" points="108.85 57.96 81.64 73.67 81.64 60.91 108.85 45.19 108.85 57.96"/><path class="cls-4" d="M62,56.6v1.11l-.32-.18V54.68l.8.46a1.45,1.45,0,0,1,.54.56,1.4,1.4,0,0,1,.2.74c0,.28-.06.45-.19.52s-.3,0-.53-.07Zm0-.31.48.28c.14.08.24.09.32,0a.43.43,0,0,0,.11-.35,1,1,0,0,0-.11-.47.88.88,0,0,0-.32-.34L62,55.17Z"/><path class="cls-4" d="M64.36,57.94l-.44-.26v1.15l-.31-.18V55.81l.7.4a1.43,1.43,0,0,1,.55.54,1.41,1.41,0,0,1,.19.74.69.69,0,0,1-.1.41.35.35,0,0,1-.29.13l.48,1.48v0l-.34-.2Zm-.44-.57.38.22a.3.3,0,0,0,.32,0c.08-.05.11-.16.11-.32a.86.86,0,0,0-.43-.8l-.38-.22Z"/><path class="cls-4" d="M67.09,59.49a1,1,0,0,1-.22.77c-.14.13-.35.11-.61,0a1.56,1.56,0,0,1-.61-.66,2.27,2.27,0,0,1-.24-1V58a1.05,1.05,0,0,1,.22-.77c.15-.13.36-.12.62,0a1.67,1.67,0,0,1,.62.67,2.31,2.31,0,0,1,.22,1Zm-.31-.68a1.93,1.93,0,0,0-.13-.74.93.93,0,0,0-.4-.45c-.17-.1-.3-.1-.39,0a.9.9,0,0,0-.13.58v.51a1.82,1.82,0,0,0,.13.74.91.91,0,0,0,.4.46c.17.1.3.11.39,0a1,1,0,0,0,.13-.57Z"/><path class="cls-4" d="M67.58,60.94V58.1l.59.34a1.76,1.76,0,0,1,.68.7,2.16,2.16,0,0,1,.24,1v.48c0,.37-.08.62-.25.73s-.4.07-.71-.11Zm.31-2.35v2.23l.25.14q.33.2.48.06c.11-.08.16-.26.16-.55V60a1.67,1.67,0,0,0-.15-.75,1.16,1.16,0,0,0-.46-.47Z"/><path class="cls-4" d="M71.06,60.11v2a.57.57,0,0,1-.2.52.59.59,0,0,1-.56-.1,1.46,1.46,0,0,1-.77-1.3v-2l.31.18v2a1,1,0,0,0,.11.49.82.82,0,0,0,.35.34c.16.1.27.12.34.06s.11-.17.11-.36v-2Z"/><path class="cls-4" d="M73.11,63.23c0,.3-.09.49-.22.57s-.33.06-.58-.09a1.47,1.47,0,0,1-.6-.67,2.21,2.21,0,0,1-.22-1v-.51a1,1,0,0,1,.23-.75c.15-.12.36-.11.62,0a1.53,1.53,0,0,1,.56.57,1.82,1.82,0,0,1,.21.83L72.79,62a1.42,1.42,0,0,0-.12-.57.87.87,0,0,0-.33-.33q-.25-.15-.39,0a.81.81,0,0,0-.14.58v.53a1.8,1.8,0,0,0,.13.73.87.87,0,0,0,.37.45c.16.09.28.11.35.06s.12-.19.13-.42Z"/><path class="cls-4" d="M74.94,62.66l-.65-.38v2.54L74,64.64V62.1l-.65-.38v-.31l1.62.94Z"/><ellipse class="cls-8" cx="82.11" cy="43.91" rx="8.96" ry="5.17" transform="translate(-0.24 0.45) rotate(-0.31)"/><path class="cls-9" d="M87.13,23.68s0,1.33-.75,1.48-.62-1.68-.62-1.68"/><path d="M81.18,42.94a16.63,16.63,0,0,0,1,1.41c.26.28,1.22,1.17.59,1.43A1.89,1.89,0,0,1,81,45.54a15.39,15.39,0,0,0-1.16-1.3l0,.39a.43.43,0,0,1-.25,0,1,1,0,0,1-.23-.12,5.61,5.61,0,0,0,0-.87c0-.18-.34-.88-.22-1.09"/><path d="M83.91,41.19a8.57,8.57,0,0,0,1,1.42c.37.33,1.46,1.28.82,1.53a1.86,1.86,0,0,1-1.63-.07c-.31-.25-1.21-1.34-1.4-1.46l0,.35a.26.26,0,0,1-.21.07.41.41,0,0,1-.21-.1,2.76,2.76,0,0,0-.06-.79c-.08-.23-.43-1-.35-1.16"/><path class="cls-9" d="M78.58,34.61s0,1.26,0,1.87-.19,1-.19,1.64.8,2.38.8,3.27a3,3,0,0,1-.14,1.17,1.34,1.34,0,0,0,1.21.79c.89,0,.84-.46.84-.46a13.31,13.31,0,0,1-.28-2.2c0-.89,0-2,0-2.57s.23-3.69.23-3.69"/><path class="cls-9" d="M81.46,34.36s0,.56,0,.94-.07,1-.07,1.47c0,1.27.74,2.21.74,3a2.15,2.15,0,0,1-.21,1.12s.42.81,1.08.81a1.1,1.1,0,0,0,1-.53s-.24-2.84-.24-3.82.14-2.73.17-3.33a7.36,7.36,0,0,0,0-1.19"/><path class="cls-10" d="M81,24.61l5.33-1.12v7.08s-2.53,4.07-7.09,4.07c-2.24,0-2.59-1.41-2.59-1.41V28.61Z"/><path class="cls-11" d="M76.69,33.23V28.61l2.75-2.53c0,.32,0,.57-.06.73-.24,1.45-.1,7.83-.1,7.83C77,34.64,76.69,33.23,76.69,33.23Z"/><path class="cls-12" d="M86.37,11.71c0,.77,1,2.17,1,3.71s-.84,1.55-.84,3.3v4.84S83,27.27,79.77,27.27s-3.22-.56-3.22-.56l1.26-12.2Z"/><path class="cls-12" d="M85.52,23.28a3.32,3.32,0,0,0,1.41.49.67.67,0,0,0,.7-.56s-.21-4.42-.21-6.24S86.3,9,85.38,8.06A6.58,6.58,0,0,0,81,8.9C78.58,10.24,79,10,79,10a4.11,4.11,0,0,0-2.59,2.52A22.5,22.5,0,0,0,75.15,20,78,78,0,0,0,76,27.76a2.79,2.79,0,0,0,1.33.5,1.07,1.07,0,0,0,.91-.5S78,23.07,78,21.24a22,22,0,0,1,1.12-5.11Z"/><path class="cls-9" d="M76.34,28s.42,2,1.31,2,.47-2,.47-2"/><path class="cls-2" d="M80.55,10s2.19,1.68,2.29,1.87.37-.33.37-.33,1.68,3.27,1.68,5.28c0,0,.38-3-.46-4.21s-.38-1.59-.38-1.59l.7,0a8.65,8.65,0,0,0-1-1.87l-1.87-.61Z"/><polygon points="84.47 9.09 85.31 9.7 85.31 6.61 84.19 7.5 84.47 9.09"/><path class="cls-13" d="M83.21,9.61l-.07.63a18.63,18.63,0,0,1-2.8-1l1-1.33Z"/><path class="cls-10" d="M78.28,27.22c.29,0,.63,0,1,.05l.07-.46c.23-1.45,0-10.29,0-10.29l-.19-.39A22,22,0,0,0,78,21.24c0,1.45.13,4.68.19,6Z"/><path class="cls-10" d="M86.9,15.87A10.89,10.89,0,0,1,82.46,18s-.28.93-.61,1.12c0,0,3.84-1.4,4.87-2"/><path class="cls-9" d="M80.83,4.14,80.34,8.2s2.17,1.41,3.15,1.41,1.61-1.55,2-2.6a5.22,5.22,0,0,0,.28-2.24Z"/><path d="M86.3,4.63a11.65,11.65,0,0,1-2.67,1l-2.52.63v4.21s-.42-.07-1.69-.35a4.47,4.47,0,0,1-1.61-.56s-.14-5-.14-6.24S78.09,0,81.39,0C86.15,0,86.3,4.63,86.3,4.63Z"/><path class="cls-10" d="M87.32,23.67a.75.75,0,0,1-.39.1,2,2,0,0,1-.54-.09,1.06,1.06,0,0,1,.12-.12V18.72a3.49,3.49,0,0,1,.14-1.08Z"/><polygon class="cls-14" points="54.43 102.15 27.21 86.44 27.21 73.67 54.43 89.39 54.43 102.15"/><polygon class="cls-15" points="81.64 73.67 54.43 89.39 27.38 73.77 54.6 58.06 81.64 73.67"/><polygon class="cls-16" points="81.64 86.44 54.43 102.15 54.43 89.39 81.64 73.67 81.64 86.44"/><path class="cls-4" d="M33.74,84.42a1.07,1.07,0,0,1-.22.78c-.15.12-.35.11-.62,0a1.6,1.6,0,0,1-.61-.65,2.3,2.3,0,0,1-.23-1V83a1,1,0,0,1,.22-.76c.15-.13.35-.12.62,0a1.56,1.56,0,0,1,.61.66,2.32,2.32,0,0,1,.23,1Zm-.32-.67a1.83,1.83,0,0,0-.13-.75.91.91,0,0,0-.39-.45q-.27-.15-.39,0a.89.89,0,0,0-.14.58v.51a2,2,0,0,0,.13.74.93.93,0,0,0,.4.45c.18.11.31.11.39,0a.85.85,0,0,0,.13-.57Z"/><path class="cls-4" d="M34.53,84.94v1.12l-.31-.18V83l.8.46a1.43,1.43,0,0,1,.54.55,1.46,1.46,0,0,1,.2.75c0,.27-.06.45-.19.52s-.3,0-.53-.08Zm0-.3.49.27c.14.09.24.1.32,0a.44.44,0,0,0,.11-.35.94.94,0,0,0-.12-.47A.79.79,0,0,0,35,83.8l-.49-.28Z"/><path class="cls-4" d="M37.36,86.37l-.88-.5v1l1,.6v.3L36.17,87V84.16l1.32.76v.31l-1-.59v.92l.88.51Z"/><path class="cls-4" d="M38.66,87.29,38.22,87v1.15L37.91,88V85.16l.7.4a1.5,1.5,0,0,1,.55.54,1.44,1.44,0,0,1,.19.75.66.66,0,0,1-.1.4.35.35,0,0,1-.29.13l.48,1.49v0l-.34-.19Zm-.44-.56.38.22a.32.32,0,0,0,.32,0,.4.4,0,0,0,.11-.32.84.84,0,0,0-.43-.8l-.38-.22Z"/><path class="cls-4" d="M40.93,89l-.84-.49-.19.63L39.57,89l.81-2.38.27.15.8,3.31-.32-.19Zm-.76-.75.68.39-.34-1.49Z"/><path class="cls-4" d="M43,88.42,42.37,88v2.54l-.31-.18V87.86l-.66-.37v-.31l1.63.94Z"/><path class="cls-4" d="M43.72,91.36l-.31-.18V88.34l.31.18Z"/><path class="cls-4" d="M45.89,91.44a1,1,0,0,1-.21.77c-.15.13-.35.12-.62,0a1.56,1.56,0,0,1-.61-.66,2.1,2.1,0,0,1-.23-1V90a1,1,0,0,1,.22-.76c.15-.14.35-.12.61,0a1.53,1.53,0,0,1,.62.66,2.19,2.19,0,0,1,.22,1Zm-.31-.68a1.75,1.75,0,0,0-.13-.74.93.93,0,0,0-.4-.45q-.25-.15-.39,0a.88.88,0,0,0-.13.58v.51a1.85,1.85,0,0,0,.13.74.93.93,0,0,0,.4.45c.17.1.3.11.39,0a.91.91,0,0,0,.13-.57Z"/><path class="cls-4" d="M48,93.84l-.32-.19-1-2.76v2.19l-.31-.18V90.05l.31.18,1,2.78v-2.2L48,91Z"/><path class="cls-4" d="M49.64,94.06a.76.76,0,0,0-.1-.39,2.77,2.77,0,0,0-.37-.43,3,3,0,0,1-.4-.46,1.86,1.86,0,0,1-.21-.39,1.22,1.22,0,0,1-.07-.38.45.45,0,0,1,.2-.44.52.52,0,0,1,.52.08,1.49,1.49,0,0,1,.39.33,1.66,1.66,0,0,1,.26.47,1.41,1.41,0,0,1,.09.49l-.31-.19a1,1,0,0,0-.11-.47.85.85,0,0,0-.32-.33c-.13-.07-.23-.09-.3,0a.32.32,0,0,0-.1.28.75.75,0,0,0,.11.37,2.75,2.75,0,0,0,.35.42,2.61,2.61,0,0,1,.53.65,1.33,1.33,0,0,1,.16.62c0,.23-.07.38-.2.44a.61.61,0,0,1-.54-.1,1.69,1.69,0,0,1-.69-.82,1.32,1.32,0,0,1-.1-.51l.31.19a.91.91,0,0,0,.13.48,1,1,0,0,0,.35.35c.14.08.25.1.32.06S49.64,94.2,49.64,94.06Z"/><ellipse class="cls-8" cx="54.89" cy="72.39" rx="5.17" ry="8.96" transform="translate(-17.79 126.89) rotate(-89.69)"/><path class="cls-9" d="M49.86,52.16s0,1.33.76,1.48.62-1.68.62-1.68"/><path d="M55.82,71.43a16.85,16.85,0,0,1-1,1.4c-.26.28-1.22,1.17-.59,1.43A1.89,1.89,0,0,0,56,74a15.39,15.39,0,0,1,1.16-1.3l0,.39a.5.5,0,0,0,.25,0,1.47,1.47,0,0,0,.23-.13,5.61,5.61,0,0,1,0-.87c0-.18.34-.88.22-1.09"/><path d="M53.09,69.67a8.57,8.57,0,0,1-1,1.42c-.37.34-1.46,1.28-.83,1.53a1.86,1.86,0,0,0,1.63-.07c.32-.25,1.21-1.34,1.41-1.46l0,.35a.26.26,0,0,0,.21.07.34.34,0,0,0,.21-.1,2.76,2.76,0,0,1,.06-.79c.08-.23.43-1.05.35-1.16"/><path class="cls-9" d="M58.42,63.09s-.05,1.27-.05,1.87.19,1,.19,1.64-.8,2.38-.8,3.27A3,3,0,0,0,57.9,71a1.35,1.35,0,0,1-1.21.79c-.89,0-.84-.46-.84-.46a13.31,13.31,0,0,0,.28-2.2c0-.89,0-2,0-2.57s-.23-3.69-.23-3.69"/><path class="cls-9" d="M55.54,62.84s0,.56,0,.94.07,1,.07,1.48c0,1.26-.74,2.2-.74,3a2.15,2.15,0,0,0,.21,1.12s-.42.81-1.09.81a1.09,1.09,0,0,1-.94-.53s.24-2.84.24-3.82-.14-2.73-.17-3.33a7.36,7.36,0,0,1,0-1.19"/><path class="cls-10" d="M56,53.09,50.63,52v7.08s2.53,4.07,7.09,4.07c2.24,0,2.59-1.41,2.59-1.41V57.09Z"/><path class="cls-11" d="M60.31,61.71V57.09l-2.75-2.53c0,.32,0,.57.06.73.24,1.45.1,7.83.1,7.83C60,63.12,60.31,61.71,60.31,61.71Z"/><path class="cls-12" d="M50.63,40.19c0,.77-1,2.17-1,3.72s.84,1.54.84,3.29V52s3.51,3.71,6.73,3.71,3.23-.56,3.23-.56L59.19,43Z"/><path class="cls-12" d="M51.48,51.76a3.32,3.32,0,0,1-1.41.49.67.67,0,0,1-.7-.56s.21-4.42.21-6.24,1.12-7.92,2-8.91a6.58,6.58,0,0,1,4.41.84c2.39,1.34,2,1.06,2,1.06A4.11,4.11,0,0,1,60.59,41a22.5,22.5,0,0,1,1.26,7.5A78.31,78.31,0,0,1,61,56.25a2.82,2.82,0,0,1-1.33.49,1.08,1.08,0,0,1-.91-.49s.21-4.7.21-6.53a22,22,0,0,0-1.12-5.11Z"/><path class="cls-9" d="M60.66,56.5s-.42,2-1.31,2-.47-2-.47-2"/><path class="cls-2" d="M56.45,38.51s-2.19,1.68-2.29,1.87-.37-.33-.37-.33-1.68,3.27-1.68,5.28c0,0-.38-3,.46-4.21s.38-1.58.38-1.58l-.7,0a9,9,0,0,1,1-1.87l1.87-.61Z"/><polygon points="52.53 37.57 51.69 38.18 51.69 35.09 52.81 35.98 52.53 37.57"/><path class="cls-13" d="M53.79,38.09l.07.63a19.32,19.32,0,0,0,2.8-1l-1-1.34Z"/><path class="cls-10" d="M58.72,55.7c-.29,0-.63,0-1,0l-.07-.46c-.23-1.45.05-10.29.05-10.29l.19-.39A22,22,0,0,1,59,49.72c0,1.45-.13,4.68-.19,6Z"/><path class="cls-10" d="M50.1,44.35a10.89,10.89,0,0,0,4.44,2.15s.28.93.6,1.12c0,0-3.83-1.4-4.86-2"/><path class="cls-9" d="M56.17,32.62l.49,4.06s-2.17,1.41-3.15,1.41-1.61-1.55-2-2.6a5.13,5.13,0,0,1-.29-2.24Z"/><path d="M50.7,33.11a11.65,11.65,0,0,0,2.67,1l2.52.63v4.21s.42-.07,1.68-.35A4.49,4.49,0,0,0,59.19,38s.14-5.05.14-6.24-.42-3.3-3.72-3.3A4.74,4.74,0,0,0,50.7,33.11Z"/><path class="cls-10" d="M49.68,52.15a.75.75,0,0,0,.39.1,2,2,0,0,0,.54-.09L50.49,52V47.2a3.49,3.49,0,0,0-.14-1.08Z"/><polygon class="cls-17" points="108.85 102.06 81.64 86.34 81.64 73.58 108.85 89.29 108.85 102.06"/><polygon class="cls-18" points="136.07 73.58 108.85 89.29 81.81 73.67 109.02 57.96 136.07 73.58"/><polygon class="cls-19" points="136.07 86.34 108.85 102.06 108.85 89.29 136.07 73.58 136.07 86.34"/><path class="cls-4" d="M85,83.67V80.83l.6.34a1.86,1.86,0,0,1,.68.71,2.09,2.09,0,0,1,.24,1v.48a.85.85,0,0,1-.25.73c-.16.11-.4.08-.71-.1Zm.32-2.35v2.23l.25.14c.22.13.38.15.48.07a.78.78,0,0,0,.16-.55V82.7a1.54,1.54,0,0,0-.16-.75,1.19,1.19,0,0,0-.45-.47Z"/><path class="cls-4" d="M88.2,84.21l-.88-.51v1l1,.6v.3L87,84.83V82l1.32.76v.31l-1-.59v.92l.88.51Z"/><path class="cls-4" d="M89.46,85.7l.57-2,.34.2-.77,2.4-.28-.16-.77-3.29.34.2Z"/><path class="cls-4" d="M91.91,86.35,91,85.84v1l1,.6v.3L90.71,87V84.13l1.33.76v.31l-1-.59v.92l.89.51Z"/><path class="cls-4" d="M92.77,87.85l1,.57v.3L92.45,88V85.13l.32.18Z"/><path class="cls-4" d="M95.63,88.64a1,1,0,0,1-.22.77c-.14.12-.35.11-.61,0a1.5,1.5,0,0,1-.61-.66,2.27,2.27,0,0,1-.24-1v-.53a1.05,1.05,0,0,1,.22-.77c.15-.13.36-.12.62,0a1.53,1.53,0,0,1,.61.67,2.18,2.18,0,0,1,.23,1ZM95.32,88a2,2,0,0,0-.13-.75,1,1,0,0,0-.4-.45c-.17-.09-.3-.1-.39,0a.9.9,0,0,0-.13.58v.51a1.82,1.82,0,0,0,.13.74,1,1,0,0,0,.4.46c.17.1.3.1.39,0a1,1,0,0,0,.13-.57Z"/><path class="cls-4" d="M96.43,89.16v1.11l-.31-.18V87.25l.79.45a1.55,1.55,0,0,1,.55.56,1.48,1.48,0,0,1,.19.74c0,.28-.06.45-.18.53a.56.56,0,0,1-.54-.08Zm0-.31.48.28c.14.08.25.09.32,0a.42.42,0,0,0,.11-.34,1.13,1.13,0,0,0-.11-.48.81.81,0,0,0-.32-.34l-.48-.28Z"/><path class="cls-4" d="M98.46,88.6l.65,2.7.65-2,.41.24v2.84l-.31-.18V91.14l0-1.09-.65,1.84L99,91.75l-.65-2.58,0,1.12v1.1l-.31-.18V88.37Z"/><path class="cls-4" d="M101.9,92.12l-.88-.51v1l1,.59v.31l-1.34-.78V89.9l1.32.76V91l-1-.58v.91l.88.51Z"/><path class="cls-4" d="M104.08,94.69l-.32-.18-1-2.77v2.19l-.32-.18V90.9l.32.19,1,2.78V91.66l.31.18Z"/><path class="cls-4" d="M106,93.28l-.66-.38v2.54l-.31-.18V92.72l-.65-.38V92L106,93Z"/><ellipse class="cls-8" cx="107.76" cy="73.7" rx="5.18" ry="8.97" transform="translate(33.47 181.06) rotate(-89.69)"/><path d="M105,70.88s-2.46,1.88-1.62,2.72,4.53-1.23,4.53-1.23"/><path class="cls-10" d="M105.14,54s.45,7.95.45,9.37-.58,7.56-.58,7.56a2.38,2.38,0,0,0,1.87,1.42,4.18,4.18,0,0,0,2.39-.51s.77-14,0-15.78Z"/><path class="cls-11" d="M106.88,72.3a4.18,4.18,0,0,0,2.39-.51s.77-14,0-15.78l-2.25-1.11,0,.86a42,42,0,0,1,.77,7.76C107.66,66.1,106.88,72.3,106.88,72.3Z"/><path d="M109,73.4s-3,2.14-2,2.91,6-2.2,6-2.2"/><path class="cls-10" d="M113.67,56.85s.06,14.94-.65,17.26a2.89,2.89,0,0,1-4-.71s.51-5.81.45-8.27-.52-9-.52-9Z"/><path class="cls-11" d="M110.83,74.57a3,3,0,0,0,2.19-.46c.71-2.32.65-17.26.65-17.26l-2.47-.68c.06,1.51.58,7.35.47,9.87C111.54,68.94,110.83,74.57,110.83,74.57Z"/><path class="cls-12" d="M111.54,47.56s1,3.68,1.09,4.78-.38,7.3-.38,7.3a2.32,2.32,0,0,0,1.55.58,2.74,2.74,0,0,0,1.61-.52,68.32,68.32,0,0,0,.65-7.69,50.08,50.08,0,0,0-1.55-8.72c-.65-1.68-3-3.16-3-3.16l-4.12-2.33-2.6-.39a1.61,1.61,0,0,0-1.23,1.23c-.2,1-1.49,7.11-1.49,8.33s-.13,6.47-.13,6.47a1.52,1.52,0,0,0,1.17.51,1.44,1.44,0,0,0,1.16-.64Z"/><path class="cls-10" d="M104.72,44.57l-.87,1.89s-.65,5.62-.71,7.49a1.44,1.44,0,0,0,1.16-.64Z"/><path class="cls-9" d="M114.57,60s-.51,1.94-1.42,1.75-.52-1.75-.52-1.75"/><path class="cls-13" d="M106.69,39.48v.71a.81.81,0,0,0,.77.65c1.21,0,3-1.43,3-1.43V37.93Z"/><path class="cls-12" d="M104,43.81l.06,9.11a5.93,5.93,0,0,0,3,2.84A22.29,22.29,0,0,0,112.89,57s.16-8.94-.52-11.08Z"/><path class="cls-10" d="M112.63,52.34c-.09-.82-.66-3.09-.94-4.18l-.22.24-.06,8.79a1.53,1.53,0,0,1,1-.27A41.46,41.46,0,0,0,112.63,52.34Z"/><path class="cls-10" d="M105.62,47.64c-.13-2.22,1.12-6.88,1.18-7.07l.56.15c0,.05-1.28,4.76-1.15,6.88Z"/><path class="cls-9" d="M102.42,54s.2,1.23.91,1.16.65-1.68.65-1.68"/><path class="cls-9" d="M104.75,33.21s-.65,6.27,2.26,6.27,3.69-1.87,3.69-1.87a.74.74,0,0,0,.77-.33,5,5,0,0,0,.52-1l-1.55-3.81Z"/><path d="M109.47,34.18a9.26,9.26,0,0,1-3.75-.45c-1.29-.65-1.1-1.36-1.1-1.36s1-2.45,5.11-2.45a3.09,3.09,0,0,1,3,3.23,13.66,13.66,0,0,1-.71,3.16.72.72,0,0,0-.71-.51c-.58,0-1,1.29-1,1.29l-.26-.91a.46.46,0,0,1-.52-.32A7.89,7.89,0,0,1,109.47,34.18Z"/><polygon class="cls-20" points="136.07 105 108.85 89.29 108.85 76.52 136.07 92.23 136.07 105"/><polygon class="cls-21" points="163.28 76.52 136.07 92.23 109.02 76.62 136.24 60.91 163.28 76.52"/><polygon class="cls-22" points="163.28 89.29 136.07 105 136.07 92.23 163.28 76.52 163.28 89.29"/><path class="cls-4" d="M116.18,87.59l-.88-.51v1l1,.59V89L115,88.22V85.37l1.32.77v.3l-1-.58v.92l.88.51Z"/><path class="cls-4" d="M117.43,87.87l.47-.82.37.22-.65,1,.66,1.82-.37-.22-.48-1.38-.48.83-.37-.21.66-1-.65-1.79.37.21Z"/><path class="cls-4" d="M119.86,89.71,119,89.2v1l1,.6v.3l-1.34-.77V87.49l1.33.77v.31L119,88v.92l.89.51Z"/><path class="cls-4" d="M122,91.34c0,.3-.09.49-.23.57s-.33.06-.58-.09a1.5,1.5,0,0,1-.59-.67,2.23,2.23,0,0,1-.22-1v-.51a1,1,0,0,1,.22-.75c.15-.13.36-.11.62,0a1.46,1.46,0,0,1,.56.57,1.82,1.82,0,0,1,.22.82l-.32-.18a1.41,1.41,0,0,0-.13-.57.83.83,0,0,0-.33-.34q-.25-.14-.39,0a.92.92,0,0,0-.14.59v.52a2,2,0,0,0,.13.74.91.91,0,0,0,.37.44c.17.1.29.12.36.07s.11-.19.13-.42Z"/><path class="cls-4" d="M123.88,90.51v2q0,.41-.21.51c-.13.08-.32,0-.56-.09a1.43,1.43,0,0,1-.56-.56,1.36,1.36,0,0,1-.2-.75v-2l.31.18v2a1.07,1.07,0,0,0,.1.49,1,1,0,0,0,.35.34c.16.09.27.11.35.06a.48.48,0,0,0,.1-.37v-2Z"/><path class="cls-4" d="M125.82,91.93l-.66-.38v2.54l-.31-.18V91.37L124.2,91v-.31l1.62.94Z"/><path class="cls-4" d="M126.52,94.87l-.32-.18V91.85l.32.18Z"/><path class="cls-4" d="M127.78,95.05l.57-2,.34.2-.77,2.39-.28-.16-.77-3.29.34.2Z"/><path class="cls-4" d="M130.22,95.7l-.88-.51v1l1,.59v.31L129,96.32V93.48l1.32.76v.31l-1-.58v.91l.88.51Z"/><polygon class="cls-23" points="81.64 130.54 54.43 114.83 54.43 102.06 81.64 117.77 81.64 130.54"/><polygon class="cls-24" points="108.85 102.06 81.64 117.77 54.6 102.15 81.81 86.44 108.85 102.06"/><polygon class="cls-25" points="108.85 114.83 81.64 130.54 81.64 117.77 108.85 102.06 108.85 114.83"/><path class="cls-4" d="M60.26,110.74l.65,2.69.65-1.94.4.23v2.84l-.31-.18v-1.1l0-1.1L61,114l-.24-.13-.65-2.59,0,1.12v1.11l-.32-.18V110.5Z"/><path class="cls-4" d="M63.7,114.82l-.84-.48-.2.63-.32-.19.8-2.38.27.16.81,3.31-.32-.19Zm-.76-.74.68.39L63.28,113Z"/><path class="cls-4" d="M65.31,115.35l-.44-.26v1.15l-.31-.18v-2.84l.69.4a1.41,1.41,0,0,1,.75,1.29.74.74,0,0,1-.1.4.35.35,0,0,1-.29.13l.48,1.48v0l-.34-.2Zm-.44-.56.38.22a.32.32,0,0,0,.32,0,.38.38,0,0,0,.11-.32.86.86,0,0,0-.43-.8l-.38-.21Z"/><path class="cls-4" d="M67,116.15l-.25.19v1l-.31-.18v-2.85l.31.18v1.38l.21-.2.67-.67.38.22-.81.78.87,2.1-.38-.22Z"/><path class="cls-4" d="M69.52,117.62l-.88-.51v1l1,.6v.3l-1.34-.77V115.4l1.32.76v.31l-1-.59v.92l.88.51Z"/><path class="cls-4" d="M71.56,117.57l-.65-.38v2.54l-.32-.18V117l-.65-.38v-.3l1.62.93Z"/><path class="cls-4" d="M72.26,120.51l-.32-.18v-2.85l.32.18Z"/><path class="cls-4" d="M74.44,121.77l-.32-.19-1-2.76V121l-.31-.18V118l.31.18,1,2.78v-2.2l.31.18Z"/><path class="cls-4" d="M76.54,122.63l-.05,0c-.16.12-.39.09-.7-.08a1.63,1.63,0,0,1-.63-.67,2.34,2.34,0,0,1-.24-1v-.56a1,1,0,0,1,.21-.78c.14-.11.35-.09.63.07a1.53,1.53,0,0,1,.56.54,1.69,1.69,0,0,1,.22.78l-.31-.18a1.41,1.41,0,0,0-.13-.49.86.86,0,0,0-.34-.34q-.27-.17-.39,0a.85.85,0,0,0-.13.56v.58a1.81,1.81,0,0,0,.14.74,1,1,0,0,0,.42.47c.16.1.29.13.38.08l0,0v-.65l-.46-.26v-.31l.77.44Z"/><ellipse class="cls-8" cx="80.54" cy="102.18" rx="8.97" ry="5.18" transform="matrix(1, -0.01, 0.01, 1, -0.55, 0.44)"/><path d="M83.29,99.36s2.46,1.88,1.62,2.72-4.53-1.23-4.53-1.23"/><path class="cls-10" d="M83.16,82.43s-.45,7.95-.45,9.37.58,7.56.58,7.56a2.4,2.4,0,0,1-1.87,1.43,4.23,4.23,0,0,1-2.39-.52s-.77-14,0-15.78Z"/><path class="cls-11" d="M81.42,100.79a4.23,4.23,0,0,1-2.39-.52s-.77-14,0-15.78l2.25-1.11,0,.86A42,42,0,0,0,80.45,92C80.64,94.58,81.42,100.79,81.42,100.79Z"/><path d="M79.29,101.88s3,2.14,2,2.91-6-2.2-6-2.2"/><path class="cls-10" d="M74.63,85.33s-.06,14.94.65,17.26a3,3,0,0,0,2.2.46,3,3,0,0,0,1.81-1.17s-.52-5.81-.46-8.27.52-9,.52-9Z"/><path class="cls-11" d="M77.48,103.05a3,3,0,0,1-2.2-.46c-.71-2.32-.65-17.26-.65-17.26l2.47-.68c-.06,1.51-.58,7.36-.46,9.87C76.77,97.43,77.48,103.05,77.48,103.05Z"/><path class="cls-12" d="M76.77,76s-1,3.68-1.1,4.78.38,7.3.38,7.3a2.32,2.32,0,0,1-1.55.58,2.78,2.78,0,0,1-1.61-.51,68.55,68.55,0,0,1-.65-7.69,50,50,0,0,1,1.55-8.73c.65-1.68,3-3.16,3-3.16l4.11-2.33,2.61-.39a1.6,1.6,0,0,1,1.22,1.23c.2,1,1.49,7.11,1.49,8.34s.13,6.46.13,6.46a1.51,1.51,0,0,1-1.16.51A1.44,1.44,0,0,1,84,81.79Z"/><path class="cls-10" d="M83.58,73.05l.87,1.89s.65,5.62.72,7.49A1.44,1.44,0,0,1,84,81.79Z"/><path class="cls-9" d="M73.73,88.44s.52,1.94,1.42,1.75.52-1.75.52-1.75"/><path class="cls-13" d="M81.61,68v.71a.81.81,0,0,1-.77.65c-1.21,0-3-1.42-3-1.42V66.41Z"/><path class="cls-12" d="M84.33,72.29l-.07,9.11a5.88,5.88,0,0,1-3,2.84,22.29,22.29,0,0,1-5.81,1.23s-.16-8.94.52-11.08Z"/><path class="cls-10" d="M75.67,80.82c.09-.82.66-3.09.94-4.18l.22.24.06,8.79a1.53,1.53,0,0,0-1-.27A44.1,44.1,0,0,1,75.67,80.82Z"/><path class="cls-10" d="M82.68,76.12c.13-2.22-1.12-6.88-1.17-7.07l-.57.15S82.22,74,82.1,76.08Z"/><path class="cls-9" d="M85.88,82.5s-.2,1.23-.91,1.16S84.33,82,84.33,82"/><path class="cls-9" d="M83.55,61.69S84.2,68,81.29,68s-3.68-1.87-3.68-1.87a.74.74,0,0,1-.78-.33,5,5,0,0,1-.52-1L77.86,61Z"/><path d="M78.83,62.66a9.26,9.26,0,0,0,3.75-.45c1.29-.65,1.1-1.36,1.1-1.36s-1-2.45-5.11-2.45a3.09,3.09,0,0,0-3,3.23,13.66,13.66,0,0,0,.71,3.16.72.72,0,0,1,.71-.51c.59,0,1,1.29,1,1.29l.26-.91a.46.46,0,0,0,.52-.32A7.89,7.89,0,0,0,78.83,62.66Z"/><polygon class="cls-26" points="108.68 158.92 81.47 143.21 81.47 130.44 108.68 146.15 108.68 158.92"/><polygon class="cls-27" points="135.9 130.44 108.68 146.15 81.64 130.54 108.85 114.83 135.9 130.44"/><polygon class="cls-28" points="135.9 143.21 108.68 158.92 108.68 146.15 135.9 130.44 135.9 143.21"/><path class="cls-4" d="M94,144.26a1.5,1.5,0,0,1-.09.58.43.43,0,0,1-.25.26l.37.59-.21.12-.45-.73L93.2,145a1.59,1.59,0,0,1-.61-.67,2.31,2.31,0,0,1-.23-1v-.51a1,1,0,0,1,.22-.77c.15-.13.36-.12.62,0a1.61,1.61,0,0,1,.62.67,2.25,2.25,0,0,1,.22,1Zm-.31-.68a2,2,0,0,0-.13-.75,1,1,0,0,0-.4-.44c-.17-.1-.3-.1-.39,0a.9.9,0,0,0-.13.58v.51a1.82,1.82,0,0,0,.13.74.94.94,0,0,0,.39.46c.18.1.31.1.39,0a.88.88,0,0,0,.14-.56Z"/><path class="cls-4" d="M95.7,145.65l-.84-.49-.19.63-.33-.18.81-2.38.27.15.8,3.31-.32-.19Zm-.76-.75.68.39-.34-1.49Z"/><ellipse class="cls-8" cx="107.59" cy="130.56" rx="5.18" ry="8.97" transform="translate(-23.56 237.44) rotate(-89.69)"/><path d="M104.84,127.75s-2.46,1.87-1.62,2.71,4.53-1.23,4.53-1.23"/><path class="cls-10" d="M105,110.82s.45,7.94.45,9.37-.58,7.56-.58,7.56a2.4,2.4,0,0,0,1.87,1.42,4.14,4.14,0,0,0,2.39-.52s.77-14,0-15.78Z"/><path class="cls-11" d="M106.71,129.17a4.14,4.14,0,0,0,2.39-.52s.77-14,0-15.78l-2.25-1.11,0,.87a41.94,41.94,0,0,1,.77,7.75C107.49,123,106.71,129.17,106.71,129.17Z"/><path d="M108.85,130.27s-3,2.13-2,2.9,6-2.19,6-2.19"/><path class="cls-10" d="M113.5,113.71s.06,14.94-.65,17.27a3,3,0,0,1-2.19.45,3,3,0,0,1-1.81-1.16s.51-5.82.45-8.27-.52-9-.52-9Z"/><path class="cls-11" d="M110.66,131.43a3,3,0,0,0,2.19-.45c.71-2.33.65-17.27.65-17.27L111,113c.06,1.51.58,7.35.47,9.86C111.37,125.81,110.66,131.43,110.66,131.43Z"/><path class="cls-12" d="M111.37,104.42s1,3.68,1.09,4.78-.38,7.3-.38,7.3a2.32,2.32,0,0,0,1.55.58,2.78,2.78,0,0,0,1.61-.51,68.32,68.32,0,0,0,.65-7.69,50,50,0,0,0-1.55-8.73c-.65-1.68-3-3.16-3-3.16l-4.12-2.33-2.6-.39a1.61,1.61,0,0,0-1.23,1.23c-.2,1-1.49,7.11-1.49,8.34s-.13,6.46-.13,6.46a1.51,1.51,0,0,0,1.17.52,1.43,1.43,0,0,0,1.16-.65Z"/><path class="cls-10" d="M104.55,101.44l-.87,1.88s-.65,5.62-.71,7.5a1.43,1.43,0,0,0,1.16-.65Z"/><path class="cls-9" d="M114.4,116.83s-.51,1.93-1.42,1.74-.52-1.74-.52-1.74"/><path class="cls-13" d="M106.52,96.34v.71a.81.81,0,0,0,.78.65c1.2,0,3-1.42,3-1.42V94.79Z"/><path class="cls-12" d="M103.81,100.67l.06,9.11a5.93,5.93,0,0,0,3,2.85,22.09,22.09,0,0,0,5.81,1.22s.16-8.94-.52-11.08Z"/><path class="cls-10" d="M112.46,109.2c-.09-.82-.66-3.09-.94-4.18l-.22.24-.06,8.79a1.49,1.49,0,0,1,1-.26A41.63,41.63,0,0,0,112.46,109.2Z"/><path class="cls-10" d="M105.45,104.5c-.13-2.22,1.12-6.87,1.18-7.07l.56.15s-1.28,4.76-1.15,6.89Z"/><path class="cls-9" d="M102.25,110.88s.2,1.23.91,1.16.65-1.68.65-1.68"/><path class="cls-9" d="M104.58,90.07s-.65,6.27,2.26,6.27,3.69-1.87,3.69-1.87a.73.73,0,0,0,.77-.32,5.36,5.36,0,0,0,.52-1l-1.55-3.82Z"/><path d="M109.3,91a9.07,9.07,0,0,1-3.75-.45c-1.29-.64-1.1-1.36-1.1-1.36s1-2.45,5.11-2.45a3.09,3.09,0,0,1,3,3.23,13.78,13.78,0,0,1-.71,3.17.72.72,0,0,0-.71-.52c-.58,0-1,1.29-1,1.29l-.26-.9a.48.48,0,0,1-.52-.33A7.88,7.88,0,0,1,109.3,91Z"/><ellipse class="cls-8" cx="134.96" cy="76.65" rx="5.17" ry="8.96" transform="translate(57.59 211.19) rotate(-89.69)"/><path class="cls-9" d="M129.93,56.42s0,1.33.76,1.48.62-1.68.62-1.68"/><path d="M135.89,75.68a16.63,16.63,0,0,1-1,1.41c-.26.28-1.22,1.17-.59,1.43a1.89,1.89,0,0,0,1.75-.24,15.39,15.39,0,0,1,1.16-1.3l0,.39a.43.43,0,0,0,.25,0,.89.89,0,0,0,.22-.12,6.05,6.05,0,0,1,0-.88c.05-.17.34-.87.22-1.08"/><path d="M133.16,73.93a8.57,8.57,0,0,1-1,1.42c-.37.33-1.46,1.28-.83,1.53a1.86,1.86,0,0,0,1.63-.07c.32-.25,1.21-1.34,1.41-1.46l0,.35a.26.26,0,0,0,.21.07.47.47,0,0,0,.21-.1,2.76,2.76,0,0,1,.06-.79c.08-.23.43-1,.35-1.16"/><path class="cls-9" d="M138.49,67.35s-.05,1.26-.05,1.87.19,1,.19,1.64-.8,2.38-.8,3.27A3,3,0,0,0,138,75.3a1.35,1.35,0,0,1-1.21.79c-.89,0-.84-.46-.84-.46a13.31,13.31,0,0,0,.28-2.2c0-.89,0-2,0-2.57s-.23-3.69-.23-3.69"/><path class="cls-9" d="M135.61,67.09s0,.57,0,1,.07.95.07,1.47c0,1.27-.74,2.21-.74,3a2.15,2.15,0,0,0,.21,1.12s-.42.81-1.09.81a1.09,1.09,0,0,1-.94-.53s.24-2.84.24-3.82-.14-2.73-.17-3.33a7.36,7.36,0,0,1,0-1.19"/><path class="cls-10" d="M136,57.35l-5.33-1.12v7.08s2.53,4.07,7.08,4.07c2.25,0,2.6-1.41,2.6-1.41V61.35Z"/><path class="cls-11" d="M140.38,66V61.35l-2.75-2.53c0,.32,0,.57.06.73.24,1.45.09,7.83.09,7.83C140,67.38,140.38,66,140.38,66Z"/><path class="cls-12" d="M130.7,44.45c0,.77-1,2.17-1,3.71s.84,1.55.84,3.3V56.3S134.07,60,137.29,60s3.23-.56,3.23-.56l-1.26-12.2Z"/><path class="cls-12" d="M131.54,56a3.25,3.25,0,0,1-1.4.49.67.67,0,0,1-.7-.56s.21-4.42.21-6.24,1.12-7.93,2-8.91a6.6,6.6,0,0,1,4.42.84c2.39,1.34,2,1.06,2,1.06a4.11,4.11,0,0,1,2.59,2.52,22.5,22.5,0,0,1,1.26,7.5,78,78,0,0,1-.84,7.78,2.79,2.79,0,0,1-1.33.5,1.07,1.07,0,0,1-.91-.5s.21-4.69.21-6.52a22,22,0,0,0-1.12-5.11Z"/><path class="cls-9" d="M140.73,60.76s-.42,2-1.31,2-.47-2-.47-2"/><path class="cls-2" d="M136.52,42.77s-2.19,1.68-2.29,1.87-.37-.33-.37-.33-1.68,3.27-1.68,5.28c0,0-.38-3,.46-4.21s.38-1.59.38-1.59l-.7.05a8.75,8.75,0,0,1,1-1.87l1.87-.61Z"/><polygon points="132.6 41.83 131.75 42.44 131.75 39.35 132.88 40.24 132.6 41.83"/><path class="cls-13" d="M133.86,42.34l.07.64a18.63,18.63,0,0,0,2.8-1l-1-1.33Z"/><path class="cls-10" d="M138.79,60c-.29,0-.63,0-1,0l-.07-.46c-.23-1.45.05-10.29.05-10.29l.19-.39A22,22,0,0,1,139.05,54c0,1.44-.13,4.68-.19,6Z"/><path class="cls-10" d="M130.17,48.61a10.89,10.89,0,0,0,4.44,2.15s.28.93.6,1.12c0,0-3.83-1.4-4.86-2"/><path class="cls-9" d="M136.24,36.88l.49,4.06s-2.17,1.4-3.15,1.4-1.61-1.54-2-2.59a5.22,5.22,0,0,1-.28-2.24Z"/><path d="M130.77,37.37a11.65,11.65,0,0,0,2.67,1L136,39v4.21s.42-.07,1.68-.35a4.32,4.32,0,0,0,1.62-.57s.14-5,.14-6.24-.42-3.29-3.72-3.29A4.74,4.74,0,0,0,130.77,37.37Z"/><path class="cls-10" d="M129.75,56.41a.75.75,0,0,0,.39.1,2,2,0,0,0,.54-.09l-.12-.12V51.46a3.83,3.83,0,0,0-.14-1.08Z"/><polygon class="cls-29" points="27.21 130.63 0 114.92 0 102.15 27.21 117.87 27.21 130.63"/><polygon class="cls-30" points="54.43 102.15 27.21 117.87 0.17 102.25 27.38 86.54 54.43 102.15"/><polygon class="cls-31" points="54.43 114.92 27.21 130.63 27.21 117.87 54.43 102.15 54.43 114.92"/><path class="cls-4" d="M7.84,114.84V112l.59.35a1.7,1.7,0,0,1,.68.7,2.12,2.12,0,0,1,.24,1v.48c0,.38-.08.62-.24.73s-.4.08-.71-.1Zm.31-2.36v2.23l.25.15q.33.18.48.06a.69.69,0,0,0,.16-.55v-.51a1.6,1.6,0,0,0-.15-.74,1.12,1.12,0,0,0-.46-.48Z"/><path class="cls-4" d="M11,115.37l-.88-.51v1l1,.59v.31L9.84,116v-2.84l1.32.76v.31l-1-.58v.91l.88.51Z"/><path class="cls-4" d="M12.29,116.86l.57-2,.35.2-.78,2.4-.27-.16L11.38,114l.35.2Z"/><path class="cls-4" d="M16,118.36a1,1,0,0,1-.22.77c-.14.13-.35.11-.62,0a1.61,1.61,0,0,1-.6-.66,2.27,2.27,0,0,1-.24-1v-.53a1,1,0,0,1,.23-.77c.14-.13.35-.12.61,0a1.59,1.59,0,0,1,.62.66,2.31,2.31,0,0,1,.22,1Zm-.31-.68a1.93,1.93,0,0,0-.13-.74.93.93,0,0,0-.4-.45c-.17-.1-.3-.1-.39,0a.9.9,0,0,0-.13.58v.51a1.82,1.82,0,0,0,.13.74.94.94,0,0,0,.39.46c.18.1.31.11.4,0a1,1,0,0,0,.13-.57Z"/><path class="cls-4" d="M16.77,118.88V120l-.31-.18V117l.79.46a1.5,1.5,0,0,1,.75,1.3.59.59,0,0,1-.19.52.56.56,0,0,1-.54-.08Zm0-.31.48.28c.14.08.25.1.32,0s.11-.16.11-.34a1.13,1.13,0,0,0-.11-.48.81.81,0,0,0-.32-.34l-.48-.27Z"/><path class="cls-4" d="M19.49,120.84a.7.7,0,0,0-.1-.38A2.37,2.37,0,0,0,19,120a3.6,3.6,0,0,1-.4-.46,1.86,1.86,0,0,1-.21-.39,1.07,1.07,0,0,1-.07-.39.46.46,0,0,1,.2-.44.55.55,0,0,1,.52.08,1.76,1.76,0,0,1,.39.34,1.61,1.61,0,0,1,.26.46,1.46,1.46,0,0,1,.09.49l-.31-.18a1,1,0,0,0-.11-.47.85.85,0,0,0-.32-.33c-.13-.07-.23-.09-.3,0s-.1.13-.1.28a.78.78,0,0,0,.11.37,2.75,2.75,0,0,0,.35.42,2.78,2.78,0,0,1,.53.64,1.36,1.36,0,0,1,.16.62c0,.23-.07.38-.2.44s-.31,0-.54-.1a1.4,1.4,0,0,1-.4-.34,1.75,1.75,0,0,1-.29-.47,1.32,1.32,0,0,1-.1-.51l.31.18a.92.92,0,0,0,.13.49,1.06,1.06,0,0,0,.35.35c.14.08.24.09.31,0A.29.29,0,0,0,19.49,120.84Z"/><ellipse class="cls-8" cx="26.12" cy="102.28" rx="5.18" ry="8.97" transform="translate(-76.3 127.84) rotate(-89.69)"/><path d="M23.37,99.46s-2.46,1.88-1.62,2.72S26.28,101,26.28,101"/><path class="cls-10" d="M23.5,82.53s.45,8,.45,9.37-.58,7.56-.58,7.56a2.4,2.4,0,0,0,1.87,1.42,4.18,4.18,0,0,0,2.39-.51s.77-14,0-15.78Z"/><path class="cls-11" d="M25.24,100.88a4.18,4.18,0,0,0,2.39-.51s.77-14,0-15.78l-2.25-1.11,0,.86a42,42,0,0,1,.77,7.76C26,94.68,25.24,100.88,25.24,100.88Z"/><path d="M27.38,102s-3,2.13-2,2.91,6-2.2,6-2.2"/><path class="cls-10" d="M32,85.43s.06,14.94-.65,17.26a2.89,2.89,0,0,1-4-.71s.51-5.81.45-8.27-.52-9-.52-9Z"/><path class="cls-11" d="M29.19,103.15a3,3,0,0,0,2.19-.46c.71-2.32.65-17.26.65-17.26l-2.47-.68c.06,1.51.58,7.35.47,9.87C29.9,97.52,29.19,103.15,29.19,103.15Z"/><path class="cls-12" d="M29.9,76.13s1,3.69,1.1,4.79-.39,7.3-.39,7.3a2.32,2.32,0,0,0,1.55.58,2.74,2.74,0,0,0,1.61-.52,68.32,68.32,0,0,0,.65-7.69,49,49,0,0,0-1.55-8.72c-.65-1.68-3-3.17-3-3.17l-4.12-2.32L23.18,66A1.59,1.59,0,0,0,22,67.22c-.2,1-1.49,7.11-1.49,8.33S20.33,82,20.33,82a1.52,1.52,0,0,0,1.17.51,1.44,1.44,0,0,0,1.16-.64Z"/><path class="cls-10" d="M23.08,73.15,22.21,75s-.65,5.62-.71,7.49a1.44,1.44,0,0,0,1.16-.64Z"/><path class="cls-9" d="M32.93,88.54s-.51,1.94-1.42,1.75S31,88.54,31,88.54"/><path class="cls-13" d="M25.05,68.06v.71a.81.81,0,0,0,.78.64c1.2,0,3-1.42,3-1.42V66.51Z"/><path class="cls-12" d="M22.34,72.39l.06,9.11a5.93,5.93,0,0,0,3,2.84,22.29,22.29,0,0,0,5.81,1.23s.16-8.95-.52-11.08Z"/><path class="cls-10" d="M31,80.92c-.1-.82-.67-3.09-.95-4.18l-.22.23-.06,8.79a1.55,1.55,0,0,1,1-.26A45,45,0,0,0,31,80.92Z"/><path class="cls-10" d="M24,76.22c-.13-2.22,1.12-6.88,1.18-7.08l.56.16s-1.28,4.76-1.15,6.88Z"/><path class="cls-9" d="M20.79,82.6s.19,1.22.9,1.16.65-1.68.65-1.68"/><path class="cls-9" d="M23.11,61.79s-.64,6.27,2.26,6.27,3.69-1.88,3.69-1.88a.73.73,0,0,0,.77-.32,5,5,0,0,0,.52-1L28.8,61.08Z"/><path d="M27.83,62.76a9.26,9.26,0,0,1-3.75-.45C22.79,61.66,23,61,23,61s1-2.46,5.11-2.46a3.1,3.1,0,0,1,3,3.24,13.8,13.8,0,0,1-.71,3.16.72.72,0,0,0-.71-.52c-.58,0-1,1.3-1,1.3l-.26-.91a.46.46,0,0,1-.52-.32A7.89,7.89,0,0,1,27.83,62.76Z"/><polygon class="cls-32" points="54.43 159.02 27.21 143.31 27.21 130.54 54.43 146.25 54.43 159.02"/><polygon class="cls-33" points="81.64 130.54 54.43 146.25 27.38 130.63 54.6 114.92 81.64 130.54"/><polygon class="cls-34" points="81.64 143.31 54.43 159.02 54.43 146.25 81.64 130.54 81.64 143.31"/><path class="cls-4" d="M35.67,143.58v-2.85l.71.41a1.45,1.45,0,0,1,.52.49,1.33,1.33,0,0,1,.17.67.45.45,0,0,1-.09.3.3.3,0,0,1-.24.1,1.11,1.11,0,0,1,.28.39,1.48,1.48,0,0,1,.1.5.56.56,0,0,1-.19.5c-.12.07-.3,0-.52-.09Zm.32-1.45.4.23a.25.25,0,0,0,.26,0,.32.32,0,0,0,.1-.28.75.75,0,0,0-.09-.39.67.67,0,0,0-.28-.27l-.39-.23Zm0,.3v1l.42.25c.12.07.22.08.29,0s.1-.16.1-.32a.79.79,0,0,0-.38-.73Z"/><path class="cls-4" d="M37.91,144.87l-.31-.18v-2.84l.31.18Z"/><path class="cls-4" d="M38.7,145l1.18.68V146l-1.53-.89v-.28l1.14-1.6-1.13-.65v-.3l1.47.85v.27Z"/><path class="cls-4" d="M41.1,146.71v-2.84l.59.34a1.76,1.76,0,0,1,.68.7,2.13,2.13,0,0,1,.24,1v.47a.88.88,0,0,1-.24.74c-.17.11-.4.07-.71-.11Zm.31-2.36v2.23l.25.15c.22.13.38.15.49.06a.72.72,0,0,0,.15-.55v-.5a1.67,1.67,0,0,0-.15-.75,1,1,0,0,0-.46-.47Z"/><path class="cls-4" d="M44.3,147.24l-.89-.51v1l1,.59v.31l-1.34-.77V145l1.32.77v.3l-1-.58v.92l.89.5Z"/><path class="cls-4" d="M45.55,148.73l.58-2,.34.2-.78,2.39-.27-.15-.77-3.3.34.2Z"/><ellipse class="cls-8" cx="53.38" cy="130.69" rx="8.96" ry="5.17" transform="translate(-0.71 0.29) rotate(-0.31)"/><path class="cls-9" d="M58.41,110.46s0,1.33-.76,1.48-.62-1.68-.62-1.68"/><path d="M52.45,129.73s.74,1.12,1,1.4,1.23,1.17.59,1.44a1.92,1.92,0,0,1-1.75-.25,17.15,17.15,0,0,0-1.16-1.3l0,.39a.5.5,0,0,1-.25,0,1.2,1.2,0,0,1-.22-.13,5.88,5.88,0,0,0,0-.87c-.05-.18-.34-.88-.22-1.09"/><path d="M55.18,128a8.57,8.57,0,0,0,1,1.42c.37.34,1.46,1.28.83,1.53a1.86,1.86,0,0,1-1.63-.07c-.32-.25-1.21-1.33-1.41-1.46l0,.35a.26.26,0,0,1-.21.07.38.38,0,0,1-.21-.1,3.05,3.05,0,0,0-.05-.79c-.09-.23-.44-1-.35-1.16"/><path class="cls-9" d="M49.85,121.39s0,1.27,0,1.87-.19,1-.19,1.64.8,2.38.8,3.27a3,3,0,0,1-.14,1.17,1.35,1.35,0,0,0,1.21.79c.89,0,.85-.46.85-.46a13.31,13.31,0,0,1-.28-2.2c0-.89,0-2,0-2.57s.23-3.69.23-3.69"/><path class="cls-9" d="M52.73,121.14s0,.56,0,.94-.07,1-.07,1.48c0,1.26.74,2.2.74,3a2.15,2.15,0,0,1-.21,1.12s.42.81,1.09.81a1.09,1.09,0,0,0,.94-.53s-.24-2.84-.24-3.82.14-2.73.17-3.33a7.44,7.44,0,0,0,0-1.19"/><path class="cls-10" d="M52.31,111.39l5.33-1.12v7.08s-2.53,4.07-7.08,4.07c-2.25,0-2.6-1.41-2.6-1.41v-4.62Z"/><path class="cls-11" d="M48,120v-4.62l2.75-2.53c0,.32,0,.57-.06.73-.23,1.45-.09,7.83-.09,7.83C48.31,121.42,48,120,48,120Z"/><path class="cls-12" d="M57.64,98.49c0,.77,1,2.17,1,3.72s-.84,1.54-.84,3.29v4.84s-3.51,3.72-6.73,3.72-3.23-.57-3.23-.57l1.26-12.2Z"/><path class="cls-12" d="M56.8,110.06a3.25,3.25,0,0,0,1.4.49.67.67,0,0,0,.7-.56s-.21-4.42-.21-6.24-1.12-7.92-2-8.91a6.58,6.58,0,0,0-4.42.85c-2.39,1.33-2,1-2,1a4.11,4.11,0,0,0-2.6,2.52,22.5,22.5,0,0,0-1.26,7.5,78.31,78.31,0,0,0,.84,7.79,2.82,2.82,0,0,0,1.33.49,1.08,1.08,0,0,0,.91-.49s-.21-4.7-.21-6.52a21.8,21.8,0,0,1,1.13-5.12Z"/><path class="cls-9" d="M47.61,114.8s.42,2,1.31,2,.47-2,.47-2"/><path class="cls-2" d="M51.82,96.81s2.19,1.68,2.29,1.87.37-.33.37-.33,1.68,3.27,1.68,5.28c0,0,.38-3-.46-4.21s-.38-1.58-.38-1.58l.7,0A9,9,0,0,0,55,96l-1.87-.6Z"/><polygon points="55.74 95.87 56.59 96.48 56.59 93.39 55.46 94.28 55.74 95.87"/><path class="cls-13" d="M54.48,96.39l-.07.63a19.32,19.32,0,0,1-2.8-1l1-1.34Z"/><path class="cls-10" d="M49.55,114c.29,0,.63,0,1,0l.07-.46c.23-1.45,0-10.29,0-10.29l-.18-.39A21.8,21.8,0,0,0,49.29,108c0,1.44.14,4.67.19,6Z"/><path class="cls-10" d="M58.17,102.65a10.89,10.89,0,0,1-4.44,2.15s-.28.94-.6,1.12c0,0,3.83-1.4,4.86-2"/><path class="cls-9" d="M52.1,90.92,51.61,95s2.17,1.41,3.15,1.41,1.62-1.55,2-2.6a5.22,5.22,0,0,0,.28-2.24Z"/><path d="M57.57,91.41a11.41,11.41,0,0,1-2.67,1L52.38,93v4.21s-.42-.07-1.68-.35a4.49,4.49,0,0,1-1.62-.56s-.14-5-.14-6.24.42-3.3,3.72-3.3A4.74,4.74,0,0,1,57.57,91.41Z"/><path class="cls-10" d="M58.59,110.45a.75.75,0,0,1-.39.1,2,2,0,0,1-.54-.09l.12-.12V105.5a3.83,3.83,0,0,1,.14-1.08Z"/></g></g></svg>