<?xml version="1.0" encoding="UTF-8"?>
<svg width="250px" height="250px" viewBox="0 0 250 250" version="1.1" xmlns="http://www.w3.org/2000/svg" xmlns:xlink="http://www.w3.org/1999/xlink">
    <!-- Generator: Sketch 52 (66869) - http://www.bohemiancoding.com/sketch -->
    <title>Asset 1</title>
    <desc>Created with Sketch.</desc>
    <defs>
        <linearGradient x1="50.0476644%" y1="-494.908575%" x2="50.0476644%" y2="391.75599%" id="linearGradient-1">
            <stop stop-color="#FFFFFF" offset="0%"></stop>
            <stop stop-color="#EBEBEB" offset="82%"></stop>
        </linearGradient>
        <linearGradient x1="50.0014785%" y1="16.7891011%" x2="50.0014785%" y2="124.117995%" id="linearGradient-2">
            <stop stop-color="#FFFFFF" offset="0%"></stop>
            <stop stop-color="#EBEBEB" offset="82%"></stop>
        </linearGradient>
    </defs>
    <g id="Page-1" stroke="none" stroke-width="1" fill="none" fill-rule="evenodd">
        <g id="market-join2-copy" transform="translate(-595.000000, -2376.000000)">
            <g id="Asset-11" transform="translate(660.000000, 2403.000000)">
                <polygon id="Path" fill="#00CBAD" points="27.3 165.148569 122.802 109.556765 125.802 111.501773 30.465 167.3307"></polygon>
                <polygon id="Path" fill="url(#linearGradient-1)" points="78.699 139.137092 75.552 140.956034 75.552 123.730109 78.699 121.914168"></polygon>
                <polygon id="Path" fill="#929092" points="72.402 139.137092 75.552 140.956034 75.552 123.730109 72.402 121.914168"></polygon>
                <polygon id="Path" fill="#929092" points="18.819 148.357869 18.819 58.6053655 120.276 0 122.481 1.26365474 120.276 89.7495023"></polygon>
                <polygon id="Path" fill="url(#linearGradient-2)" points="21.024 158.572162 21.024 59.8690202 122.481 1.26365474 122.481 99.9667963"></polygon>
                <polyline id="Path" stroke="#939598" stroke-width="0.6" stroke-linecap="round" points="28.596 144.876065 113.964 96.2508709 113.964 17.7602022 29.943 65.2748212"></polyline>
                <path d="M103.614,24.3696267 L103.614,102.145925" id="Path" stroke="#939598" stroke-width="0.6" stroke-linecap="round"></path>
                <path d="M93.243,29.847465 L93.243,108.052986" id="Path" stroke="#939598" stroke-width="0.6" stroke-linecap="round"></path>
                <path d="M82.614,35.4903888 L82.614,114.107123" id="Path" stroke="#939598" stroke-width="0.6" stroke-linecap="round"></path>
                <path d="M72.114,41.427465 L72.114,120.101229" id="Path" stroke="#939598" stroke-width="0.6" stroke-linecap="round"></path>
                <path d="M59.214,48.9823795 L59.214,127.370995" id="Path" stroke="#939598" stroke-width="0.6" stroke-linecap="round"></path>
                <path d="M48.639,54.9854899 L48.639,133.764308" id="Path" stroke="#939598" stroke-width="0.6" stroke-linecap="round"></path>
                <path d="M37.764,60.8505288 L37.764,139.692379" id="Path" stroke="#939598" stroke-width="0.6" stroke-linecap="round"></path>
                <path d="M57.114,99.327465 C57.813,98.3279471 59.325,96.5840435 57.888,94.5910109 C57.708,94.3748989 57.513,94.1437792 57.288,93.9186625 C56.265,96.8992068 51.831,103.148445 51.501,103.565661 C50.1093309,103.946337 48.6970201,104.246985 47.271,104.466128 C48.0402881,104.94507 48.8422633,105.369334 49.671,105.735785 C48.4817385,105.987218 47.268442,106.107 46.053,106.09297 C48.396,107.437667 48.957,107.779844 48.957,107.779844 C48.3919754,108.852204 47.7711226,109.894175 47.097,110.901462 C51.204,108.419176 56.463,100.251944 57.114,99.327465 Z" id="Path" fill="#5A616E"></path>
                <polygon id="Path" fill="#E5E5E5" style="mix-blend-mode: multiply;" points="70.875 106.116983 59.775 82.3116485 57.591 92.4418974 51.738 95.9056921 50.688 94.1347745 55.767 91.1272162 59.055 75.8943235 70.869 101.227449 77.817 86.2316796 78.564 70.8937325 93.579 71.1158476 96.981 52.028958 102.738 56.1651011 108.132 54.4151944 112.932 44.0208087 113.964 45.7797201 109.626 56.0990669 102.381 58.446283 98.436 55.6128149 95.301 73.2019285 80.526 72.9828149 79.857 86.7329393"></polygon>
                <polygon id="Path" fill="#424959" points="71.907 107.875894 60.807 84.0735614 58.62 94.2008087 52.767 97.667605 51.717 95.8936858 56.799 92.8861275 60.087 77.6532348 61.869 78.4456454 71.901 102.989362 78.849 87.990591 79.596 72.6526439 94.611 72.8747589 98.013 53.7908709 99.795 54.5802799 103.767 57.927014 109.164 56.1741058 113.964 45.7797201 115.746 46.5721306 111.864 57.8369673 105.195 60.997605 103.413 60.208196 99.465 57.3717263 96.33 74.9638414 81.555 74.7417263 80.886 88.4918507 73.689 108.668305"></polygon>
                <polygon id="Path" fill="#6B7280" points="73.689 108.668305 62.589 84.8629705 60.402 94.9932193 54.549 98.457014 53.499 96.6860964 58.578 93.6785381 61.869 78.4456454 73.683 103.778771 80.631 88.7830016 81.378 73.4450544 96.393 73.6671695 99.795 54.5802799 105.549 58.716423 110.946 56.9665163 115.746 46.5721306 115.746 51.4856765 112.437 58.6503888 105.195 60.997605 101.247 58.1641369 98.112 75.7532504 83.337 75.5341369 82.668 89.2842613"></polygon>
                <ellipse id="Oval" fill="#00CBAD" cx="24.264" cy="179.748134" rx="24.264" ry="13.1288025"></ellipse>
                <path d="M13.296,180.909736 C17.565,183.959316 25.986,187.999409 28.236,185.979362 C30.486,183.959316 24.831,179.631073 22.41,178.535505 C19.989,177.439938 13.296,180.909736 13.296,180.909736 Z" id="Path" fill="#030203"></path>
                <path d="M22.524,173.754028 C26.793,176.803608 35.214,180.843701 37.464,178.823655 C39.714,176.803608 34.059,172.475365 31.638,171.379798 C29.217,170.28423 22.524,173.754028 22.524,173.754028 Z" id="Path" fill="#030203"></path>
                <path d="M33.396,124.795661 C32.127,140.971042 31.089,152.049782 32.706,172.133188 C29.937,175.828103 25.437,176.086236 22.452,173.793048 C20.418,161.88888 20.091,134.622753 20.817,132.026407 C21.543,129.430062 20.817,123.973235 20.817,123.973235 L33.396,124.795661 Z" id="Path" fill="#585E70"></path>
                <path d="M26.532,128.166407 C25.332,150.90619 26.412,169.815988 27.351,175.248802 C25.5931116,175.392804 23.8451257,174.872313 22.452,173.790047 C20.418,161.885879 20.091,134.619751 20.817,132.023406 C21.24,130.522628 21.171,128.043344 21.039,126.236407 C23.472,127.019813 26.532,128.166407 26.532,128.166407 Z" id="Path" fill="#484954"></path>
                <path d="M23.1,131.197978 C21.831,147.373359 20.793,158.4521 22.41,178.535505 C19.641,182.227418 15.141,182.488554 12.156,180.195365 C10.122,168.291198 9.795,141.02507 10.521,138.425723 C11.247,135.826376 10.521,130.375552 10.521,130.375552 L23.1,131.197978 Z" id="Path" fill="#585E70"></path>
                <path d="M16.236,134.55972 C15.036,157.299502 16.116,176.2093 17.055,181.642115 C15.2988103,181.788042 13.5515113,181.272038 12.156,180.195365 C10.122,168.291198 9.795,141.02507 10.521,138.425723 C10.944,136.924946 10.875,134.448663 10.743,132.638725 C13.176,133.422131 16.236,134.55972 16.236,134.55972 Z" id="Path" fill="#484954"></path>
                <path d="M7.845,142.351757 C8.622,144.572908 8.883,146.767045 11.016,147.256299 C13.149,147.745552 13.614,144.891073 12.864,142.090622 C12.114,139.290171 7.845,142.351757 7.845,142.351757 Z" id="Path" fill="#03E1C7"></path>
                <path d="M56.079,92.8411042 C56.961,90.8570762 57.375,90.2417574 58.305,89.9566096 C59.235,89.6714619 60.339,90.1457076 60.591,91.4573872 C60.843,92.7690669 59.469,94.380902 57.381,94.8881649 C55.293,95.3954277 56.079,92.8411042 56.079,92.8411042 Z" id="Path" fill="#03E1C7"></path>
                <path d="M18.819,88.1046501 C14.565,90.7580249 10.296,94.3358787 9.144,96.4129549 C7.992,98.4900311 6.777,101.296485 5.337,111.897978 C3.897,122.499471 3.837,122.103266 4.068,125.383966 C4.299,128.664666 4.758,142.813997 6.663,142.582877 C8.568,142.351757 13.929,142.928056 13.863,142.120638 C13.797,141.313219 12.939,125.558056 13.056,120.998694 C14.67,114.536345 15.708,111.879969 16.113,111.3607 C16.113,120.06521 16.227,134.55972 16.227,134.55972 C26.427,133.058942 31.629,130.579658 36.186,123.943219 L36.186,107.032457 C39.762,110.379191 42.582,110.934479 44.391,111.53479 C48.366,112.825459 56.298,100.49507 57.105,99.3394712 C57.912,98.1838725 59.805,96.0377605 56.991,93.6635303 C55.212,92.1627527 49.857,93.861633 44.454,100.963313 C39.909,96.8631882 35.607,93.6365163 33.954,92.7630638 C32.268,90.0256454 28.065,85.979549 27.156,85.979549 C26.247,85.979549 18.819,88.1046501 18.819,88.1046501 Z" id="Path" fill="#8C929F"></path>
                <path d="M28.596,87.0060809 L28.596,89.6894712 C28.596,90.5899378 28.122,91.9496423 25.914,91.8115708 C22.929,91.6254743 18.819,89.8035303 18.819,88.4048056 L18.819,82.7528771 L28.596,87.0060809 Z" id="Path" fill="#24BAA5"></path>
                <path d="M33.96,71.2539191 C34.665,70.2994246 34.578,68.4234526 32.82,67.2408398 C31.062,66.0582271 28.176,63.2007465 21.774,63.338818 C15.372,63.4768896 13.323,66.0402177 12.864,69.804168 C12.405,73.5681182 13.764,79.730311 15.717,81.3181337 C17.67,82.9059565 21.198,83.1911042 21.372,83.1640902 C21.546,83.1370762 30.714,77.6532348 30.714,77.6532348 L33.96,71.2539191 Z" id="Path" fill="#040304"></path>
                <path d="M33.96,71.2539191 C33.96,77.8303266 34.218,84.1065785 31.32,86.4027683 C28.422,88.698958 26.52,88.6089114 24.225,88.1316641 C21.93,87.6544168 18.948,84.1936236 18.645,83.4162208 C17.046,83.3291757 16.266,82.8969518 15.618,81.9424572 C14.97,80.9879627 14.664,79.6072473 15.963,78.9559098 C17.262,78.3045723 18.861,80.3426283 18.906,81.9004355 C19.3860677,81.4346493 19.6785637,80.8087679 19.728,80.1415241 C20.853,79.7513219 21.501,79.319098 21.501,78.4516485 L21.501,74.5856454 C27.816,74.5856454 30.93,74.3245101 33.96,71.2539191 Z" id="Path" fill="#06E0C2"></path>
                <path d="M13.065,120.998694 C14.679,114.536345 15.717,111.879969 16.122,111.3607 C16.122,120.06521 16.236,134.55972 16.236,134.55972 C15.3222022,134.667815 14.400795,134.696938 13.482,134.646765 C13.245,129.667185 12.999,123.55902 13.065,120.998694 Z" id="Path" fill="#5A616E"></path>
            </g>
        </g>
    </g>
</svg>